<?xml version="1.0" encoding="UTF-8" standalone="no"?>
<!-- Created with Inkscape (http://www.inkscape.org/) -->

<svg
   version="1.1"
   id="svg1"
   width="220"
   height="160"
   viewBox="0 0 220 160"
   xmlns="http://www.w3.org/2000/svg"
   xmlns:svg="http://www.w3.org/2000/svg">
  <defs
     id="defs1" />
  <g
     id="g1">
    <path
       id="path1"
       d="M 0,0 H 1650 V 1200 H 0 Z"
       style="fill:#ffffff;fill-opacity:1;fill-rule:nonzero;stroke:none"
       transform="matrix(0.13333333,0,0,-0.13333333,0,160)" />
    <path
       id="path2"
       d="M 0,0 H 1650 V 1200 H 0 Z"
       style="fill:#ffffff;fill-opacity:1;fill-rule:nonzero;stroke:none"
       transform="matrix(0.13333333,0,0,-0.13333333,0,160)" />
    <path
       id="path3"
       d="m 275,250 h 1220 v 860 H 275 Z"
       style="fill:#ffffff;fill-opacity:1;fill-rule:nonzero;stroke:none"
       transform="matrix(0.13333333,0,0,-0.13333333,0,160)" />
    <path
       id="path4"
       d="m 275,250 v 860"
       style="fill:none;stroke:#dfdfdf;stroke-width:5;stroke-linecap:butt;stroke-linejoin:bevel;stroke-miterlimit:10;stroke-dasharray:40, 15, 10, 15;stroke-dashoffset:0;stroke-opacity:1"
       transform="matrix(0.13333333,0,0,-0.13333333,0,160)" />
    <path
       id="path5"
       d="m 580,250 v 860"
       style="fill:none;stroke:#dfdfdf;stroke-width:5;stroke-linecap:butt;stroke-linejoin:bevel;stroke-miterlimit:10;stroke-dasharray:40, 15, 10, 15;stroke-dashoffset:0;stroke-opacity:1"
       transform="matrix(0.13333333,0,0,-0.13333333,0,160)" />
    <path
       id="path6"
       d="m 885,250 v 860"
       style="fill:none;stroke:#dfdfdf;stroke-width:5;stroke-linecap:butt;stroke-linejoin:bevel;stroke-miterlimit:10;stroke-dasharray:40, 15, 10, 15;stroke-dashoffset:0;stroke-opacity:1"
       transform="matrix(0.13333333,0,0,-0.13333333,0,160)" />
    <path
       id="path7"
       d="m 1190,250 v 860"
       style="fill:none;stroke:#dfdfdf;stroke-width:5;stroke-linecap:butt;stroke-linejoin:bevel;stroke-miterlimit:10;stroke-dasharray:40, 15, 10, 15;stroke-dashoffset:0;stroke-opacity:1"
       transform="matrix(0.13333333,0,0,-0.13333333,0,160)" />
    <path
       id="path8"
       d="m 1495,250 v 860"
       style="fill:none;stroke:#dfdfdf;stroke-width:5;stroke-linecap:butt;stroke-linejoin:bevel;stroke-miterlimit:10;stroke-dasharray:40, 15, 10, 15;stroke-dashoffset:0;stroke-opacity:1"
       transform="matrix(0.13333333,0,0,-0.13333333,0,160)" />
    <path
       id="path9"
       d="M 1495,250 H 275"
       style="fill:none;stroke:#dfdfdf;stroke-width:5;stroke-linecap:butt;stroke-linejoin:bevel;stroke-miterlimit:10;stroke-dasharray:40, 15, 10, 15;stroke-dashoffset:0;stroke-opacity:1"
       transform="matrix(0.13333333,0,0,-0.13333333,0,160)" />
    <path
       id="path10"
       d="M 1495,536.664 H 275"
       style="fill:none;stroke:#dfdfdf;stroke-width:5;stroke-linecap:butt;stroke-linejoin:bevel;stroke-miterlimit:10;stroke-dasharray:40, 15, 10, 15;stroke-dashoffset:0;stroke-opacity:1"
       transform="matrix(0.13333333,0,0,-0.13333333,0,160)" />
    <path
       id="path11"
       d="M 1495,823.336 H 275"
       style="fill:none;stroke:#dfdfdf;stroke-width:5;stroke-linecap:butt;stroke-linejoin:bevel;stroke-miterlimit:10;stroke-dasharray:40, 15, 10, 15;stroke-dashoffset:0;stroke-opacity:1"
       transform="matrix(0.13333333,0,0,-0.13333333,0,160)" />
    <path
       id="path12"
       d="M 1495,1110 H 275"
       style="fill:none;stroke:#dfdfdf;stroke-width:5;stroke-linecap:butt;stroke-linejoin:bevel;stroke-miterlimit:10;stroke-dasharray:40, 15, 10, 15;stroke-dashoffset:0;stroke-opacity:1"
       transform="matrix(0.13333333,0,0,-0.13333333,0,160)" />
    <path
       id="path13"
       d="M 275,250 H 1495"
       style="fill:none;stroke:#262626;stroke-width:5;stroke-linecap:square;stroke-linejoin:round;stroke-miterlimit:10;stroke-dasharray:none;stroke-opacity:1"
       transform="matrix(0.13333333,0,0,-0.13333333,0,160)" />
    <path
       id="path14"
       d="M 275,1110 H 1495"
       style="fill:none;stroke:#262626;stroke-width:5;stroke-linecap:square;stroke-linejoin:round;stroke-miterlimit:10;stroke-dasharray:none;stroke-opacity:1"
       transform="matrix(0.13333333,0,0,-0.13333333,0,160)" />
    <path
       id="path15"
       d="m 275,250 v 12.18"
       style="fill:none;stroke:#262626;stroke-width:5;stroke-linecap:square;stroke-linejoin:round;stroke-miterlimit:10;stroke-dasharray:none;stroke-opacity:1"
       transform="matrix(0.13333333,0,0,-0.13333333,0,160)" />
    <path
       id="path16"
       d="m 580,250 v 12.18"
       style="fill:none;stroke:#262626;stroke-width:5;stroke-linecap:square;stroke-linejoin:round;stroke-miterlimit:10;stroke-dasharray:none;stroke-opacity:1"
       transform="matrix(0.13333333,0,0,-0.13333333,0,160)" />
    <path
       id="path17"
       d="m 885,250 v 12.18"
       style="fill:none;stroke:#262626;stroke-width:5;stroke-linecap:square;stroke-linejoin:round;stroke-miterlimit:10;stroke-dasharray:none;stroke-opacity:1"
       transform="matrix(0.13333333,0,0,-0.13333333,0,160)" />
    <path
       id="path18"
       d="m 1190,250 v 12.18"
       style="fill:none;stroke:#262626;stroke-width:5;stroke-linecap:square;stroke-linejoin:round;stroke-miterlimit:10;stroke-dasharray:none;stroke-opacity:1"
       transform="matrix(0.13333333,0,0,-0.13333333,0,160)" />
    <path
       id="path19"
       d="m 1495,250 v 12.18"
       style="fill:none;stroke:#262626;stroke-width:5;stroke-linecap:square;stroke-linejoin:round;stroke-miterlimit:10;stroke-dasharray:none;stroke-opacity:1"
       transform="matrix(0.13333333,0,0,-0.13333333,0,160)" />
    <path
       id="path20"
       d="m 275,1110 v -12.18"
       style="fill:none;stroke:#262626;stroke-width:5;stroke-linecap:square;stroke-linejoin:round;stroke-miterlimit:10;stroke-dasharray:none;stroke-opacity:1"
       transform="matrix(0.13333333,0,0,-0.13333333,0,160)" />
    <path
       id="path21"
       d="m 580,1110 v -12.18"
       style="fill:none;stroke:#262626;stroke-width:5;stroke-linecap:square;stroke-linejoin:round;stroke-miterlimit:10;stroke-dasharray:none;stroke-opacity:1"
       transform="matrix(0.13333333,0,0,-0.13333333,0,160)" />
    <path
       id="path22"
       d="m 885,1110 v -12.18"
       style="fill:none;stroke:#262626;stroke-width:5;stroke-linecap:square;stroke-linejoin:round;stroke-miterlimit:10;stroke-dasharray:none;stroke-opacity:1"
       transform="matrix(0.13333333,0,0,-0.13333333,0,160)" />
    <path
       id="path23"
       d="m 1190,1110 v -12.18"
       style="fill:none;stroke:#262626;stroke-width:5;stroke-linecap:square;stroke-linejoin:round;stroke-miterlimit:10;stroke-dasharray:none;stroke-opacity:1"
       transform="matrix(0.13333333,0,0,-0.13333333,0,160)" />
    <path
       id="path24"
       d="m 1495,1110 v -12.18"
       style="fill:none;stroke:#262626;stroke-width:5;stroke-linecap:square;stroke-linejoin:round;stroke-miterlimit:10;stroke-dasharray:none;stroke-opacity:1"
       transform="matrix(0.13333333,0,0,-0.13333333,0,160)" />
    <path
       id="path25"
       d="m 2.2021484,-4.3699219 v 4.37109378 h 0.75 V -6.1394531 H 2.4599609 c -0.2695312,0.9375 -0.4335937,1.0664062 -1.59374996,1.21875 v 0.5507812 z M 34.800781,-0.73710937 H 31.625 c 0.08203,-0.51562503 0.351563,-0.83203123 1.089844,-1.28906253 l 0.855468,-0.46875 c 0.84375,-0.46875 1.265625,-1.1015625 1.265625,-1.8515625 0,-0.515625 -0.199218,-0.984375 -0.550781,-1.3242187 -0.363281,-0.3164063 -0.808594,-0.46875 -1.371094,-0.46875 -0.761718,0 -1.335937,0.2695312 -1.664062,0.796875 -0.210937,0.328125 -0.304687,0.703125 -0.328125,1.3242187 h 0.75 c 0.02344,-0.4101562 0.08203,-0.65625 0.175781,-0.8671875 0.199219,-0.375 0.585938,-0.5976562 1.042969,-0.5976562 0.679687,0 1.183594,0.4921875 1.183594,1.1484375 0,0.4921875 -0.28125,0.9257812 -0.808594,1.2304687 l -0.785156,0.4570313 c -1.253906,0.7148437 -1.628906,1.3007812 -1.6875,2.63671873 h 4.007812 z M 62.875977,-2.8230469 h 0.410156 c 0.820312,0 1.253906,0.375 1.253906,1.1132813 0,0.77343748 -0.46875,1.24218748 -1.242187,1.24218748 -0.832032,0 -1.230469,-0.41015625 -1.277344,-1.31249998 h -0.75 c 0.03516,0.4921875 0.117187,0.80859373 0.269531,1.08984373 0.316406,0.5859375 0.902344,0.890625 1.722656,0.890625 1.242188,0 2.039063,-0.75 2.039063,-1.91015623 0,-0.7851563 -0.304688,-1.2070313 -1.019531,-1.4648438 0.5625,-0.234375 0.84375,-0.65625 0.84375,-1.2773437 0,-1.0546875 -0.691407,-1.6875 -1.839844,-1.6875 -1.21875,0 -1.863281,0.6796875 -1.886719,1.9804687 h 0.75 c 0.01172,-0.375 0.04687,-0.5859375 0.128906,-0.7734375 0.175782,-0.3515625 0.550782,-0.5507812 1.019532,-0.5507812 0.65625,0 1.054687,0.3984375 1.054687,1.0546875 0,0.4335937 -0.152344,0.703125 -0.480469,0.84375 -0.199218,0.082031 -0.480468,0.1171875 -0.996093,0.1289062 z m 31.40039,1.3359375 v 1.48828128 h 0.75 V -1.4871094 h 0.890625 v -0.6679687 h -0.890625 v -3.984375 h -0.550781 l -2.742188,3.8671875 v 0.7851562 z m 0,-0.6679687 h -1.886719 l 1.886719,-2.7070313 z m 31.766603,-3.8671875 h -3.10547 l -0.45703,3.28125 h 0.69141 c 0.35156,-0.421875 0.63281,-0.5625 1.11328,-0.5625 0.80859,0 1.3125,0.5507812 1.3125,1.4414062 0,0.86718753 -0.50391,1.39453128 -1.32422,1.39453128 -0.65625,0 -1.05469,-0.328125 -1.23047,-1.00781248 h -0.75 c 0.10547,0.49218748 0.1875,0.72656248 0.375,0.94921873 0.33984,0.45703125 0.94922,0.7265625 1.62891,0.7265625 1.20703,0 2.0625,-0.890625 2.0625,-2.15625003 0,-1.1953125 -0.78516,-2.015625 -1.94532,-2.015625 -0.42187,0 -0.76172,0.1171875 -1.11328,0.375 l 0.23438,-1.6875 h 2.50781 z m 0,0"
       style="fill:#262626;fill-opacity:1;fill-rule:nonzero;stroke:none"
       aria-label="12345"
       transform="matrix(1.3333333,0,0,1.3333333,33.333333,141.6)" />
    <path
       id="path26"
       d="m 870.266,32.5664 c -0.782,0 -1.442,0.2461 -1.989,0.7422 -0.547,0.4961 -0.82,1.1562 -0.82,1.9922 0,0.3672 0.023,0.625 0.074,0.7773 l 7.11,28.3633 c 0.468,1.7734 0.703,3.3359 0.703,4.6875 0,2.707 -0.938,4.0625 -2.813,4.0625 -1.976,0 -3.449,-1.1875 -4.41,-3.5547 -0.969,-2.3711 -1.891,-5.3515 -2.777,-8.9453 0,-0.207 -0.09,-0.3633 -0.274,-0.4648 -0.183,-0.1094 -0.351,-0.1602 -0.504,-0.1602 h -1.097 c -0.207,0 -0.391,0.1172 -0.547,0.3555 -0.156,0.2304 -0.231,0.4258 -0.231,0.582 0.676,2.7617 1.325,5.1055 1.95,7.0313 0.625,1.9257 1.617,3.6718 2.968,5.2343 1.356,1.5625 3.02,2.3438 5,2.3438 2.344,0 4.442,-0.7422 6.293,-2.2266 1.844,-1.4844 2.77,-3.3984 2.77,-5.7422 1.875,2.5 4.062,4.4532 6.562,5.8594 2.5,1.4063 5.211,2.1094 8.125,2.1094 3.336,0 5.993,-0.8867 7.973,-2.6602 1.977,-1.7695 2.965,-4.2929 2.965,-7.5742 0,-1.875 -0.211,-3.6211 -0.625,-5.2344 L 895.656,16.1602 c -0.207,-0.8868 -0.676,-1.6016 -1.406,-2.1485 -0.73,-0.5469 -1.562,-0.8203 -2.5,-0.8203 -0.781,0 -1.441,0.2344 -1.988,0.7031 -0.547,0.4688 -0.821,1.0938 -0.821,1.875 0,0.418 0.024,0.6758 0.075,0.7813 l 10.859,43.75 c 0.676,2.6015 1.016,4.789 1.016,6.5625 0,1.7187 -0.375,3.2031 -1.129,4.4531 -0.758,1.25 -1.942,1.875 -3.555,1.875 -6.203,0 -11.359,-3.8281 -15.473,-11.4883 L 874.25,35.7695 c -0.207,-0.8867 -0.687,-1.6406 -1.445,-2.2656 -0.754,-0.625 -1.602,-0.9375 -2.539,-0.9375"
       style="fill:#262626;fill-opacity:1;fill-rule:nonzero;stroke:none"
       transform="matrix(0.13333333,0,0,-0.13333333,0,160)" />
    <path
       id="path27"
       d="m 275,250 v 860"
       style="fill:none;stroke:#262626;stroke-width:5;stroke-linecap:square;stroke-linejoin:round;stroke-miterlimit:10;stroke-dasharray:none;stroke-opacity:1"
       transform="matrix(0.13333333,0,0,-0.13333333,0,160)" />
    <path
       id="path28"
       d="m 1495,250 v 860"
       style="fill:none;stroke:#262626;stroke-width:5;stroke-linecap:square;stroke-linejoin:round;stroke-miterlimit:10;stroke-dasharray:none;stroke-opacity:1"
       transform="matrix(0.13333333,0,0,-0.13333333,0,160)" />
    <path
       id="path29"
       d="m 275,250 h 12.18"
       style="fill:none;stroke:#262626;stroke-width:5;stroke-linecap:square;stroke-linejoin:round;stroke-miterlimit:10;stroke-dasharray:none;stroke-opacity:1"
       transform="matrix(0.13333333,0,0,-0.13333333,0,160)" />
    <path
       id="path30"
       d="m 275,536.664 h 12.18"
       style="fill:none;stroke:#262626;stroke-width:5;stroke-linecap:square;stroke-linejoin:round;stroke-miterlimit:10;stroke-dasharray:none;stroke-opacity:1"
       transform="matrix(0.13333333,0,0,-0.13333333,0,160)" />
    <path
       id="path31"
       d="m 275,823.336 h 12.18"
       style="fill:none;stroke:#262626;stroke-width:5;stroke-linecap:square;stroke-linejoin:round;stroke-miterlimit:10;stroke-dasharray:none;stroke-opacity:1"
       transform="matrix(0.13333333,0,0,-0.13333333,0,160)" />
    <path
       id="path32"
       d="m 275,1110 h 12.18"
       style="fill:none;stroke:#262626;stroke-width:5;stroke-linecap:square;stroke-linejoin:round;stroke-miterlimit:10;stroke-dasharray:none;stroke-opacity:1"
       transform="matrix(0.13333333,0,0,-0.13333333,0,160)" />
    <path
       id="path33"
       d="m 1495,250 h -12.18"
       style="fill:none;stroke:#262626;stroke-width:5;stroke-linecap:square;stroke-linejoin:round;stroke-miterlimit:10;stroke-dasharray:none;stroke-opacity:1"
       transform="matrix(0.13333333,0,0,-0.13333333,0,160)" />
    <path
       id="path34"
       d="m 1495,536.664 h -12.18"
       style="fill:none;stroke:#262626;stroke-width:5;stroke-linecap:square;stroke-linejoin:round;stroke-miterlimit:10;stroke-dasharray:none;stroke-opacity:1"
       transform="matrix(0.13333333,0,0,-0.13333333,0,160)" />
    <path
       id="path35"
       d="m 1495,823.336 h -12.18"
       style="fill:none;stroke:#262626;stroke-width:5;stroke-linecap:square;stroke-linejoin:round;stroke-miterlimit:10;stroke-dasharray:none;stroke-opacity:1"
       transform="matrix(0.13333333,0,0,-0.13333333,0,160)" />
    <path
       id="path36"
       d="m 1495,1110 h -12.18"
       style="fill:none;stroke:#262626;stroke-width:5;stroke-linecap:square;stroke-linejoin:round;stroke-miterlimit:10;stroke-dasharray:none;stroke-opacity:1"
       transform="matrix(0.13333333,0,0,-0.13333333,0,160)" />
    <path
       id="path37"
       d="m 2.3328125,-6.1416016 c -0.5507813,0 -1.0664063,0.2578125 -1.3828125,0.6679688 -0.38671875,0.5390625 -0.5859375,1.359375 -0.5859375,2.4960937 0,2.07421879 0.6796875,3.17578129 1.96875,3.17578129 1.2773437,0 1.9804687,-1.1015625 1.9804687,-3.11718749 0,-1.1953125 -0.1875,-1.9921875 -0.5859375,-2.5546875 -0.3164062,-0.421875 -0.8203125,-0.6679688 -1.3945312,-0.6679688 z m 0,0.65625 c 0.8085937,0 1.2070312,0.8320313 1.2070312,2.4960938 0,1.7460937 -0.3867187,2.56640624 -1.21875,2.56640624 -0.7851562,0 -1.1953125,-0.85546874 -1.1953125,-2.54296874 0,-1.6875 0.4101563,-2.5195313 1.2070313,-2.5195313 z m 4.0107422,4.60546879 H 5.4646484 V -9.765625e-4 H 6.3435547 Z M 11.318164,-4.5478516 c -0.140625,-0.9960937 -0.785156,-1.59375 -1.7109374,-1.59375 -0.65625,0 -1.2539063,0.3164063 -1.6054688,0.8671875 -0.3867187,0.609375 -0.5507812,1.359375 -0.5507812,2.4726563 0,1.03125 0.1523437,1.6875 0.515625,2.22656249 0.3164062,0.50390625 0.84375,0.7734375 1.5117187,0.7734375 1.1484377,0 1.9687497,-0.8671875 1.9687497,-2.06249999 0,-1.125 -0.761718,-1.921875 -1.8398434,-1.921875 -0.5976563,0 -1.0664063,0.2109375 -1.3945313,0.6679687 0.011719,-1.5234375 0.4921875,-2.3671875 1.3476563,-2.3671875 0.5273434,0 0.8906254,0.3398438 1.0078124,0.9375 z m -1.8046874,1.4179688 c 0.7148434,0 1.1718754,0.515625 1.1718754,1.3242187 0,0.7734375 -0.515625,1.33593754 -1.2070317,1.33593754 -0.6914062,0 -1.21875,-0.58593754 -1.21875,-1.37109374 0,-0.7617188 0.515625,-1.2890625 1.2539063,-1.2890625 z M 2.3328125,-34.808594 c -0.5507813,0 -1.0664063,0.257813 -1.3828125,0.667969 -0.38671875,0.539063 -0.5859375,1.359375 -0.5859375,2.496094 0,2.074219 0.6796875,3.175781 1.96875,3.175781 1.2773437,0 1.9804687,-1.101562 1.9804687,-3.117187 0,-1.195313 -0.1875,-1.992188 -0.5859375,-2.554688 -0.3164062,-0.421875 -0.8203125,-0.667969 -1.3945312,-0.667969 z m 0,0.65625 c 0.8085937,0 1.2070312,0.832032 1.2070312,2.496094 0,1.746094 -0.3867187,2.566406 -1.21875,2.566406 -0.7851562,0 -1.1953125,-0.855468 -1.1953125,-2.542968 0,-1.6875 0.4101563,-2.519532 1.2070313,-2.519532 z m 4.0107422,4.605469 H 5.4646484 v 0.878906 h 0.8789063 z m 5.1621093,-5.144531 H 7.4744141 v 0.738281 h 3.2578129 c -1.4296879,2.050781 -2.0273442,3.304688 -2.4726567,5.285156 h 0.796875 c 0.328125,-1.933593 1.0898437,-3.585937 2.4492187,-5.390625 z m -9.1728515,-28.78125 c -0.5507813,0 -1.0664063,0.257812 -1.3828125,0.667969 -0.38671875,0.539062 -0.5859375,1.359375 -0.5859375,2.496093 0,2.074219 0.6796875,3.175782 1.96875,3.175782 1.2773437,0 1.9804687,-1.101563 1.9804687,-3.117188 0,-1.195312 -0.1875,-1.992187 -0.5859375,-2.554687 -0.3164062,-0.421875 -0.8203125,-0.667969 -1.3945312,-0.667969 z m 0,0.65625 c 0.8085937,0 1.2070312,0.832031 1.2070312,2.496094 0,1.746093 -0.3867187,2.566406 -1.21875,2.566406 -0.7851562,0 -1.1953125,-0.855469 -1.1953125,-2.542969 0,-1.6875 0.4101563,-2.519531 1.2070313,-2.519531 z m 4.0107422,4.605469 H 5.4646484 v 0.878906 h 0.8789063 z m 4.0605473,-2.355469 c 0.632812,-0.386719 0.832031,-0.691406 0.832031,-1.265625 0,-0.972656 -0.738281,-1.640625 -1.8164064,-1.640625 -1.0546875,0 -1.8046875,0.667969 -1.8046875,1.628906 0,0.585938 0.1992187,0.878906 0.8203125,1.277344 -0.6914063,0.339844 -1.03125,0.84375 -1.03125,1.523437 0,1.125 0.8203125,1.910157 2.015625,1.910157 1.1953124,0 2.0273434,-0.785157 2.0273434,-1.910157 0,-0.679687 -0.339843,-1.183593 -1.042968,-1.523437 z m -0.9843754,-2.25 c 0.6445314,0 1.0546874,0.386719 1.0546874,0.996094 0,0.574218 -0.421875,0.960937 -1.0546874,0.960937 -0.6328125,0 -1.0429688,-0.386719 -1.0429688,-0.972656 0,-0.597656 0.4101563,-0.984375 1.0429688,-0.984375 z m 0,2.589844 c 0.7500004,0 1.2656254,0.492187 1.2656254,1.207031 0,0.738281 -0.503907,1.21875 -1.2773442,1.21875 -0.7265625,0 -1.2421875,-0.503906 -1.2421875,-1.21875 0,-0.726563 0.5039063,-1.207031 1.2539063,-1.207031 z M 2.3328125,-92.139648 c -0.5507813,0 -1.0664063,0.257812 -1.3828125,0.667968 -0.38671875,0.539063 -0.5859375,1.359375 -0.5859375,2.496094 0,2.074219 0.6796875,3.175781 1.96875,3.175781 1.2773437,0 1.9804687,-1.101562 1.9804687,-3.117187 0,-1.195313 -0.1875,-1.992188 -0.5859375,-2.554688 -0.3164062,-0.421875 -0.8203125,-0.667968 -1.3945312,-0.667968 z m 0,0.65625 c 0.8085937,0 1.2070312,0.832031 1.2070312,2.496093 0,1.746094 -0.3867187,2.566407 -1.21875,2.566407 -0.7851562,0 -1.1953125,-0.855469 -1.1953125,-2.542969 0,-1.6875 0.4101563,-2.519531 1.2070313,-2.519531 z m 4.0107422,4.605468 H 5.4646484 v 0.878907 h 0.8789063 z m 1.1894531,-0.527343 c 0.1523438,1.007812 0.796875,1.605468 1.7109375,1.605468 0.6679688,0 1.2656247,-0.328125 1.6289067,-0.878906 0.375,-0.597656 0.539062,-1.347656 0.539062,-2.460937 0,-1.042969 -0.152344,-1.699219 -0.503906,-2.238282 -0.339844,-0.503906 -0.867188,-0.761718 -1.5234377,-0.761718 -1.1484375,0 -1.96875,0.855468 -1.96875,2.050781 0,1.125 0.7617188,1.921875 1.8515625,1.921875 0.5625,0 0.9843752,-0.199219 1.3710942,-0.667969 -0.01172,1.523438 -0.480469,2.367188 -1.3359379,2.367188 -0.5273438,0 -0.9023438,-0.339844 -1.0195313,-0.9375 z m 1.8398438,-4.078125 c 0.6914064,0 1.2187504,0.585937 1.2187504,1.371093 0,0.761719 -0.503907,1.289063 -1.2421879,1.289063 -0.7265625,0 -1.171875,-0.515625 -1.171875,-1.335938 0,-0.773437 0.5039062,-1.324218 1.1953125,-1.324218 z m 0,0"
       style="fill:#262626;fill-opacity:1;fill-rule:nonzero;stroke:none"
       aria-label="0.6&#10;0.7&#10;0.8&#10;0.9"
       transform="matrix(1.3333333,0,0,1.3333333,17.733333,131.33333)" />
    <path
       id="path38"
       d="M 4.4287109,-2.0498047 5.1318359,9.765625e-4 H 6.1044922 L 3.7138672,-6.8193359 h -1.125 L 0.16308594,9.765625e-4 H 1.0888672 L 1.8037109,-2.0498047 Z M 4.1943359,-2.7763672 H 2.0146484 l 1.125,-3.1054687 z m 8.2294921,-1.921875 c -0.269531,-1.5 -1.125,-2.2265625 -2.6249999,-2.2265625 -0.9140625,0 -1.6523437,0.28125 -2.15625,0.84375 -0.6210937,0.6796875 -0.9609375,1.6523438 -0.9609375,2.7539063 0,1.125 0.3515625,2.0859375 0.984375,2.75390621 0.5390625,0.5390625 1.2070313,0.78515625 2.0976563,0.78515625 1.6640621,0 2.6015621,-0.890625 2.8007811,-2.69531246 h -0.890625 c -0.08203,0.46875 -0.175781,0.7851562 -0.316406,1.0546875 -0.28125,0.56249996 -0.855469,0.87890621 -1.5820314,0.87890621 -1.359375,0 -2.2148437,-1.08984371 -2.2148437,-2.78906251 0,-1.7460937 0.8085937,-2.8242187 2.1328125,-2.8242187 0.5507816,0 1.0664066,0.1640625 1.3476566,0.4335937 0.257812,0.234375 0.398437,0.515625 0.492187,1.03125 z m 2.296875,1.7578125 h 2.25 c 0.773438,0 1.125,0.375 1.125,1.21875 l -0.01172,0.609375 c 0,0.42187501 0.07031,0.83203126 0.199219,1.1132812625 H 19.33789 V -0.20996094 c -0.328125,-0.234375 -0.398438,-0.46875 -0.410157,-1.38281246 -0.01172,-1.1132813 -0.1875,-1.453125 -0.925781,-1.7695313 0.761719,-0.3867187 1.078125,-0.84375 1.078125,-1.6289062 0,-1.1835938 -0.738281,-1.828125 -2.085937,-1.828125 H 13.853516 V 9.765625e-4 h 0.867187 z m 0,-0.7617187 v -2.34375 h 2.109375 c 0.480469,0 0.761719,0.070312 0.984375,0.2578125 0.234375,0.1992187 0.351563,0.5039062 0.351563,0.9023437 0,0.8203125 -0.410157,1.1835938 -1.335938,1.1835938 z m 8.261719,-1.1953125 V 9.765625e-4 h 0.785156 V -2.5419922 c 0.01172,-1.1835937 0.492188,-1.6992187 1.570313,-1.6757812 v -0.796875 c -0.128907,-0.011719 -0.199219,-0.023437 -0.292969,-0.023437 -0.503906,0 -0.890625,0.2929687 -1.335938,1.03125 v -0.890625 z m 7.473633,4.44140621 c -0.08203,0.0117188 -0.117188,0.0117188 -0.164063,0.0117188 -0.28125,0 -0.421875,-0.12890625 -0.421875,-0.375 V -3.7021484 c 0,-0.8671875 -0.644531,-1.3359375 -1.851562,-1.3359375 -0.714844,0 -1.289063,0.1992187 -1.617188,0.5742187 -0.234375,0.2460938 -0.328125,0.5273438 -0.339844,1.0195313 h 0.785157 c 0.05859,-0.609375 0.421875,-0.8789063 1.148437,-0.8789063 0.714844,0 1.089844,0.2695313 1.089844,0.7382813 v 0.1992187 c 0,0.3398438 -0.175781,0.4570313 -0.808594,0.5390625 -1.101562,0.140625 -1.277344,0.1875 -1.570312,0.3046875 -0.574219,0.2460938 -0.855469,0.6679688 -0.855469,1.3125 0,0.87890626 0.609375,1.44140626 1.605469,1.44140626 0.609375,0 1.113281,-0.2109374975 1.664062,-0.71484375 0.05859,0.5039062525 0.292969,0.71484375 0.796875,0.71484375 0.175781,0 0.28125,-0.0117188 0.539063,-0.0820313 z M 29.084961,-1.5458984 c 0,0.2695312 -0.07031,0.421875 -0.304688,0.64453121 -0.316406,0.28125 -0.703125,0.43359375 -1.160156,0.43359375 -0.609375,0 -0.960937,-0.29296875 -0.960937,-0.78515626 0,-0.515625 0.339843,-0.7734375 1.171875,-0.9023437 0.84375,-0.1054688 0.996093,-0.140625 1.253906,-0.2695313 z m 3.943359,-3.3515625 h -0.808593 v -1.3476563 h -0.773438 v 1.3476563 H 30.77832 v 0.6328125 h 0.667969 v 3.70312496 c 0,0.50390625 0.339844,0.7734375 0.9375,0.7734375 0.210938,0 0.375,-0.0117188 0.644531,-0.0585938 v -0.65625 c -0.117187,0.0234375 -0.222656,0.0351563 -0.375,0.0351563 -0.339843,0 -0.433593,-0.09375 -0.433593,-0.43359375 V -4.2646484 h 0.808593 z m 1.625977,0 H 33.869141 V 9.765625e-4 h 0.785156 z m 0,-1.921875 h -0.785156 v 0.984375 h 0.785156 z m 3.213867,1.78125 c -1.382812,0 -2.203125,0.984375 -2.203125,2.625 0,1.65234371 0.820313,2.62499996 2.214844,2.62499996 1.382812,0 2.214844,-0.97265625 2.214844,-2.58984376 0,-1.6992187 -0.808594,-2.6601562 -2.226563,-2.6601562 z m 0.01172,0.7148437 c 0.878906,0 1.40625,0.7265625 1.40625,1.9453125 0,1.1484375 -0.550781,1.87500001 -1.40625,1.87500001 -0.867188,0 -1.40625,-0.72656251 -1.40625,-1.91015621 0,-1.1835938 0.539062,-1.9101563 1.40625,-1.9101563 z m 0,0"
       style="fill:#262626;fill-opacity:1;fill-rule:nonzero;stroke:none"
       aria-label="ACR ratio"
       transform="matrix(0,-1.3333333,1.3333333,0,12.666667,96.666667)" />
    <path
       id="path39"
       d="m 274.855,1024.41 0.145,-0.27 30.5,-70.691 30.5,-48.097 30.5,-65.207 30.5,-23.844 30.5,-53.621 30.5,-82.621 30.5,-57.504 30.5,-45.325 30.5,-39.277 30.5,-31.414 30.5,20.606 30.5,-48.668 30.5,-33.34 30.5,-37.875 30.5,12.902 30.5,-21.562 30.5,15.492 30.5,-23.453 30.5,-21.102 30.5,15.242 30.5,-17.109 30.5,10 30.5,30.156 30.5,7.047 30.5,-25.199 30.5,48.5 30.5,20.515 30.5,19.258 30.5,18.961 30.5,0.895 30.5,26.746 30.5,32.629 30.5,25.558 30.5,18.492 30.5,23.485 30.5,7.816 30.5,7.106 30.5,41.172 30.5,52.347 30.5,-14.351"
       style="fill:none;stroke:#333333;stroke-width:12;stroke-linecap:butt;stroke-linejoin:round;stroke-miterlimit:10;stroke-dasharray:none;stroke-opacity:1"
       transform="matrix(0.13333333,0,0,-0.13333333,0,160)" />
    <path
       id="path40"
       d="m 275,1030.63 c 3.59,0 6.5,-2.91 6.5,-6.5 v 0 c 0,-3.59 -2.91,-6.5 -6.5,-6.5 -3.59,0 -6.5,2.91 -6.5,6.5 0,3.59 2.91,6.5 6.5,6.5 z m 0,12 c -10.215,0 -18.5,-8.28 -18.5,-18.5 0,-10.21 8.285,-18.5 18.5,-18.5 10.215,0 18.5,8.29 18.5,18.5 v 0 c 0,10.22 -8.285,18.5 -18.5,18.5"
       style="fill:#333333;fill-opacity:1;fill-rule:nonzero;stroke:none"
       transform="matrix(0.13333333,0,0,-0.13333333,0,160)" />
    <path
       id="path41"
       d="m 305.5,959.949 c 3.59,0 6.5,-2.91 6.5,-6.5 v 0 c 0,-3.59 -2.91,-6.5 -6.5,-6.5 -3.59,0 -6.5,2.91 -6.5,6.5 0,3.59 2.91,6.5 6.5,6.5 z m 0,12 c -10.215,0 -18.5,-8.285 -18.5,-18.5 0,-10.215 8.285,-18.5 18.5,-18.5 10.215,0 18.5,8.285 18.5,18.5 v 0 c 0,10.215 -8.285,18.5 -18.5,18.5"
       style="fill:#333333;fill-opacity:1;fill-rule:nonzero;stroke:none"
       transform="matrix(0.13333333,0,0,-0.13333333,0,160)" />
    <path
       id="path42"
       d="m 336,911.852 c 3.59,0 6.5,-2.911 6.5,-6.5 v 0 c 0,-3.59 -2.91,-6.5 -6.5,-6.5 -3.59,0 -6.5,2.91 -6.5,6.5 0,3.589 2.91,6.5 6.5,6.5 z m 0,12 c -10.215,0 -18.5,-8.286 -18.5,-18.5 0,-10.215 8.285,-18.5 18.5,-18.5 10.215,0 18.5,8.285 18.5,18.5 v 0 c 0,10.214 -8.285,18.5 -18.5,18.5"
       style="fill:#333333;fill-opacity:1;fill-rule:nonzero;stroke:none"
       transform="matrix(0.13333333,0,0,-0.13333333,0,160)" />
    <path
       id="path43"
       d="m 366.5,846.645 c 3.59,0 6.5,-2.911 6.5,-6.5 v 0 c 0,-3.59 -2.91,-6.5 -6.5,-6.5 -3.59,0 -6.5,2.91 -6.5,6.5 0,3.589 2.91,6.5 6.5,6.5 z m 0,12 c -10.215,0 -18.5,-8.286 -18.5,-18.5 0,-10.215 8.285,-18.5 18.5,-18.5 10.215,0 18.5,8.285 18.5,18.5 v 0 c 0,10.214 -8.285,18.5 -18.5,18.5"
       style="fill:#333333;fill-opacity:1;fill-rule:nonzero;stroke:none"
       transform="matrix(0.13333333,0,0,-0.13333333,0,160)" />
    <path
       id="path44"
       d="m 397,822.801 c 3.59,0 6.5,-2.91 6.5,-6.5 v 0 c 0,-3.59 -2.91,-6.5 -6.5,-6.5 -3.59,0 -6.5,2.91 -6.5,6.5 0,3.59 2.91,6.5 6.5,6.5 z m 0,12 c -10.215,0 -18.5,-8.285 -18.5,-18.5 0,-10.215 8.285,-18.5 18.5,-18.5 10.215,0 18.5,8.285 18.5,18.5 v 0 c 0,10.215 -8.285,18.5 -18.5,18.5"
       style="fill:#333333;fill-opacity:1;fill-rule:nonzero;stroke:none"
       transform="matrix(0.13333333,0,0,-0.13333333,0,160)" />
    <path
       id="path45"
       d="m 427.5,769.18 c 3.59,0 6.5,-2.91 6.5,-6.5 v 0 c 0,-3.59 -2.91,-6.5 -6.5,-6.5 -3.59,0 -6.5,2.91 -6.5,6.5 0,3.59 2.91,6.5 6.5,6.5 z m 0,12 c -10.215,0 -18.5,-8.285 -18.5,-18.5 0,-10.215 8.285,-18.5 18.5,-18.5 10.215,0 18.5,8.285 18.5,18.5 v 0 c 0,10.215 -8.285,18.5 -18.5,18.5"
       style="fill:#333333;fill-opacity:1;fill-rule:nonzero;stroke:none"
       transform="matrix(0.13333333,0,0,-0.13333333,0,160)" />
    <path
       id="path46"
       d="m 458,686.563 c 3.59,0 6.5,-2.911 6.5,-6.5 v 0 c 0,-3.59 -2.91,-6.5 -6.5,-6.5 -3.59,0 -6.5,2.91 -6.5,6.5 0,3.589 2.91,6.5 6.5,6.5 z m 0,12 c -10.215,0 -18.5,-8.286 -18.5,-18.5 0,-10.215 8.285,-18.5 18.5,-18.5 10.215,0 18.5,8.285 18.5,18.5 v 0 c 0,10.214 -8.285,18.5 -18.5,18.5"
       style="fill:#333333;fill-opacity:1;fill-rule:nonzero;stroke:none"
       transform="matrix(0.13333333,0,0,-0.13333333,0,160)" />
    <path
       id="path47"
       d="m 488.5,629.055 c 3.59,0 6.5,-2.91 6.5,-6.5 v 0 c 0,-3.59 -2.91,-6.5 -6.5,-6.5 -3.59,0 -6.5,2.91 -6.5,6.5 0,3.59 2.91,6.5 6.5,6.5 z m 0,12 c -10.215,0 -18.5,-8.285 -18.5,-18.5 0,-10.215 8.285,-18.5 18.5,-18.5 10.215,0 18.5,8.285 18.5,18.5 v 0 c 0,10.215 -8.285,18.5 -18.5,18.5"
       style="fill:#333333;fill-opacity:1;fill-rule:nonzero;stroke:none"
       transform="matrix(0.13333333,0,0,-0.13333333,0,160)" />
    <path
       id="path48"
       d="m 519,583.73 c 3.59,0 6.5,-2.91 6.5,-6.5 v 0 c 0,-3.589 -2.91,-6.5 -6.5,-6.5 -3.59,0 -6.5,2.911 -6.5,6.5 0,3.59 2.91,6.5 6.5,6.5 z m 0,12 c -10.215,0 -18.5,-8.285 -18.5,-18.5 0,-10.214 8.285,-18.5 18.5,-18.5 10.215,0 18.5,8.286 18.5,18.5 v 0 c 0,10.215 -8.285,18.5 -18.5,18.5"
       style="fill:#333333;fill-opacity:1;fill-rule:nonzero;stroke:none"
       transform="matrix(0.13333333,0,0,-0.13333333,0,160)" />
    <path
       id="path49"
       d="m 549.5,544.457 c 3.59,0 6.5,-2.91 6.5,-6.5 v 0 c 0,-3.59 -2.91,-6.5 -6.5,-6.5 -3.59,0 -6.5,2.91 -6.5,6.5 0,3.59 2.91,6.5 6.5,6.5 z m 0,12 c -10.215,0 -18.5,-8.285 -18.5,-18.5 0,-10.215 8.285,-18.5 18.5,-18.5 10.215,0 18.5,8.285 18.5,18.5 v 0 c 0,10.215 -8.285,18.5 -18.5,18.5"
       style="fill:#333333;fill-opacity:1;fill-rule:nonzero;stroke:none"
       transform="matrix(0.13333333,0,0,-0.13333333,0,160)" />
    <path
       id="path50"
       d="m 580,513.043 c 3.59,0 6.5,-2.91 6.5,-6.5 v 0 c 0,-3.59 -2.91,-6.5 -6.5,-6.5 -3.59,0 -6.5,2.91 -6.5,6.5 0,3.59 2.91,6.5 6.5,6.5 z m 0,12 c -10.215,0 -18.5,-8.285 -18.5,-18.5 0,-10.215 8.285,-18.5 18.5,-18.5 10.215,0 18.5,8.285 18.5,18.5 v 0 c 0,10.215 -8.285,18.5 -18.5,18.5"
       style="fill:#333333;fill-opacity:1;fill-rule:nonzero;stroke:none"
       transform="matrix(0.13333333,0,0,-0.13333333,0,160)" />
    <path
       id="path51"
       d="m 610.5,533.645 c 3.59,0 6.5,-2.911 6.5,-6.5 v 0 c 0,-3.59 -2.91,-6.5 -6.5,-6.5 -3.59,0 -6.5,2.91 -6.5,6.5 0,3.589 2.91,6.5 6.5,6.5 z m 0,12 c -10.215,0 -18.5,-8.286 -18.5,-18.5 0,-10.215 8.285,-18.5 18.5,-18.5 10.215,0 18.5,8.285 18.5,18.5 v 0 c 0,10.214 -8.285,18.5 -18.5,18.5"
       style="fill:#333333;fill-opacity:1;fill-rule:nonzero;stroke:none"
       transform="matrix(0.13333333,0,0,-0.13333333,0,160)" />
    <path
       id="path52"
       d="m 641,484.977 c 3.59,0 6.5,-2.911 6.5,-6.5 v 0 c 0,-3.59 -2.91,-6.5 -6.5,-6.5 -3.59,0 -6.5,2.91 -6.5,6.5 0,3.589 2.91,6.5 6.5,6.5 z m 0,12 c -10.215,0 -18.5,-8.286 -18.5,-18.5 0,-10.215 8.285,-18.5 18.5,-18.5 10.215,0 18.5,8.285 18.5,18.5 v 0 c 0,10.214 -8.285,18.5 -18.5,18.5"
       style="fill:#333333;fill-opacity:1;fill-rule:nonzero;stroke:none"
       transform="matrix(0.13333333,0,0,-0.13333333,0,160)" />
    <path
       id="path53"
       d="m 671.5,451.633 c 3.59,0 6.5,-2.91 6.5,-6.5 v 0 c 0,-3.59 -2.91,-6.5 -6.5,-6.5 -3.59,0 -6.5,2.91 -6.5,6.5 0,3.59 2.91,6.5 6.5,6.5 z m 0,12 c -10.215,0 -18.5,-8.285 -18.5,-18.5 0,-10.215 8.285,-18.5 18.5,-18.5 10.215,0 18.5,8.285 18.5,18.5 v 0 c 0,10.215 -8.285,18.5 -18.5,18.5"
       style="fill:#333333;fill-opacity:1;fill-rule:nonzero;stroke:none"
       transform="matrix(0.13333333,0,0,-0.13333333,0,160)" />
    <path
       id="path54"
       d="m 702,413.758 c 3.59,0 6.5,-2.91 6.5,-6.5 v 0 c 0,-3.59 -2.91,-6.5 -6.5,-6.5 -3.59,0 -6.5,2.91 -6.5,6.5 0,3.59 2.91,6.5 6.5,6.5 z m 0,12 c -10.215,0 -18.5,-8.285 -18.5,-18.5 0,-10.215 8.285,-18.5 18.5,-18.5 10.215,0 18.5,8.285 18.5,18.5 v 0 c 0,10.215 -8.285,18.5 -18.5,18.5"
       style="fill:#333333;fill-opacity:1;fill-rule:nonzero;stroke:none"
       transform="matrix(0.13333333,0,0,-0.13333333,0,160)" />
    <path
       id="path55"
       d="m 732.5,426.668 c 3.59,0 6.5,-2.91 6.5,-6.5 v 0 c 0,-3.59 -2.91,-6.5 -6.5,-6.5 -3.59,0 -6.5,2.91 -6.5,6.5 0,3.59 2.91,6.5 6.5,6.5 z m 0,12 c -10.215,0 -18.5,-8.285 -18.5,-18.5 0,-10.215 8.285,-18.5 18.5,-18.5 10.215,0 18.5,8.285 18.5,18.5 v 0 c 0,10.215 -8.285,18.5 -18.5,18.5"
       style="fill:#333333;fill-opacity:1;fill-rule:nonzero;stroke:none"
       transform="matrix(0.13333333,0,0,-0.13333333,0,160)" />
    <path
       id="path56"
       d="m 763,405.102 c 3.59,0 6.5,-2.911 6.5,-6.5 v 0 c 0,-3.59 -2.91,-6.5 -6.5,-6.5 -3.59,0 -6.5,2.91 -6.5,6.5 0,3.589 2.91,6.5 6.5,6.5 z m 0,12 c -10.215,0 -18.5,-8.286 -18.5,-18.5 0,-10.215 8.285,-18.5 18.5,-18.5 10.215,0 18.5,8.285 18.5,18.5 v 0 c 0,10.214 -8.285,18.5 -18.5,18.5"
       style="fill:#333333;fill-opacity:1;fill-rule:nonzero;stroke:none"
       transform="matrix(0.13333333,0,0,-0.13333333,0,160)" />
    <path
       id="path57"
       d="m 793.5,420.594 c 3.59,0 6.5,-2.91 6.5,-6.5 v 0 c 0,-3.59 -2.91,-6.5 -6.5,-6.5 -3.59,0 -6.5,2.91 -6.5,6.5 0,3.59 2.91,6.5 6.5,6.5 z m 0,12 c -10.215,0 -18.5,-8.285 -18.5,-18.5 0,-10.215 8.285,-18.5 18.5,-18.5 10.215,0 18.5,8.285 18.5,18.5 v 0 c 0,10.215 -8.285,18.5 -18.5,18.5"
       style="fill:#333333;fill-opacity:1;fill-rule:nonzero;stroke:none"
       transform="matrix(0.13333333,0,0,-0.13333333,0,160)" />
    <path
       id="path58"
       d="m 824,397.141 c 3.59,0 6.5,-2.911 6.5,-6.5 v 0 c 0,-3.59 -2.91,-6.5 -6.5,-6.5 -3.59,0 -6.5,2.91 -6.5,6.5 0,3.589 2.91,6.5 6.5,6.5 z m 0,12 c -10.215,0 -18.5,-8.286 -18.5,-18.5 0,-10.215 8.285,-18.5 18.5,-18.5 10.215,0 18.5,8.285 18.5,18.5 v 0 c 0,10.214 -8.285,18.5 -18.5,18.5"
       style="fill:#333333;fill-opacity:1;fill-rule:nonzero;stroke:none"
       transform="matrix(0.13333333,0,0,-0.13333333,0,160)" />
    <path
       id="path59"
       d="m 854.5,376.039 c 3.59,0 6.5,-2.91 6.5,-6.5 v 0 c 0,-3.59 -2.91,-6.5 -6.5,-6.5 -3.59,0 -6.5,2.91 -6.5,6.5 0,3.59 2.91,6.5 6.5,6.5 z m 0,12 c -10.215,0 -18.5,-8.285 -18.5,-18.5 0,-10.215 8.285,-18.5 18.5,-18.5 10.215,0 18.5,8.285 18.5,18.5 v 0 c 0,10.215 -8.285,18.5 -18.5,18.5"
       style="fill:#333333;fill-opacity:1;fill-rule:nonzero;stroke:none"
       transform="matrix(0.13333333,0,0,-0.13333333,0,160)" />
    <path
       id="path60"
       d="m 885,391.281 c 3.59,0 6.5,-2.91 6.5,-6.5 v 0 c 0,-3.59 -2.91,-6.5 -6.5,-6.5 -3.59,0 -6.5,2.91 -6.5,6.5 0,3.59 2.91,6.5 6.5,6.5 z m 0,12 c -10.215,0 -18.5,-8.285 -18.5,-18.5 0,-10.215 8.285,-18.5 18.5,-18.5 10.215,0 18.5,8.285 18.5,18.5 v 0 c 0,10.215 -8.285,18.5 -18.5,18.5"
       style="fill:#333333;fill-opacity:1;fill-rule:nonzero;stroke:none"
       transform="matrix(0.13333333,0,0,-0.13333333,0,160)" />
    <path
       id="path61"
       d="m 915.5,374.172 c 3.59,0 6.5,-2.91 6.5,-6.5 v 0 c 0,-3.59 -2.91,-6.5 -6.5,-6.5 -3.59,0 -6.5,2.91 -6.5,6.5 0,3.59 2.91,6.5 6.5,6.5 z m 0,12 c -10.215,0 -18.5,-8.285 -18.5,-18.5 0,-10.215 8.285,-18.5 18.5,-18.5 10.215,0 18.5,8.285 18.5,18.5 v 0 c 0,10.215 -8.285,18.5 -18.5,18.5"
       style="fill:#333333;fill-opacity:1;fill-rule:nonzero;stroke:none"
       transform="matrix(0.13333333,0,0,-0.13333333,0,160)" />
    <path
       id="path62"
       d="m 946,384.172 c 3.59,0 6.5,-2.91 6.5,-6.5 v 0 c 0,-3.59 -2.91,-6.5 -6.5,-6.5 -3.59,0 -6.5,2.91 -6.5,6.5 0,3.59 2.91,6.5 6.5,6.5 z m 0,12 c -10.215,0 -18.5,-8.285 -18.5,-18.5 0,-10.215 8.285,-18.5 18.5,-18.5 10.215,0 18.5,8.285 18.5,18.5 v 0 c 0,10.215 -8.285,18.5 -18.5,18.5"
       style="fill:#333333;fill-opacity:1;fill-rule:nonzero;stroke:none"
       transform="matrix(0.13333333,0,0,-0.13333333,0,160)" />
    <path
       id="path63"
       d="m 976.5,414.328 c 3.59,0 6.5,-2.91 6.5,-6.5 v 0 c 0,-3.59 -2.91,-6.5 -6.5,-6.5 -3.59,0 -6.5,2.91 -6.5,6.5 0,3.59 2.91,6.5 6.5,6.5 z m 0,12 c -10.215,0 -18.5,-8.285 -18.5,-18.5 0,-10.215 8.285,-18.5 18.5,-18.5 10.215,0 18.5,8.285 18.5,18.5 v 0 c 0,10.215 -8.285,18.5 -18.5,18.5"
       style="fill:#333333;fill-opacity:1;fill-rule:nonzero;stroke:none"
       transform="matrix(0.13333333,0,0,-0.13333333,0,160)" />
    <path
       id="path64"
       d="m 1007,421.375 c 3.59,0 6.5,-2.91 6.5,-6.5 v 0 c 0,-3.59 -2.91,-6.5 -6.5,-6.5 -3.59,0 -6.5,2.91 -6.5,6.5 0,3.59 2.91,6.5 6.5,6.5 z m 0,12 c -10.215,0 -18.5,-8.285 -18.5,-18.5 0,-10.215 8.285,-18.5 18.5,-18.5 10.21,0 18.5,8.285 18.5,18.5 v 0 c 0,10.215 -8.29,18.5 -18.5,18.5"
       style="fill:#333333;fill-opacity:1;fill-rule:nonzero;stroke:none"
       transform="matrix(0.13333333,0,0,-0.13333333,0,160)" />
    <path
       id="path65"
       d="m 1037.5,396.172 c 3.59,0 6.5,-2.91 6.5,-6.5 v 0 c 0,-3.59 -2.91,-6.5 -6.5,-6.5 -3.59,0 -6.5,2.91 -6.5,6.5 0,3.59 2.91,6.5 6.5,6.5 z m 0,12 c -10.21,0 -18.5,-8.285 -18.5,-18.5 0,-10.215 8.29,-18.5 18.5,-18.5 10.21,0 18.5,8.285 18.5,18.5 v 0 c 0,10.215 -8.29,18.5 -18.5,18.5"
       style="fill:#333333;fill-opacity:1;fill-rule:nonzero;stroke:none"
       transform="matrix(0.13333333,0,0,-0.13333333,0,160)" />
    <path
       id="path66"
       d="m 1068,444.676 c 3.59,0 6.5,-2.91 6.5,-6.5 v 0 c 0,-3.594 -2.91,-6.5 -6.5,-6.5 -3.59,0 -6.5,2.906 -6.5,6.5 0,3.59 2.91,6.5 6.5,6.5 z m 0,12 c -10.21,0 -18.5,-8.285 -18.5,-18.5 0,-10.219 8.29,-18.5 18.5,-18.5 10.21,0 18.5,8.281 18.5,18.5 v 0 c 0,10.215 -8.29,18.5 -18.5,18.5"
       style="fill:#333333;fill-opacity:1;fill-rule:nonzero;stroke:none"
       transform="matrix(0.13333333,0,0,-0.13333333,0,160)" />
    <path
       id="path67"
       d="m 1098.5,465.191 c 3.59,0 6.5,-2.91 6.5,-6.5 v 0 c 0,-3.589 -2.91,-6.5 -6.5,-6.5 -3.59,0 -6.5,2.911 -6.5,6.5 0,3.59 2.91,6.5 6.5,6.5 z m 0,12 c -10.21,0 -18.5,-8.285 -18.5,-18.5 0,-10.214 8.29,-18.5 18.5,-18.5 10.21,0 18.5,8.286 18.5,18.5 v 0 c 0,10.215 -8.29,18.5 -18.5,18.5"
       style="fill:#333333;fill-opacity:1;fill-rule:nonzero;stroke:none"
       transform="matrix(0.13333333,0,0,-0.13333333,0,160)" />
    <path
       id="path68"
       d="m 1129,484.449 c 3.59,0 6.5,-2.91 6.5,-6.5 v 0 c 0,-3.59 -2.91,-6.5 -6.5,-6.5 -3.59,0 -6.5,2.91 -6.5,6.5 0,3.59 2.91,6.5 6.5,6.5 z m 0,12 c -10.21,0 -18.5,-8.285 -18.5,-18.5 0,-10.215 8.29,-18.5 18.5,-18.5 10.21,0 18.5,8.285 18.5,18.5 v 0 c 0,10.215 -8.29,18.5 -18.5,18.5"
       style="fill:#333333;fill-opacity:1;fill-rule:nonzero;stroke:none"
       transform="matrix(0.13333333,0,0,-0.13333333,0,160)" />
    <path
       id="path69"
       d="m 1159.5,503.41 c 3.59,0 6.5,-2.91 6.5,-6.5 v 0 c 0,-3.59 -2.91,-6.5 -6.5,-6.5 -3.59,0 -6.5,2.91 -6.5,6.5 0,3.59 2.91,6.5 6.5,6.5 z m 0,12 c -10.21,0 -18.5,-8.285 -18.5,-18.5 0,-10.215 8.29,-18.5 18.5,-18.5 10.21,0 18.5,8.285 18.5,18.5 v 0 c 0,10.215 -8.29,18.5 -18.5,18.5"
       style="fill:#333333;fill-opacity:1;fill-rule:nonzero;stroke:none"
       transform="matrix(0.13333333,0,0,-0.13333333,0,160)" />
    <path
       id="path70"
       d="m 1190,504.305 c 3.59,0 6.5,-2.91 6.5,-6.5 v 0 c 0,-3.59 -2.91,-6.5 -6.5,-6.5 -3.59,0 -6.5,2.91 -6.5,6.5 0,3.59 2.91,6.5 6.5,6.5 z m 0,12 c -10.21,0 -18.5,-8.285 -18.5,-18.5 0,-10.215 8.29,-18.5 18.5,-18.5 10.21,0 18.5,8.285 18.5,18.5 v 0 c 0,10.215 -8.29,18.5 -18.5,18.5"
       style="fill:#333333;fill-opacity:1;fill-rule:nonzero;stroke:none"
       transform="matrix(0.13333333,0,0,-0.13333333,0,160)" />
    <path
       id="path71"
       d="m 1220.5,531.051 c 3.59,0 6.5,-2.91 6.5,-6.5 v 0 c 0,-3.59 -2.91,-6.5 -6.5,-6.5 -3.59,0 -6.5,2.91 -6.5,6.5 0,3.59 2.91,6.5 6.5,6.5 z m 0,12 c -10.21,0 -18.5,-8.285 -18.5,-18.5 0,-10.215 8.29,-18.5 18.5,-18.5 10.21,0 18.5,8.285 18.5,18.5 v 0 c 0,10.215 -8.29,18.5 -18.5,18.5"
       style="fill:#333333;fill-opacity:1;fill-rule:nonzero;stroke:none"
       transform="matrix(0.13333333,0,0,-0.13333333,0,160)" />
    <path
       id="path72"
       d="m 1251,563.68 c 3.59,0 6.5,-2.91 6.5,-6.5 v 0 c 0,-3.59 -2.91,-6.5 -6.5,-6.5 -3.59,0 -6.5,2.91 -6.5,6.5 0,3.59 2.91,6.5 6.5,6.5 z m 0,12 c -10.21,0 -18.5,-8.285 -18.5,-18.5 0,-10.215 8.29,-18.5 18.5,-18.5 10.21,0 18.5,8.285 18.5,18.5 v 0 c 0,10.215 -8.29,18.5 -18.5,18.5"
       style="fill:#333333;fill-opacity:1;fill-rule:nonzero;stroke:none"
       transform="matrix(0.13333333,0,0,-0.13333333,0,160)" />
    <path
       id="path73"
       d="m 1281.5,589.242 c 3.59,0 6.5,-2.91 6.5,-6.5 v 0 c 0,-3.59 -2.91,-6.5 -6.5,-6.5 -3.59,0 -6.5,2.91 -6.5,6.5 0,3.59 2.91,6.5 6.5,6.5 z m 0,12 c -10.21,0 -18.5,-8.285 -18.5,-18.5 0,-10.215 8.29,-18.5 18.5,-18.5 10.21,0 18.5,8.285 18.5,18.5 v 0 c 0,10.215 -8.29,18.5 -18.5,18.5"
       style="fill:#333333;fill-opacity:1;fill-rule:nonzero;stroke:none"
       transform="matrix(0.13333333,0,0,-0.13333333,0,160)" />
    <path
       id="path74"
       d="m 1312,607.727 c 3.59,0 6.5,-2.911 6.5,-6.5 v 0 c 0,-3.59 -2.91,-6.5 -6.5,-6.5 -3.59,0 -6.5,2.91 -6.5,6.5 0,3.589 2.91,6.5 6.5,6.5 z m 0,12 c -10.21,0 -18.5,-8.286 -18.5,-18.5 0,-10.215 8.29,-18.5 18.5,-18.5 10.21,0 18.5,8.285 18.5,18.5 v 0 c 0,10.214 -8.29,18.5 -18.5,18.5"
       style="fill:#333333;fill-opacity:1;fill-rule:nonzero;stroke:none"
       transform="matrix(0.13333333,0,0,-0.13333333,0,160)" />
    <path
       id="path75"
       d="m 1342.5,631.215 c 3.59,0 6.5,-2.91 6.5,-6.5 v 0 c 0,-3.59 -2.91,-6.5 -6.5,-6.5 -3.59,0 -6.5,2.91 -6.5,6.5 0,3.59 2.91,6.5 6.5,6.5 z m 0,12 c -10.21,0 -18.5,-8.285 -18.5,-18.5 0,-10.215 8.29,-18.5 18.5,-18.5 10.21,0 18.5,8.285 18.5,18.5 v 0 c 0,10.215 -8.29,18.5 -18.5,18.5"
       style="fill:#333333;fill-opacity:1;fill-rule:nonzero;stroke:none"
       transform="matrix(0.13333333,0,0,-0.13333333,0,160)" />
    <path
       id="path76"
       d="m 1373,639.031 c 3.59,0 6.5,-2.91 6.5,-6.5 v 0 c 0,-3.59 -2.91,-6.5 -6.5,-6.5 -3.59,0 -6.5,2.91 -6.5,6.5 0,3.59 2.91,6.5 6.5,6.5 z m 0,12 c -10.21,0 -18.5,-8.285 -18.5,-18.5 0,-10.215 8.29,-18.5 18.5,-18.5 10.21,0 18.5,8.285 18.5,18.5 v 0 c 0,10.215 -8.29,18.5 -18.5,18.5"
       style="fill:#333333;fill-opacity:1;fill-rule:nonzero;stroke:none"
       transform="matrix(0.13333333,0,0,-0.13333333,0,160)" />
    <path
       id="path77"
       d="m 1403.5,646.133 c 3.59,0 6.5,-2.91 6.5,-6.5 v 0 c 0,-3.59 -2.91,-6.5 -6.5,-6.5 -3.59,0 -6.5,2.91 -6.5,6.5 0,3.59 2.91,6.5 6.5,6.5 z m 0,12 c -10.21,0 -18.5,-8.285 -18.5,-18.5 0,-10.215 8.29,-18.5 18.5,-18.5 10.21,0 18.5,8.285 18.5,18.5 v 0 c 0,10.215 -8.29,18.5 -18.5,18.5"
       style="fill:#333333;fill-opacity:1;fill-rule:nonzero;stroke:none"
       transform="matrix(0.13333333,0,0,-0.13333333,0,160)" />
    <path
       id="path78"
       d="m 1434,687.309 c 3.59,0 6.5,-2.911 6.5,-6.5 v 0 c 0,-3.59 -2.91,-6.5 -6.5,-6.5 -3.59,0 -6.5,2.91 -6.5,6.5 0,3.589 2.91,6.5 6.5,6.5 z m 0,12 c -10.21,0 -18.5,-8.286 -18.5,-18.5 0,-10.215 8.29,-18.5 18.5,-18.5 10.21,0 18.5,8.285 18.5,18.5 v 0 c 0,10.214 -8.29,18.5 -18.5,18.5"
       style="fill:#333333;fill-opacity:1;fill-rule:nonzero;stroke:none"
       transform="matrix(0.13333333,0,0,-0.13333333,0,160)" />
    <path
       id="path79"
       d="m 1464.5,739.652 c 3.59,0 6.5,-2.91 6.5,-6.5 v 0 c 0,-3.589 -2.91,-6.5 -6.5,-6.5 -3.59,0 -6.5,2.911 -6.5,6.5 0,3.59 2.91,6.5 6.5,6.5 z m 0,12 c -10.21,0 -18.5,-8.285 -18.5,-18.5 0,-10.214 8.29,-18.5 18.5,-18.5 10.21,0 18.5,8.286 18.5,18.5 v 0 c 0,10.215 -8.29,18.5 -18.5,18.5"
       style="fill:#333333;fill-opacity:1;fill-rule:nonzero;stroke:none"
       transform="matrix(0.13333333,0,0,-0.13333333,0,160)" />
    <path
       id="path80"
       d="m 1495,725.305 c 3.59,0 6.5,-2.91 6.5,-6.5 v 0 c 0,-3.59 -2.91,-6.5 -6.5,-6.5 -3.59,0 -6.5,2.91 -6.5,6.5 0,3.59 2.91,6.5 6.5,6.5 z m 0,12 c -10.21,0 -18.5,-8.285 -18.5,-18.5 0,-10.215 8.29,-18.5 18.5,-18.5 10.21,0 18.5,8.285 18.5,18.5 v 0 c 0,10.215 -8.29,18.5 -18.5,18.5"
       style="fill:#333333;fill-opacity:1;fill-rule:nonzero;stroke:none"
       transform="matrix(0.13333333,0,0,-0.13333333,0,160)" />
    <path
       id="path81"
       d="m 990,800 h 450 v 260 H 990 Z"
       style="fill:#ffffff;fill-opacity:1;fill-rule:nonzero;stroke:none"
       transform="matrix(0.13333333,0,0,-0.13333333,0,160)" />
    <path
       id="path82"
       d="m 1156.43,975.613 c -0.57,0 -0.86,0.395 -0.86,1.176 0,0.156 0.06,0.418 0.16,0.781 0.1,0.364 0.23,0.664 0.39,0.899 0.16,0.234 0.34,0.351 0.55,0.351 3.7,0 6.25,0.18 7.65,0.543 0.79,0.266 1.36,1.075 1.72,2.426 l 12.35,49.451 c 0.15,0.57 0.23,0.99 0.23,1.25 0,0.63 -0.39,0.99 -1.17,1.1 -1.09,0.21 -3.23,0.31 -6.41,0.31 -0.57,0 -0.86,0.42 -0.86,1.25 0,0.1 0.04,0.35 0.12,0.74 0.08,0.39 0.21,0.69 0.39,0.9 0.19,0.21 0.38,0.31 0.58,0.31 h 48.84 c 0.57,0 0.85,-0.39 0.85,-1.17 l -2.1,-18.67 c 0,-0.16 -0.12,-0.33 -0.36,-0.51 -0.23,-0.18 -0.43,-0.27 -0.58,-0.27 h -0.78 c -0.63,0 -0.94,0.39 -0.94,1.17 0.36,2.92 0.55,5.08 0.55,6.49 0,2.39 -0.42,4.25 -1.25,5.58 -0.84,1.33 -1.93,2.29 -3.29,2.89 -1.35,0.6 -2.86,0.96 -4.53,1.09 -1.66,0.14 -3.82,0.2 -6.48,0.2 h -10.24 c -1.66,0 -2.76,-0.13 -3.28,-0.39 -0.52,-0.26 -1.01,-1.15 -1.48,-2.66 l -5.39,-21.71 h 7.03 c 3.07,0 5.38,0.2 6.91,0.62 1.54,0.42 2.77,1.3 3.68,2.65 0.91,1.36 1.73,3.49 2.46,6.41 0.05,0.21 0.16,0.39 0.35,0.54 0.18,0.16 0.37,0.24 0.58,0.24 h 0.79 c 0.57,0 0.85,-0.39 0.85,-1.17 l -5.54,-22.192 c -0.11,-0.519 -0.39,-0.777 -0.86,-0.777 h -0.86 c -0.57,0 -0.86,0.363 -0.86,1.094 0.57,2.398 0.86,4.165 0.86,5.305 0,1.78 -0.79,2.9 -2.38,3.37 -1.59,0.47 -3.69,0.7 -6.3,0.7 h -7.5 l -6.09,-24.453 c -0.25,-0.727 -0.39,-1.379 -0.39,-1.954 0,-0.468 1.02,-0.703 3.05,-0.703 h 10.93 c 4.33,0 7.83,0.325 10.52,0.977 2.68,0.652 4.92,1.719 6.71,3.203 1.8,1.484 3.34,3.371 4.61,5.664 1.28,2.289 2.83,5.625 4.65,10 0.16,0.363 0.44,0.547 0.86,0.547 h 0.78 c 0.26,0 0.49,-0.106 0.67,-0.313 0.18,-0.207 0.27,-0.445 0.27,-0.703 0,-0.105 -0.05,-0.207 -0.16,-0.308 l -9.22,-21.723 c -0.15,-0.367 -0.39,-0.551 -0.7,-0.551 h -50.08"
       style="fill:#000000;fill-opacity:1;fill-rule:nonzero;stroke:none"
       transform="matrix(0.13333333,0,0,-0.13333333,0,160)" />
    <path
       id="path83"
       d="m 1251.73,953.273 c -3.33,2.661 -6.21,5.692 -8.63,9.102 -2.42,3.41 -4.4,7.043 -5.94,10.898 -1.53,3.856 -2.68,7.891 -3.43,12.114 -0.76,4.215 -1.14,8.457 -1.14,12.726 0,4.327 0.38,8.597 1.14,12.817 0.75,4.22 1.91,8.27 3.47,12.15 1.56,3.88 3.57,7.53 6.01,10.94 2.45,3.41 5.29,6.39 8.52,8.94 0,0.1 0.16,0.15 0.47,0.15 h 0.86 c 0.15,0 0.31,-0.07 0.46,-0.22 0.16,-0.16 0.24,-0.34 0.24,-0.55 0,-0.27 -0.08,-0.45 -0.24,-0.55 -2.91,-2.91 -5.34,-6.02 -7.29,-9.3 -1.96,-3.28 -3.52,-6.77 -4.69,-10.47 -1.18,-3.7 -2.04,-7.52 -2.59,-11.48 -0.54,-3.96 -0.81,-8.1 -0.81,-12.427 0,-19.058 5.1,-33.535 15.31,-43.433 0.21,-0.211 0.31,-0.469 0.31,-0.782 0,-0.156 -0.09,-0.324 -0.27,-0.507 -0.19,-0.184 -0.33,-0.278 -0.43,-0.278 h -0.86 c -0.31,0 -0.47,0.055 -0.47,0.16"
       style="fill:#000000;fill-opacity:1;fill-rule:nonzero;stroke:none"
       transform="matrix(0.13333333,0,0,-0.13333333,0,160)" />
    <path
       id="path84"
       d="m 1276.89,974.289 c -2.09,0 -4.03,0.379 -5.82,1.133 -1.8,0.754 -3.36,1.875 -4.69,3.359 -1.33,1.485 -2.32,3.129 -2.97,4.922 -0.65,1.797 -0.98,3.738 -0.98,5.82 0,3.75 0.89,7.399 2.66,10.937 1.77,3.54 4.19,6.6 7.27,9.18 3.07,2.58 6.4,4.31 10,5.2 -1.77,3.28 -3.12,6.09 -4.03,8.43 -0.91,2.35 -1.37,4.77 -1.37,7.27 0,1.77 0.42,3.36 1.25,4.76 0.84,1.41 2.01,2.5 3.52,3.29 1.51,0.78 3.18,1.17 5,1.17 1.82,0 5.36,-0.6 10.63,-1.8 1.4,-0.31 2.1,-1.12 2.1,-2.42 0,-0.99 -0.36,-1.89 -1.09,-2.7 -0.73,-0.8 -1.59,-1.2 -2.58,-1.2 -0.78,0 -1.46,0.16 -2.03,0.5 -0.57,0.34 -1.49,0.93 -2.74,1.76 -1.25,0.83 -2.38,1.48 -3.39,1.95 -1.02,0.47 -2.04,0.7 -3.09,0.7 -1.25,0 -2.36,-0.37 -3.36,-1.13 -0.98,-0.75 -1.48,-1.73 -1.48,-2.93 0,-1.93 0.85,-4.13 2.54,-6.6 1.69,-2.47 4.1,-5.64 7.22,-9.49 3.54,-4.53 5.31,-9.51 5.31,-14.92 0,-2.71 -0.38,-5.628 -1.16,-8.753 -0.79,-3.125 -1.92,-6.079 -3.41,-8.868 -1.48,-2.785 -3.36,-5.078 -5.66,-6.875 -2.29,-1.796 -4.84,-2.695 -7.65,-2.695 z m 0.15,2.422 c 2.35,0 4.37,1.211 6.06,3.633 1.69,2.422 2.97,5.312 3.83,8.672 0.86,3.359 1.28,6.183 1.28,8.472 0,4.482 -1.56,9.532 -4.69,15.162 -3.17,-0.89 -5.91,-2.74 -8.2,-5.55 -2.29,-2.81 -4.02,-6.05 -5.19,-9.725 -1.17,-3.672 -1.76,-7.148 -1.76,-10.43 0,-2.863 0.74,-5.285 2.23,-7.265 1.48,-1.981 3.63,-2.969 6.44,-2.969"
       style="fill:#000000;fill-opacity:1;fill-rule:nonzero;stroke:none"
       transform="matrix(0.13333333,0,0,-0.13333333,0,160)" />
    <path
       id="path85"
       d="m 1314.86,961.414 c -2.45,0 -4.63,0.719 -6.53,2.152 -1.9,1.43 -3.35,3.289 -4.33,5.582 -1,2.293 -1.49,4.637 -1.49,7.032 0,1.824 0.29,3.605 0.86,5.351 0.57,1.746 1.41,3.321 2.5,4.731 1.09,1.406 2.42,2.523 3.99,3.359 1.56,0.832 3.28,1.25 5.15,1.25 1.98,0 3.87,-0.379 5.67,-1.137 1.79,-0.757 3.46,-1.746 5,-2.968 1.53,-1.223 2.95,-2.641 4.25,-4.254 l 1.96,-2.582 c 1.25,2.031 2.65,3.855 4.22,5.468 1.56,1.614 3.33,2.93 5.31,3.946 1.98,1.019 4.08,1.527 6.33,1.527 1.92,0 3.65,-0.418 5.19,-1.25 1.54,-0.836 2.84,-1.98 3.91,-3.441 1.07,-1.457 1.87,-3.059 2.42,-4.805 0.55,-1.742 0.82,-3.477 0.82,-5.195 0,-2.5 -0.51,-4.883 -1.52,-7.149 -1.02,-2.265 -2.48,-4.097 -4.38,-5.508 -1.9,-1.406 -4.1,-2.109 -6.6,-2.109 -2.81,0 -5.5,0.758 -8.05,2.266 -2.55,1.511 -4.84,3.543 -6.87,6.093 l -1.88,2.579 c -1.97,-3.227 -4.32,-5.86 -7.03,-7.891 -2.71,-2.031 -5.67,-3.047 -8.9,-3.047 z m -0.71,2.266 c 5.52,0 10.45,3.672 14.77,11.015 l -3.44,4.375 c -1.98,2.657 -3.83,4.727 -5.55,6.211 -1.72,1.485 -3.7,2.231 -5.93,2.231 -1.93,0 -3.64,-0.547 -5.12,-1.641 -1.49,-1.098 -2.65,-2.531 -3.48,-4.301 -0.83,-1.769 -1.25,-3.593 -1.25,-5.468 0,-1.457 0.24,-2.93 0.71,-4.411 0.46,-1.488 1.13,-2.828 1.99,-4.027 0.86,-1.195 1.91,-2.16 3.16,-2.891 1.25,-0.726 2.63,-1.093 4.14,-1.093 z m 22.97,9.457 c 1.98,-2.61 3.83,-4.653 5.55,-6.137 1.72,-1.484 3.69,-2.227 5.94,-2.227 1.46,0 2.78,0.329 3.98,0.977 1.2,0.648 2.24,1.512 3.12,2.578 0.89,1.07 1.57,2.277 2.04,3.633 0.46,1.355 0.7,2.762 0.7,4.219 0,1.98 -0.4,3.933 -1.21,5.859 -0.81,1.926 -1.97,3.504 -3.48,4.727 -1.51,1.222 -3.28,1.836 -5.31,1.836 -5.52,0 -10.44,-3.7 -14.77,-11.09 l 3.44,-4.375"
       style="fill:#000000;fill-opacity:1;fill-rule:nonzero;stroke:none"
       transform="matrix(0.13333333,0,0,-0.13333333,0,160)" />
    <path
       id="path86"
       d="m 1372.2,953.113 c -0.52,0 -0.78,0.262 -0.78,0.785 0,0.262 0.05,0.442 0.15,0.547 10.27,10.055 15.39,24.61 15.39,43.668 0,19.067 -5.07,33.547 -15.23,43.437 -0.21,0.16 -0.31,0.42 -0.31,0.79 0,0.21 0.08,0.39 0.24,0.55 0.15,0.15 0.33,0.22 0.54,0.22 h 0.86 c 0.15,0 0.29,-0.05 0.39,-0.15 4.32,-3.38 7.92,-7.51 10.78,-12.38 2.87,-4.87 4.96,-10.07 6.29,-15.59 1.33,-5.52 1.99,-11.15 1.99,-16.877 0,-4.269 -0.35,-8.461 -1.06,-12.574 -0.7,-4.117 -1.82,-8.164 -3.39,-12.148 -1.56,-3.985 -3.56,-7.668 -5.98,-11.055 -2.42,-3.383 -5.29,-6.402 -8.63,-9.063 -0.1,-0.105 -0.24,-0.16 -0.39,-0.16 h -0.86"
       style="fill:#000000;fill-opacity:1;fill-rule:nonzero;stroke:none"
       transform="matrix(0.13333333,0,0,-0.13333333,0,160)" />
    <path
       id="path87"
       d="m 1152.21,935.43 h 249.125 v 3.60156 H 1152.21 Z"
       style="fill:#000000;fill-opacity:1;fill-rule:nonzero;stroke:none"
       transform="matrix(0.13333333,0,0,-0.13333333,0,160)" />
    <path
       id="path88"
       d="m 1195.53,908.93 c -2.65,0 -5.03,0.742 -7.11,2.226 -2.08,1.485 -3.7,3.438 -4.85,5.86 -1.14,2.422 -1.71,4.937 -1.71,7.539 h 2.34 c 0,-2.032 0.51,-3.957 1.53,-5.782 1.01,-1.82 2.38,-3.293 4.09,-4.414 1.72,-1.121 3.63,-1.679 5.71,-1.679 2.08,0 3.98,0.558 5.7,1.679 1.72,1.121 3.07,2.594 4.06,4.414 1,1.825 1.49,3.75 1.49,5.782 h 2.34 c 0,-2.602 -0.57,-5.117 -1.71,-7.539 -1.15,-2.422 -2.77,-4.375 -4.85,-5.86 -2.08,-1.484 -4.43,-2.226 -7.03,-2.226"
       style="fill:#000000;fill-opacity:1;fill-rule:nonzero;stroke:none"
       transform="matrix(0.13333333,0,0,-0.13333333,0,160)" />
    <path
       id="path89"
       d="m 1156.43,839.387 c -0.57,0 -0.86,0.386 -0.86,1.168 0,0.156 0.06,0.418 0.16,0.781 0.1,0.367 0.23,0.664 0.39,0.898 0.16,0.235 0.34,0.352 0.55,0.352 3.7,0 6.25,0.184 7.65,0.551 0.79,0.258 1.36,1.066 1.72,2.418 l 12.35,49.457 c 0.15,0.566 0.23,0.984 0.23,1.25 0,0.621 -0.39,0.984 -1.17,1.09 -1.09,0.207 -3.23,0.312 -6.41,0.312 -0.57,0 -0.86,0.418 -0.86,1.25 0,0.106 0.04,0.352 0.12,0.742 0.08,0.391 0.21,0.688 0.39,0.899 0.19,0.207 0.38,0.308 0.58,0.308 h 48.84 c 0.57,0 0.85,-0.386 0.85,-1.168 l -2.1,-18.672 c 0,-0.156 -0.12,-0.324 -0.36,-0.507 -0.23,-0.184 -0.43,-0.278 -0.58,-0.278 h -0.78 c -0.63,0 -0.94,0.395 -0.94,1.176 0.36,2.918 0.55,5.078 0.55,6.484 0,2.395 -0.42,4.258 -1.25,5.586 -0.84,1.329 -1.93,2.289 -3.29,2.891 -1.35,0.602 -2.86,0.965 -4.53,1.094 -1.66,0.133 -3.82,0.195 -6.48,0.195 h -10.24 c -1.66,0 -2.76,-0.129 -3.28,-0.391 -0.52,-0.257 -1.01,-1.144 -1.48,-2.66 l -5.39,-21.715 h 7.03 c 3.07,0 5.38,0.211 6.91,0.625 1.54,0.418 2.77,1.305 3.68,2.657 0.91,1.355 1.73,3.488 2.46,6.406 0.05,0.211 0.16,0.391 0.35,0.551 0.18,0.152 0.37,0.226 0.58,0.226 h 0.79 c 0.57,0 0.85,-0.386 0.85,-1.168 l -5.54,-22.183 c -0.11,-0.524 -0.39,-0.785 -0.86,-0.785 h -0.86 c -0.57,0 -0.86,0.363 -0.86,1.093 0.57,2.395 0.86,4.168 0.86,5.317 0,1.769 -0.79,2.886 -2.38,3.351 -1.59,0.473 -3.69,0.707 -6.3,0.707 h -7.5 l -6.09,-24.457 c -0.25,-0.726 -0.39,-1.375 -0.39,-1.949 0,-0.469 1.02,-0.703 3.05,-0.703 h 10.93 c 4.33,0 7.83,0.324 10.52,0.973 2.68,0.656 4.92,1.722 6.71,3.207 1.8,1.484 3.34,3.371 4.61,5.664 1.28,2.289 2.83,5.625 4.65,10 0.16,0.363 0.44,0.547 0.86,0.547 h 0.78 c 0.26,0 0.49,-0.106 0.67,-0.313 0.18,-0.211 0.27,-0.445 0.27,-0.703 0,-0.106 -0.05,-0.207 -0.16,-0.313 l -9.22,-21.718 c -0.15,-0.364 -0.39,-0.543 -0.7,-0.543 h -50.08"
       style="fill:#000000;fill-opacity:1;fill-rule:nonzero;stroke:none"
       transform="matrix(0.13333333,0,0,-0.13333333,0,160)" />
    <path
       id="path90"
       d="m 1251.73,817.039 c -3.33,2.656 -6.21,5.691 -8.63,9.102 -2.42,3.414 -4.4,7.047 -5.94,10.898 -1.53,3.856 -2.68,7.891 -3.43,12.109 -0.76,4.219 -1.14,8.465 -1.14,12.739 0,4.316 0.38,8.59 1.14,12.808 0.75,4.219 1.91,8.27 3.47,12.149 1.56,3.883 3.57,7.527 6.01,10.937 2.45,3.414 5.29,6.395 8.52,8.946 0,0.105 0.16,0.16 0.47,0.16 h 0.86 c 0.15,0 0.31,-0.078 0.46,-0.239 0.16,-0.156 0.24,-0.339 0.24,-0.546 0,-0.262 -0.08,-0.442 -0.24,-0.547 -2.91,-2.918 -5.34,-6.016 -7.29,-9.293 -1.96,-3.285 -3.52,-6.774 -4.69,-10.473 -1.18,-3.699 -2.04,-7.527 -2.59,-11.484 -0.54,-3.961 -0.81,-8.102 -0.81,-12.418 0,-19.067 5.1,-33.547 15.31,-43.442 0.21,-0.207 0.31,-0.468 0.31,-0.781 0,-0.156 -0.09,-0.324 -0.27,-0.508 -0.19,-0.179 -0.33,-0.269 -0.43,-0.269 h -0.86 c -0.31,0 -0.47,0.051 -0.47,0.152"
       style="fill:#000000;fill-opacity:1;fill-rule:nonzero;stroke:none"
       transform="matrix(0.13333333,0,0,-0.13333333,0,160)" />
    <path
       id="path91"
       d="m 1276.89,838.055 c -2.09,0 -4.03,0.379 -5.82,1.129 -1.8,0.757 -3.36,1.879 -4.69,3.363 -1.33,1.484 -2.32,3.125 -2.97,4.922 -0.65,1.797 -0.98,3.738 -0.98,5.82 0,3.75 0.89,7.395 2.66,10.938 1.77,3.543 4.19,6.601 7.27,9.179 3.07,2.578 6.4,4.309 10,5.196 -1.77,3.281 -3.12,6.093 -4.03,8.437 -0.91,2.344 -1.37,4.766 -1.37,7.266 0,1.769 0.42,3.359 1.25,4.765 0.84,1.407 2.01,2.5 3.52,3.282 1.51,0.781 3.18,1.171 5,1.171 1.82,0 5.36,-0.597 10.63,-1.796 1.4,-0.313 2.1,-1.118 2.1,-2.422 0,-0.989 -0.36,-1.887 -1.09,-2.696 -0.73,-0.804 -1.59,-1.211 -2.58,-1.211 -0.78,0 -1.46,0.172 -2.03,0.508 -0.57,0.34 -1.49,0.926 -2.74,1.758 -1.25,0.836 -2.38,1.484 -3.39,1.949 -1.02,0.473 -2.04,0.707 -3.09,0.707 -1.25,0 -2.36,-0.379 -3.36,-1.136 -0.98,-0.75 -1.48,-1.727 -1.48,-2.922 0,-1.934 0.85,-4.133 2.54,-6.606 1.69,-2.472 4.1,-5.636 7.22,-9.492 3.54,-4.531 5.31,-9.508 5.31,-14.926 0,-2.703 -0.38,-5.621 -1.16,-8.75 -0.79,-3.121 -1.92,-6.078 -3.41,-8.863 -1.48,-2.785 -3.36,-5.078 -5.66,-6.875 -2.29,-1.797 -4.84,-2.695 -7.65,-2.695 z m 0.15,2.422 c 2.35,0 4.37,1.211 6.06,3.632 1.69,2.422 2.97,5.313 3.83,8.672 0.86,3.36 1.28,6.184 1.28,8.481 0,4.476 -1.56,9.527 -4.69,15.152 -3.17,-0.887 -5.91,-2.734 -8.2,-5.551 -2.29,-2.808 -4.02,-6.05 -5.19,-9.722 -1.17,-3.672 -1.76,-7.149 -1.76,-10.43 0,-2.863 0.74,-5.285 2.23,-7.266 1.48,-1.98 3.63,-2.968 6.44,-2.968"
       style="fill:#000000;fill-opacity:1;fill-rule:nonzero;stroke:none"
       transform="matrix(0.13333333,0,0,-0.13333333,0,160)" />
    <path
       id="path92"
       d="m 1314.86,825.18 c -2.45,0 -4.63,0.718 -6.53,2.148 -1.9,1.434 -3.35,3.293 -4.33,5.586 -1,2.289 -1.49,4.633 -1.49,7.031 0,1.825 0.29,3.606 0.86,5.352 0.57,1.746 1.41,3.32 2.5,4.726 1.09,1.411 2.42,2.528 3.99,3.364 1.56,0.832 3.28,1.25 5.15,1.25 1.98,0 3.87,-0.379 5.67,-1.137 1.79,-0.758 3.46,-1.746 5,-2.969 1.53,-1.222 2.95,-2.644 4.25,-4.258 l 1.96,-2.578 c 1.25,2.032 2.65,3.852 4.22,5.469 1.56,1.613 3.33,2.93 5.31,3.945 1.98,1.016 4.08,1.528 6.33,1.528 1.92,0 3.65,-0.418 5.19,-1.25 1.54,-0.836 2.84,-1.981 3.91,-3.442 1.07,-1.457 1.87,-3.058 2.42,-4.804 0.55,-1.743 0.82,-3.477 0.82,-5.196 0,-2.5 -0.51,-4.882 -1.52,-7.148 -1.02,-2.266 -2.48,-4.102 -4.38,-5.508 -1.9,-1.406 -4.1,-2.109 -6.6,-2.109 -2.81,0 -5.5,0.754 -8.05,2.265 -2.55,1.508 -4.84,3.543 -6.87,6.094 l -1.88,2.574 c -1.97,-3.226 -4.32,-5.855 -7.03,-7.886 -2.71,-2.032 -5.67,-3.047 -8.9,-3.047 z m -0.71,2.265 c 5.52,0 10.45,3.672 14.77,11.016 l -3.44,4.375 c -1.98,2.656 -3.83,4.727 -5.55,6.211 -1.72,1.484 -3.7,2.226 -5.93,2.226 -1.93,0 -3.64,-0.546 -5.12,-1.636 -1.49,-1.098 -2.65,-2.532 -3.48,-4.301 -0.83,-1.77 -1.25,-3.594 -1.25,-5.473 0,-1.453 0.24,-2.925 0.71,-4.41 0.46,-1.484 1.13,-2.828 1.99,-4.023 0.86,-1.196 1.91,-2.16 3.16,-2.891 1.25,-0.73 2.63,-1.094 4.14,-1.094 z m 22.97,9.453 c 1.98,-2.605 3.83,-4.648 5.55,-6.132 1.72,-1.485 3.69,-2.227 5.94,-2.227 1.46,0 2.78,0.324 3.98,0.977 1.2,0.648 2.24,1.507 3.12,2.578 0.89,1.066 1.57,2.277 2.04,3.633 0.46,1.355 0.7,2.761 0.7,4.218 0,1.981 -0.4,3.934 -1.21,5.86 -0.81,1.925 -1.97,3.504 -3.48,4.726 -1.51,1.223 -3.28,1.832 -5.31,1.832 -5.52,0 -10.44,-3.695 -14.77,-11.09 l 3.44,-4.375"
       style="fill:#000000;fill-opacity:1;fill-rule:nonzero;stroke:none"
       transform="matrix(0.13333333,0,0,-0.13333333,0,160)" />
    <path
       id="path93"
       d="m 1372.2,816.887 c -0.52,0 -0.78,0.258 -0.78,0.777 0,0.262 0.05,0.441 0.15,0.547 10.27,10.051 15.39,24.609 15.39,43.676 0,19.058 -5.07,33.535 -15.23,43.433 -0.21,0.157 -0.31,0.418 -0.31,0.782 0,0.207 0.08,0.39 0.24,0.546 0.15,0.161 0.33,0.239 0.54,0.239 h 0.86 c 0.15,0 0.29,-0.055 0.39,-0.16 4.32,-3.387 7.92,-7.512 10.78,-12.383 2.87,-4.867 4.96,-10.063 6.29,-15.582 1.33,-5.524 1.99,-11.149 1.99,-16.875 0,-4.274 -0.35,-8.469 -1.06,-12.582 -0.7,-4.114 -1.82,-8.164 -3.39,-12.149 -1.56,-3.984 -3.56,-7.668 -5.98,-11.054 -2.42,-3.387 -5.29,-6.407 -8.63,-9.063 -0.1,-0.101 -0.24,-0.152 -0.39,-0.152 h -0.86"
       style="fill:#000000;fill-opacity:1;fill-rule:nonzero;stroke:none"
       transform="matrix(0.13333333,0,0,-0.13333333,0,160)" />
    <path
       id="path94"
       d="m 1019.79,930 h 99.28"
       style="fill:none;stroke:#333333;stroke-width:12;stroke-linecap:butt;stroke-linejoin:round;stroke-miterlimit:10;stroke-dasharray:none;stroke-opacity:1"
       transform="matrix(0.13333333,0,0,-0.13333333,0,160)" />
    <path
       id="path95"
       d="m 1069.43,936.5 c 3.59,0 6.5,-2.91 6.5,-6.5 v 0 c 0,-3.59 -2.91,-6.5 -6.5,-6.5 -3.59,0 -6.5,2.91 -6.5,6.5 0,3.59 2.91,6.5 6.5,6.5 z m 0,12 c -10.22,0 -18.5,-8.285 -18.5,-18.5 0,-10.215 8.28,-18.5 18.5,-18.5 10.21,0 18.5,8.285 18.5,18.5 v 0 c 0,10.215 -8.29,18.5 -18.5,18.5"
       style="fill:#333333;fill-opacity:1;fill-rule:nonzero;stroke:none"
       transform="matrix(0.13333333,0,0,-0.13333333,0,160)" />
    <path
       id="path96"
       d="m 990,800 h 450 v 260 H 990 Z"
       style="fill:none;stroke:#262626;stroke-width:5;stroke-linecap:butt;stroke-linejoin:miter;stroke-miterlimit:10;stroke-dasharray:none;stroke-opacity:1"
       transform="matrix(0.13333333,0,0,-0.13333333,0,160)" />
  </g>
</svg>
