<?xml version="1.0" encoding="UTF-8" standalone="no"?>
<!-- Created with Inkscape (http://www.inkscape.org/) -->

<svg
   version="1.1"
   id="svg1"
   width="220"
   height="160"
   viewBox="0 0 220 160"
   xmlns="http://www.w3.org/2000/svg"
   xmlns:svg="http://www.w3.org/2000/svg">
  <defs
     id="defs1" />
  <g
     id="g1">
    <path
       id="path1"
       d="M 0,0 H 1650 V 1200 H 0 Z"
       style="fill:#ffffff;fill-opacity:1;fill-rule:nonzero;stroke:none"
       transform="matrix(0.13333333,0,0,-0.13333333,0,160)" />
    <path
       id="path2"
       d="M 0,0 H 1650 V 1200 H 0 Z"
       style="fill:#ffffff;fill-opacity:1;fill-rule:nonzero;stroke:none"
       transform="matrix(0.13333333,0,0,-0.13333333,0,160)" />
    <path
       id="path3"
       d="m 275,250 h 1220 v 860 H 275 Z"
       style="fill:#ffffff;fill-opacity:1;fill-rule:nonzero;stroke:none"
       transform="matrix(0.13333333,0,0,-0.13333333,0,160)" />
    <path
       id="path4"
       d="m 275,250 v 860"
       style="fill:none;stroke:#dfdfdf;stroke-width:5;stroke-linecap:butt;stroke-linejoin:bevel;stroke-miterlimit:10;stroke-dasharray:40, 15, 10, 15;stroke-dashoffset:0;stroke-opacity:1"
       transform="matrix(0.13333333,0,0,-0.13333333,0,160)" />
    <path
       id="path5"
       d="m 580,250 v 860"
       style="fill:none;stroke:#dfdfdf;stroke-width:5;stroke-linecap:butt;stroke-linejoin:bevel;stroke-miterlimit:10;stroke-dasharray:40, 15, 10, 15;stroke-dashoffset:0;stroke-opacity:1"
       transform="matrix(0.13333333,0,0,-0.13333333,0,160)" />
    <path
       id="path6"
       d="m 885,250 v 860"
       style="fill:none;stroke:#dfdfdf;stroke-width:5;stroke-linecap:butt;stroke-linejoin:bevel;stroke-miterlimit:10;stroke-dasharray:40, 15, 10, 15;stroke-dashoffset:0;stroke-opacity:1"
       transform="matrix(0.13333333,0,0,-0.13333333,0,160)" />
    <path
       id="path7"
       d="m 1190,250 v 860"
       style="fill:none;stroke:#dfdfdf;stroke-width:5;stroke-linecap:butt;stroke-linejoin:bevel;stroke-miterlimit:10;stroke-dasharray:40, 15, 10, 15;stroke-dashoffset:0;stroke-opacity:1"
       transform="matrix(0.13333333,0,0,-0.13333333,0,160)" />
    <path
       id="path8"
       d="m 1495,250 v 860"
       style="fill:none;stroke:#dfdfdf;stroke-width:5;stroke-linecap:butt;stroke-linejoin:bevel;stroke-miterlimit:10;stroke-dasharray:40, 15, 10, 15;stroke-dashoffset:0;stroke-opacity:1"
       transform="matrix(0.13333333,0,0,-0.13333333,0,160)" />
    <path
       id="path9"
       d="M 1495,250 H 275"
       style="fill:none;stroke:#dfdfdf;stroke-width:5;stroke-linecap:butt;stroke-linejoin:bevel;stroke-miterlimit:10;stroke-dasharray:40, 15, 10, 15;stroke-dashoffset:0;stroke-opacity:1"
       transform="matrix(0.13333333,0,0,-0.13333333,0,160)" />
    <path
       id="path10"
       d="M 1495,532.086 H 275"
       style="fill:none;stroke:#dfdfdf;stroke-width:5;stroke-linecap:butt;stroke-linejoin:bevel;stroke-miterlimit:10;stroke-dasharray:40, 15, 10, 15;stroke-dashoffset:0;stroke-opacity:1"
       transform="matrix(0.13333333,0,0,-0.13333333,0,160)" />
    <path
       id="path11"
       d="M 1495,814.172 H 275"
       style="fill:none;stroke:#dfdfdf;stroke-width:5;stroke-linecap:butt;stroke-linejoin:bevel;stroke-miterlimit:10;stroke-dasharray:40, 15, 10, 15;stroke-dashoffset:0;stroke-opacity:1"
       transform="matrix(0.13333333,0,0,-0.13333333,0,160)" />
    <path
       id="path12"
       d="M 1495,1096.25 H 275"
       style="fill:none;stroke:#dfdfdf;stroke-width:5;stroke-linecap:butt;stroke-linejoin:bevel;stroke-miterlimit:10;stroke-dasharray:40, 15, 10, 15;stroke-dashoffset:0;stroke-opacity:1"
       transform="matrix(0.13333333,0,0,-0.13333333,0,160)" />
    <path
       id="path13"
       d="M 275,250 H 1495"
       style="fill:none;stroke:#262626;stroke-width:5;stroke-linecap:square;stroke-linejoin:round;stroke-miterlimit:10;stroke-dasharray:none;stroke-opacity:1"
       transform="matrix(0.13333333,0,0,-0.13333333,0,160)" />
    <path
       id="path14"
       d="m 275,250 v 12.18"
       style="fill:none;stroke:#262626;stroke-width:5;stroke-linecap:square;stroke-linejoin:round;stroke-miterlimit:10;stroke-dasharray:none;stroke-opacity:1"
       transform="matrix(0.13333333,0,0,-0.13333333,0,160)" />
    <path
       id="path15"
       d="m 580,250 v 12.18"
       style="fill:none;stroke:#262626;stroke-width:5;stroke-linecap:square;stroke-linejoin:round;stroke-miterlimit:10;stroke-dasharray:none;stroke-opacity:1"
       transform="matrix(0.13333333,0,0,-0.13333333,0,160)" />
    <path
       id="path16"
       d="m 885,250 v 12.18"
       style="fill:none;stroke:#262626;stroke-width:5;stroke-linecap:square;stroke-linejoin:round;stroke-miterlimit:10;stroke-dasharray:none;stroke-opacity:1"
       transform="matrix(0.13333333,0,0,-0.13333333,0,160)" />
    <path
       id="path17"
       d="m 1190,250 v 12.18"
       style="fill:none;stroke:#262626;stroke-width:5;stroke-linecap:square;stroke-linejoin:round;stroke-miterlimit:10;stroke-dasharray:none;stroke-opacity:1"
       transform="matrix(0.13333333,0,0,-0.13333333,0,160)" />
    <path
       id="path18"
       d="m 1495,250 v 12.18"
       style="fill:none;stroke:#262626;stroke-width:5;stroke-linecap:square;stroke-linejoin:round;stroke-miterlimit:10;stroke-dasharray:none;stroke-opacity:1"
       transform="matrix(0.13333333,0,0,-0.13333333,0,160)" />
    <path
       id="path19"
       d="m 2.2021484,-4.3699219 v 4.37109378 h 0.75 V -6.1394531 H 2.4599609 c -0.2695312,0.9375 -0.4335937,1.0664062 -1.59374996,1.21875 v 0.5507812 z M 34.800781,-0.73710937 H 31.625 c 0.08203,-0.51562503 0.351563,-0.83203123 1.089844,-1.28906253 l 0.855468,-0.46875 c 0.84375,-0.46875 1.265625,-1.1015625 1.265625,-1.8515625 0,-0.515625 -0.199218,-0.984375 -0.550781,-1.3242187 -0.363281,-0.3164063 -0.808594,-0.46875 -1.371094,-0.46875 -0.761718,0 -1.335937,0.2695312 -1.664062,0.796875 -0.210937,0.328125 -0.304687,0.703125 -0.328125,1.3242187 h 0.75 c 0.02344,-0.4101562 0.08203,-0.65625 0.175781,-0.8671875 0.199219,-0.375 0.585938,-0.5976562 1.042969,-0.5976562 0.679687,0 1.183594,0.4921875 1.183594,1.1484375 0,0.4921875 -0.28125,0.9257812 -0.808594,1.2304687 l -0.785156,0.4570313 c -1.253906,0.7148437 -1.628906,1.3007812 -1.6875,2.63671873 h 4.007812 z M 62.875977,-2.8230469 h 0.410156 c 0.820312,0 1.253906,0.375 1.253906,1.1132813 0,0.77343748 -0.46875,1.24218748 -1.242187,1.24218748 -0.832032,0 -1.230469,-0.41015625 -1.277344,-1.31249998 h -0.75 c 0.03516,0.4921875 0.117187,0.80859373 0.269531,1.08984373 0.316406,0.5859375 0.902344,0.890625 1.722656,0.890625 1.242188,0 2.039063,-0.75 2.039063,-1.91015623 0,-0.7851563 -0.304688,-1.2070313 -1.019531,-1.4648438 0.5625,-0.234375 0.84375,-0.65625 0.84375,-1.2773437 0,-1.0546875 -0.691407,-1.6875 -1.839844,-1.6875 -1.21875,0 -1.863281,0.6796875 -1.886719,1.9804687 h 0.75 c 0.01172,-0.375 0.04687,-0.5859375 0.128906,-0.7734375 0.175782,-0.3515625 0.550782,-0.5507812 1.019532,-0.5507812 0.65625,0 1.054687,0.3984375 1.054687,1.0546875 0,0.4335937 -0.152344,0.703125 -0.480469,0.84375 -0.199218,0.082031 -0.480468,0.1171875 -0.996093,0.1289062 z m 31.40039,1.3359375 v 1.48828128 h 0.75 V -1.4871094 h 0.890625 v -0.6679687 h -0.890625 v -3.984375 h -0.550781 l -2.742188,3.8671875 v 0.7851562 z m 0,-0.6679687 h -1.886719 l 1.886719,-2.7070313 z m 31.766603,-3.8671875 h -3.10547 l -0.45703,3.28125 h 0.69141 c 0.35156,-0.421875 0.63281,-0.5625 1.11328,-0.5625 0.80859,0 1.3125,0.5507812 1.3125,1.4414062 0,0.86718753 -0.50391,1.39453128 -1.32422,1.39453128 -0.65625,0 -1.05469,-0.328125 -1.23047,-1.00781248 h -0.75 c 0.10547,0.49218748 0.1875,0.72656248 0.375,0.94921873 0.33984,0.45703125 0.94922,0.7265625 1.62891,0.7265625 1.20703,0 2.0625,-0.890625 2.0625,-2.15625003 0,-1.1953125 -0.78516,-2.015625 -1.94532,-2.015625 -0.42187,0 -0.76172,0.1171875 -1.11328,0.375 l 0.23438,-1.6875 h 2.50781 z m 0,0"
       style="fill:#262626;fill-opacity:1;fill-rule:nonzero;stroke:none"
       aria-label="12345"
       transform="matrix(1.3333333,0,0,1.3333333,33.333333,141.6)" />
    <path
       id="path20"
       d="m 870.266,32.5664 c -0.782,0 -1.442,0.2461 -1.989,0.7422 -0.547,0.4961 -0.82,1.1562 -0.82,1.9922 0,0.3672 0.023,0.625 0.074,0.7773 l 7.11,28.3633 c 0.468,1.7734 0.703,3.3359 0.703,4.6875 0,2.707 -0.938,4.0625 -2.813,4.0625 -1.976,0 -3.449,-1.1875 -4.41,-3.5547 -0.969,-2.3711 -1.891,-5.3515 -2.777,-8.9453 0,-0.207 -0.09,-0.3633 -0.274,-0.4648 -0.183,-0.1094 -0.351,-0.1602 -0.504,-0.1602 h -1.097 c -0.207,0 -0.391,0.1172 -0.547,0.3555 -0.156,0.2304 -0.231,0.4258 -0.231,0.582 0.676,2.7617 1.325,5.1055 1.95,7.0313 0.625,1.9257 1.617,3.6718 2.968,5.2343 1.356,1.5625 3.02,2.3438 5,2.3438 2.344,0 4.442,-0.7422 6.293,-2.2266 1.844,-1.4844 2.77,-3.3984 2.77,-5.7422 1.875,2.5 4.062,4.4532 6.562,5.8594 2.5,1.4063 5.211,2.1094 8.125,2.1094 3.336,0 5.993,-0.8867 7.973,-2.6602 1.977,-1.7695 2.965,-4.2929 2.965,-7.5742 0,-1.875 -0.211,-3.6211 -0.625,-5.2344 L 895.656,16.1602 c -0.207,-0.8868 -0.676,-1.6016 -1.406,-2.1485 -0.73,-0.5469 -1.562,-0.8203 -2.5,-0.8203 -0.781,0 -1.441,0.2344 -1.988,0.7031 -0.547,0.4688 -0.821,1.0938 -0.821,1.875 0,0.418 0.024,0.6758 0.075,0.7813 l 10.859,43.75 c 0.676,2.6015 1.016,4.789 1.016,6.5625 0,1.7187 -0.375,3.2031 -1.129,4.4531 -0.758,1.25 -1.942,1.875 -3.555,1.875 -6.203,0 -11.359,-3.8281 -15.473,-11.4883 L 874.25,35.7695 c -0.207,-0.8867 -0.687,-1.6406 -1.445,-2.2656 -0.754,-0.625 -1.602,-0.9375 -2.539,-0.9375"
       style="fill:#262626;fill-opacity:1;fill-rule:nonzero;stroke:none"
       transform="matrix(0.13333333,0,0,-0.13333333,0,160)" />
    <path
       id="path21"
       d="m 275,250 v 860"
       style="fill:none;stroke:#262626;stroke-width:5;stroke-linecap:square;stroke-linejoin:round;stroke-miterlimit:10;stroke-dasharray:none;stroke-opacity:1"
       transform="matrix(0.13333333,0,0,-0.13333333,0,160)" />
    <path
       id="path22"
       d="m 275,250 h 12.18"
       style="fill:none;stroke:#262626;stroke-width:5;stroke-linecap:square;stroke-linejoin:round;stroke-miterlimit:10;stroke-dasharray:none;stroke-opacity:1"
       transform="matrix(0.13333333,0,0,-0.13333333,0,160)" />
    <path
       id="path23"
       d="m 275,532.086 h 12.18"
       style="fill:none;stroke:#262626;stroke-width:5;stroke-linecap:square;stroke-linejoin:round;stroke-miterlimit:10;stroke-dasharray:none;stroke-opacity:1"
       transform="matrix(0.13333333,0,0,-0.13333333,0,160)" />
    <path
       id="path24"
       d="m 275,814.172 h 12.18"
       style="fill:none;stroke:#262626;stroke-width:5;stroke-linecap:square;stroke-linejoin:round;stroke-miterlimit:10;stroke-dasharray:none;stroke-opacity:1"
       transform="matrix(0.13333333,0,0,-0.13333333,0,160)" />
    <path
       id="path25"
       d="m 275,1096.25 h 12.18"
       style="fill:none;stroke:#262626;stroke-width:5;stroke-linecap:square;stroke-linejoin:round;stroke-miterlimit:10;stroke-dasharray:none;stroke-opacity:1"
       transform="matrix(0.13333333,0,0,-0.13333333,0,160)" />
    <path
       id="path26"
       d="m 2.3318359,-6.1416016 c -0.5507812,0 -1.0664062,0.2578125 -1.38281246,0.6679688 -0.38671875,0.5390625 -0.5859375,1.359375 -0.5859375,2.4960937 0,2.07421879 0.67968746,3.17578129 1.96874996,3.17578129 1.2773438,0 1.9804688,-1.1015625 1.9804688,-3.11718749 0,-1.1953125 -0.1875,-1.9921875 -0.5859375,-2.5546875 -0.3164063,-0.421875 -0.8203125,-0.6679688 -1.3945313,-0.6679688 z m 0,0.65625 c 0.8085938,0 1.2070313,0.8320313 1.2070313,2.4960938 0,1.7460937 -0.3867188,2.56640624 -1.21875,2.56640624 -0.7851563,0 -1.1953125,-0.85546874 -1.1953125,-2.54296874 0,-1.6875 0.4101562,-2.5195313 1.2070312,-2.5195313 z M -4.6671875,-34.348633 c -0.5507813,0 -1.0664063,0.257813 -1.3828125,0.667969 -0.3867188,0.539062 -0.5859375,1.359375 -0.5859375,2.496094 0,2.074218 0.6796875,3.175781 1.96875,3.175781 1.2773437,0 1.9804687,-1.101563 1.9804687,-3.117188 0,-1.195312 -0.1875,-1.992187 -0.5859375,-2.554687 -0.3164062,-0.421875 -0.8203125,-0.667969 -1.3945312,-0.667969 z m 0,0.65625 c 0.8085937,0 1.2070312,0.832031 1.2070312,2.496094 0,1.746094 -0.3867187,2.566406 -1.21875,2.566406 -0.7851562,0 -1.1953125,-0.855469 -1.1953125,-2.542969 0,-1.6875 0.4101563,-2.519531 1.2070313,-2.519531 z m 4.01074219,4.605469 H -1.5353516 v 0.878906 h 0.87890629 z m 2.94726561,-3.492188 v 4.371094 h 0.75 v -6.140625 H 2.5486328 c -0.2695312,0.9375 -0.4335937,1.066406 -1.59374999,1.21875 v 0.550781 z m -6.9580078,-29.979492 c -0.5507813,0 -1.0664063,0.257813 -1.3828125,0.667969 -0.3867188,0.539063 -0.5859375,1.359375 -0.5859375,2.496094 0,2.074219 0.6796875,3.175781 1.96875,3.175781 1.2773437,0 1.9804687,-1.101562 1.9804687,-3.117187 0,-1.195313 -0.1875,-1.992188 -0.5859375,-2.554688 -0.3164062,-0.421875 -0.8203125,-0.667969 -1.3945312,-0.667969 z m 0,0.65625 c 0.8085937,0 1.2070312,0.832032 1.2070312,2.496094 0,1.746094 -0.3867187,2.566406 -1.21875,2.566406 -0.7851562,0 -1.1953125,-0.855468 -1.1953125,-2.542968 0,-1.6875 0.4101563,-2.519532 1.2070313,-2.519532 z m 4.01074219,4.605469 H -1.5353516 v 0.878906 h 0.87890629 z M 4.3884766,-57.15625 H 1.2126953 c 0.082031,-0.515625 0.3515625,-0.832031 1.0898438,-1.289062 l 0.8554687,-0.46875 c 0.84375,-0.46875 1.265625,-1.101563 1.265625,-1.851563 0,-0.515625 -0.1992187,-0.984375 -0.5507812,-1.324219 -0.3632813,-0.316406 -0.8085938,-0.46875 -1.3710938,-0.46875 -0.7617187,0 -1.3359375,0.269532 -1.66406249,0.796875 -0.2109375,0.328125 -0.3046875,0.703125 -0.328125,1.324219 H 1.2595703 c 0.023437,-0.410156 0.082031,-0.65625 0.1757813,-0.867187 0.1992187,-0.375 0.5859375,-0.597657 1.0429687,-0.597657 0.6796875,0 1.1835938,0.492188 1.1835938,1.148438 0,0.492187 -0.28125,0.925781 -0.8085938,1.230469 l -0.7851562,0.457031 c -1.25390629,0.714844 -1.62890629,1.300781 -1.68750004,2.636719 H 4.3884766 Z m -9.0556641,-33.609375 c -0.5507813,0 -1.0664063,0.257813 -1.3828125,0.667969 -0.3867188,0.539062 -0.5859375,1.359375 -0.5859375,2.496094 0,2.074218 0.6796875,3.175781 1.96875,3.175781 1.2773437,0 1.9804687,-1.101563 1.9804687,-3.117188 0,-1.195312 -0.1875,-1.992187 -0.5859375,-2.554687 -0.3164062,-0.421875 -0.8203125,-0.667969 -1.3945312,-0.667969 z m 0,0.65625 c 0.8085937,0 1.2070312,0.832031 1.2070312,2.496094 0,1.746094 -0.3867187,2.566406 -1.21875,2.566406 -0.7851562,0 -1.1953125,-0.855469 -1.1953125,-2.542969 0,-1.6875 0.4101563,-2.519531 1.2070313,-2.519531 z m 4.01074219,4.605469 H -1.5353516 V -84.625 h 0.87890629 z m 2.61914061,-1.945313 h 0.4101563 c 0.8203125,0 1.2539062,0.375 1.2539062,1.113282 0,0.773437 -0.46875,1.242187 -1.2421875,1.242187 -0.8320312,0 -1.2304687,-0.410156 -1.2773437,-1.3125 H 0.35722656 c 0.0351563,0.492188 0.1171875,0.808594 0.26953125,1.089844 0.31640625,0.585937 0.90234379,0.890625 1.72265629,0.890625 1.2421875,0 2.0390625,-0.75 2.0390625,-1.910156 0,-0.785157 -0.3046875,-1.207032 -1.0195313,-1.464844 0.5625,-0.234375 0.84375,-0.65625 0.84375,-1.277344 0,-1.054687 -0.6914062,-1.6875 -1.8398437,-1.6875 -1.21875,0 -1.86328129,0.679688 -1.88671879,1.980469 H 1.2361328 c 0.011719,-0.375 0.046875,-0.585938 0.1289063,-0.773438 0.1757812,-0.351562 0.5507812,-0.550781 1.0195312,-0.550781 0.65625,0 1.0546875,0.398438 1.0546875,1.054688 0,0.433593 -0.1523437,0.703125 -0.4804687,0.84375 -0.1992188,0.08203 -0.4804688,0.117187 -0.9960938,0.128906 z m 0,0"
       style="fill:#262626;fill-opacity:1;fill-rule:nonzero;stroke:none"
       aria-label="0&#10;0.1&#10;0.2&#10;0.3"
       transform="matrix(1.3333333,0,0,1.3333333,27.066667,131.33333)" />
    <path
       id="path27"
       d="m 4.1025391,-3.5380859 c -0.011719,-0.9609375 -0.65625,-1.5 -1.78125,-1.5 -1.1367188,0 -1.87500004,0.5859375 -1.87500004,1.5 0,0.7617187 0.38671875,1.125 1.54687504,1.40625 l 0.7265625,0.1757812 c 0.5507812,0.1289063 0.7617187,0.328125 0.7617187,0.6796875 0,0.46875001 -0.4570312,0.77343751 -1.1367187,0.77343751 -0.421875,0 -0.7851563,-0.1171875 -0.9726563,-0.328125 -0.1289062,-0.140625 -0.1875,-0.28125001 -0.234375,-0.62109371 H 0.31738281 c 0.0351563,1.12499996 0.6796875,1.66406246 1.95703129,1.66406246 1.2304687,0 2.015625,-0.609375 2.015625,-1.54687496 0,-0.7265625 -0.4101563,-1.1367188 -1.3828125,-1.3710938 l -0.75,-0.1757812 c -0.6328125,-0.1523438 -0.9023438,-0.3515625 -0.9023438,-0.703125 0,-0.4570313 0.3984375,-0.7382813 1.0429688,-0.7382813 0.6210937,0 0.9609375,0.2695313 0.9726562,0.7851563 z m 2.9501953,-1.359375 H 6.2441406 V -6.2451172 H 5.4707031 v 1.3476563 H 4.8027344 v 0.6328125 h 0.6679687 v 3.70312496 c 0,0.50390625 0.3398438,0.7734375 0.9375,0.7734375 0.2109375,0 0.375,-0.0117188 0.6445313,-0.0585938 v -0.65625 c -0.1171875,0.0234375 -0.2226563,0.0351563 -0.375,0.0351563 -0.3398438,0 -0.4335938,-0.09375 -0.4335938,-0.43359375 V -4.2646484 h 0.8085938 z m 5.2265626,4.44140621 c -0.08203,0.0117188 -0.117188,0.0117188 -0.164063,0.0117188 -0.28125,0 -0.421875,-0.12890625 -0.421875,-0.375 V -3.7021484 c 0,-0.8671875 -0.644531,-1.3359375 -1.8515621,-1.3359375 -0.7148438,0 -1.2890625,0.1992187 -1.6171875,0.5742187 -0.234375,0.2460938 -0.328125,0.5273438 -0.3398438,1.0195313 h 0.7851563 c 0.058594,-0.609375 0.421875,-0.8789063 1.1484375,-0.8789063 0.7148436,0 1.0898436,0.2695313 1.0898436,0.7382813 v 0.1992187 c 0,0.3398438 -0.175781,0.4570313 -0.808594,0.5390625 -1.1015621,0.140625 -1.2773434,0.1875 -1.5703121,0.3046875 -0.5742188,0.2460938 -0.8554688,0.6679688 -0.8554688,1.3125 0,0.87890626 0.609375,1.44140626 1.6054688,1.44140626 0.609375,0 1.1132811,-0.2109374975 1.6640621,-0.71484375 0.05859,0.5039062525 0.292969,0.71484375 0.796875,0.71484375 0.175782,0 0.28125,-0.0117188 0.539063,-0.0820313 z M 10.908203,-1.5458984 c 0,0.2695312 -0.07031,0.421875 -0.304687,0.64453121 -0.316407,0.28125 -0.7031254,0.43359375 -1.1601566,0.43359375 -0.609375,0 -0.9609375,-0.29296875 -0.9609375,-0.78515626 0,-0.515625 0.3398437,-0.7734375 1.171875,-0.9023437 0.8437501,-0.1054688 0.9960941,-0.140625 1.2539061,-0.2695313 z m 3.94336,-3.3515625 h -0.808594 v -1.3476563 h -0.773438 v 1.3476563 h -0.667968 v 0.6328125 h 0.667968 v 3.70312496 c 0,0.50390625 0.339844,0.7734375 0.9375,0.7734375 0.210938,0 0.375,-0.0117188 0.644532,-0.0585938 v -0.65625 c -0.117188,0.0234375 -0.222657,0.0351563 -0.375,0.0351563 -0.339844,0 -0.433594,-0.09375 -0.433594,-0.43359375 V -4.2646484 h 0.808594 z m 1.625976,0 H 15.692383 V 9.765625e-4 h 0.785156 z m 0,-1.921875 h -0.785156 v 0.984375 h 0.785156 z m 3.213867,1.78125 c -1.382812,0 -2.203125,0.984375 -2.203125,2.625 0,1.65234371 0.820313,2.62499996 2.214844,2.62499996 1.382812,0 2.214844,-0.97265625 2.214844,-2.58984376 0,-1.6992187 -0.808594,-2.6601562 -2.226563,-2.6601562 z m 0.01172,0.7148437 c 0.878906,0 1.40625,0.7265625 1.40625,1.9453125 0,1.1484375 -0.550781,1.87500001 -1.40625,1.87500001 -0.867188,0 -1.40625,-0.72656251 -1.40625,-1.91015621 0,-1.1835938 0.539062,-1.9101563 1.40625,-1.9101563 z m 3.298828,-0.5742187 V 9.765625e-4 H 23.78711 V -2.7060547 c 0,-0.9960937 0.527344,-1.6523437 1.324219,-1.6523437 0.621094,0 1.007813,0.375 1.007813,0.9609375 V 9.765625e-4 h 0.785156 V -3.7021484 c 0,-0.8085938 -0.609375,-1.3359375 -1.558594,-1.3359375 -0.726562,0 -1.195312,0.28125 -1.628906,0.9609375 v -0.8203125 z m 9.547852,4.44140621 c -0.08203,0.0117188 -0.117188,0.0117188 -0.164063,0.0117188 -0.28125,0 -0.421875,-0.12890625 -0.421875,-0.375 V -3.7021484 c 0,-0.8671875 -0.644531,-1.3359375 -1.851562,-1.3359375 -0.714844,0 -1.289063,0.1992187 -1.617188,0.5742187 -0.234375,0.2460938 -0.328125,0.5273438 -0.339844,1.0195313 h 0.785157 c 0.05859,-0.609375 0.421875,-0.8789063 1.148437,-0.8789063 0.714844,0 1.089844,0.2695313 1.089844,0.7382813 v 0.1992187 c 0,0.3398438 -0.175781,0.4570313 -0.808594,0.5390625 -1.101562,0.140625 -1.277344,0.1875 -1.570312,0.3046875 -0.574219,0.2460938 -0.855469,0.6679688 -0.855469,1.3125 0,0.87890626 0.609375,1.44140626 1.605469,1.44140626 0.609375,0 1.113281,-0.2109374975 1.664062,-0.71484375 0.05859,0.5039062525 0.292969,0.71484375 0.796875,0.71484375 0.175781,0 0.28125,-0.0117188 0.539063,-0.0820313 z M 31.178711,-1.5458984 c 0,0.2695312 -0.07031,0.421875 -0.304688,0.64453121 -0.316406,0.28125 -0.703125,0.43359375 -1.160156,0.43359375 -0.609375,0 -0.960937,-0.29296875 -0.960937,-0.78515626 0,-0.515625 0.339843,-0.7734375 1.171875,-0.9023437 0.84375,-0.1054688 0.996093,-0.140625 1.253906,-0.2695313 z m 2.208984,-3.3515625 V 9.765625e-4 h 0.785157 V -2.5419922 c 0.01172,-1.1835937 0.492187,-1.6992187 1.570312,-1.6757812 v -0.796875 c -0.128906,-0.011719 -0.199219,-0.023437 -0.292969,-0.023437 -0.503906,0 -0.890625,0.2929687 -1.335937,1.03125 v -0.890625 z m 6.102539,0 -1.359375,3.8085937 -1.253906,-3.8085937 h -0.832031 l 1.652344,4.92187496 -0.292969,0.7734375 C 37.263672,1.1376953 37.099609,1.2783203 36.771484,1.2783203 c -0.128906,0 -0.246093,-0.023437 -0.410156,-0.058594 v 0.703125 c 0.164063,0.082031 0.316406,0.1171875 0.527344,0.1171875 0.246094,0 0.515625,-0.082031 0.726562,-0.234375 0.246094,-0.1757813 0.386719,-0.3867188 0.539063,-0.7734375 l 2.167969,-5.9296875 z m 8.071289,2.8476562 0.703125,2.0507812625 h 0.972657 L 46.84668,-6.8193359 h -1.125 L 43.295898,9.765625e-4 H 44.22168 L 44.936523,-2.0498047 Z m -0.234375,-0.7265625 h -2.179687 l 1.125,-3.1054687 z m 8.229493,-1.921875 c -0.269532,-1.5 -1.125,-2.2265625 -2.625,-2.2265625 -0.914063,0 -1.652344,0.28125 -2.15625,0.84375 -0.621094,0.6796875 -0.960938,1.6523438 -0.960938,2.7539063 0,1.125 0.351563,2.0859375 0.984375,2.75390621 0.539063,0.5390625 1.207031,0.78515625 2.097656,0.78515625 1.664063,0 2.601563,-0.890625 2.800782,-2.69531246 h -0.890625 c -0.08203,0.46875 -0.175782,0.7851562 -0.316407,1.0546875 -0.28125,0.56249996 -0.855468,0.87890621 -1.582031,0.87890621 -1.359375,0 -2.214844,-1.08984371 -2.214844,-2.78906251 0,-1.7460937 0.808594,-2.8242187 2.132813,-2.8242187 0.550781,0 1.066406,0.1640625 1.347656,0.4335937 0.257813,0.234375 0.398438,0.515625 0.492188,1.03125 z m 2.296875,1.7578125 h 2.25 c 0.773437,0 1.125,0.375 1.125,1.21875 l -0.01172,0.609375 c 0,0.42187501 0.07031,0.83203126 0.199219,1.1132812625 h 1.054687 V -0.20996094 c -0.328125,-0.234375 -0.398437,-0.46875 -0.410156,-1.38281246 -0.01172,-1.1132813 -0.1875,-1.453125 -0.925781,-1.7695313 0.761718,-0.3867187 1.078125,-0.84375 1.078125,-1.6289062 0,-1.1835938 -0.738282,-1.828125 -2.085938,-1.828125 H 56.986328 V 9.765625e-4 h 0.867188 z m 0,-0.7617187 v -2.34375 h 2.109375 c 0.480468,0 0.761718,0.070312 0.984375,0.2578125 0.234375,0.1992187 0.351562,0.5039062 0.351562,0.9023437 0,0.8203125 -0.410156,1.1835938 -1.335937,1.1835938 z m 0,0"
       style="fill:#262626;fill-opacity:1;fill-rule:nonzero;stroke:none"
       aria-label="stationary ACR"
       transform="matrix(0,-1.3333333,1.3333333,0,12.666667,111.33333)" />
    <path
       id="path28"
       d="m 274.855,998.523 0.145,-0.285 30.5,-58.859 30.5,-46.867 30.5,-49.934 30.5,-35.723 30.5,-42.207 30.5,-42.019 30.5,-29.641 30.5,-28.484 30.5,-24.445 30.5,-26.52 30.5,-11.504 30.5,-23.156 30.5,-16.09 30.5,-16.269 30.5,-12.176 30.5,-13.254 30.5,-7.285 30.5,-13.375 30.5,-8.981 30.5,-7.187 30.5,-5.453 30.5,-8.895 30.5,-4.418 30.5,-7.976 30.5,-4.793 30.5,-4.997 30.5,-3.109 30.5,-3.785 30.5,-4.387 30.5,-4.027 30.5,-1.656 30.5,-3.231 30.5,-2.637 30.5,-2.664 30.5,-0.824 30.5,-4.765 30.5,-1.356 30.5,-1.719 30.5,-0.711 30.5,-2.968"
       style="fill:none;stroke:#e61a1a;stroke-width:12;stroke-linecap:butt;stroke-linejoin:round;stroke-miterlimit:10;stroke-dasharray:none;stroke-opacity:1"
       transform="matrix(0.13333333,0,0,-0.13333333,0,160)" />
    <path
       id="path29"
       d="m 275,1004.74 c 3.59,0 6.5,-2.91 6.5,-6.498 v 0 c 0,-3.594 -2.91,-6.5 -6.5,-6.5 -3.59,0 -6.5,2.906 -6.5,6.5 0,3.588 2.91,6.498 6.5,6.498 z m 0,12 c -10.215,0 -18.5,-8.28 -18.5,-18.498 0,-10.219 8.285,-18.5 18.5,-18.5 10.215,0 18.5,8.281 18.5,18.5 v 0 c 0,10.218 -8.285,18.498 -18.5,18.498"
       style="fill:#e61a1a;fill-opacity:1;fill-rule:nonzero;stroke:none"
       transform="matrix(0.13333333,0,0,-0.13333333,0,160)" />
    <path
       id="path30"
       d="m 305.5,945.883 c 3.59,0 6.5,-2.91 6.5,-6.5 v 0 c 0,-3.59 -2.91,-6.5 -6.5,-6.5 -3.59,0 -6.5,2.91 -6.5,6.5 0,3.59 2.91,6.5 6.5,6.5 z m 0,12 c -10.215,0 -18.5,-8.285 -18.5,-18.5 0,-10.215 8.285,-18.5 18.5,-18.5 10.215,0 18.5,8.285 18.5,18.5 v 0 c 0,10.215 -8.285,18.5 -18.5,18.5"
       style="fill:#e61a1a;fill-opacity:1;fill-rule:nonzero;stroke:none"
       transform="matrix(0.13333333,0,0,-0.13333333,0,160)" />
    <path
       id="path31"
       d="m 336,899.012 c 3.59,0 6.5,-2.91 6.5,-6.5 v 0 c 0,-3.59 -2.91,-6.5 -6.5,-6.5 -3.59,0 -6.5,2.91 -6.5,6.5 0,3.59 2.91,6.5 6.5,6.5 z m 0,12 c -10.215,0 -18.5,-8.285 -18.5,-18.5 0,-10.215 8.285,-18.5 18.5,-18.5 10.215,0 18.5,8.285 18.5,18.5 v 0 c 0,10.215 -8.285,18.5 -18.5,18.5"
       style="fill:#e61a1a;fill-opacity:1;fill-rule:nonzero;stroke:none"
       transform="matrix(0.13333333,0,0,-0.13333333,0,160)" />
    <path
       id="path32"
       d="m 366.5,849.078 c 3.59,0 6.5,-2.91 6.5,-6.5 v 0 c 0,-3.59 -2.91,-6.5 -6.5,-6.5 -3.59,0 -6.5,2.91 -6.5,6.5 0,3.59 2.91,6.5 6.5,6.5 z m 0,12 c -10.215,0 -18.5,-8.285 -18.5,-18.5 0,-10.215 8.285,-18.5 18.5,-18.5 10.215,0 18.5,8.285 18.5,18.5 v 0 c 0,10.215 -8.285,18.5 -18.5,18.5"
       style="fill:#e61a1a;fill-opacity:1;fill-rule:nonzero;stroke:none"
       transform="matrix(0.13333333,0,0,-0.13333333,0,160)" />
    <path
       id="path33"
       d="m 397,813.352 c 3.59,0 6.5,-2.911 6.5,-6.5 v 0 c 0,-3.59 -2.91,-6.5 -6.5,-6.5 -3.59,0 -6.5,2.91 -6.5,6.5 0,3.589 2.91,6.5 6.5,6.5 z m 0,12 c -10.215,0 -18.5,-8.286 -18.5,-18.5 0,-10.215 8.285,-18.5 18.5,-18.5 10.215,0 18.5,8.285 18.5,18.5 v 0 c 0,10.214 -8.285,18.5 -18.5,18.5"
       style="fill:#e61a1a;fill-opacity:1;fill-rule:nonzero;stroke:none"
       transform="matrix(0.13333333,0,0,-0.13333333,0,160)" />
    <path
       id="path34"
       d="m 427.5,771.148 c 3.59,0 6.5,-2.91 6.5,-6.5 v 0 c 0,-3.589 -2.91,-6.5 -6.5,-6.5 -3.59,0 -6.5,2.911 -6.5,6.5 0,3.59 2.91,6.5 6.5,6.5 z m 0,12 c -10.215,0 -18.5,-8.285 -18.5,-18.5 0,-10.214 8.285,-18.5 18.5,-18.5 10.215,0 18.5,8.286 18.5,18.5 v 0 c 0,10.215 -8.285,18.5 -18.5,18.5"
       style="fill:#e61a1a;fill-opacity:1;fill-rule:nonzero;stroke:none"
       transform="matrix(0.13333333,0,0,-0.13333333,0,160)" />
    <path
       id="path35"
       d="m 458,729.129 c 3.59,0 6.5,-2.91 6.5,-6.5 v 0 c 0,-3.59 -2.91,-6.5 -6.5,-6.5 -3.59,0 -6.5,2.91 -6.5,6.5 0,3.59 2.91,6.5 6.5,6.5 z m 0,12 c -10.215,0 -18.5,-8.285 -18.5,-18.5 0,-10.215 8.285,-18.5 18.5,-18.5 10.215,0 18.5,8.285 18.5,18.5 v 0 c 0,10.215 -8.285,18.5 -18.5,18.5"
       style="fill:#e61a1a;fill-opacity:1;fill-rule:nonzero;stroke:none"
       transform="matrix(0.13333333,0,0,-0.13333333,0,160)" />
    <path
       id="path36"
       d="m 488.5,699.488 c 3.59,0 6.5,-2.91 6.5,-6.5 v 0 c 0,-3.59 -2.91,-6.5 -6.5,-6.5 -3.59,0 -6.5,2.91 -6.5,6.5 0,3.59 2.91,6.5 6.5,6.5 z m 0,12 c -10.215,0 -18.5,-8.285 -18.5,-18.5 0,-10.215 8.285,-18.5 18.5,-18.5 10.215,0 18.5,8.285 18.5,18.5 v 0 c 0,10.215 -8.285,18.5 -18.5,18.5"
       style="fill:#e61a1a;fill-opacity:1;fill-rule:nonzero;stroke:none"
       transform="matrix(0.13333333,0,0,-0.13333333,0,160)" />
    <path
       id="path37"
       d="m 519,671.004 c 3.59,0 6.5,-2.91 6.5,-6.5 v 0 c 0,-3.59 -2.91,-6.5 -6.5,-6.5 -3.59,0 -6.5,2.91 -6.5,6.5 0,3.59 2.91,6.5 6.5,6.5 z m 0,12 c -10.215,0 -18.5,-8.285 -18.5,-18.5 0,-10.215 8.285,-18.5 18.5,-18.5 10.215,0 18.5,8.285 18.5,18.5 v 0 c 0,10.215 -8.285,18.5 -18.5,18.5"
       style="fill:#e61a1a;fill-opacity:1;fill-rule:nonzero;stroke:none"
       transform="matrix(0.13333333,0,0,-0.13333333,0,160)" />
    <path
       id="path38"
       d="m 549.5,646.559 c 3.59,0 6.5,-2.911 6.5,-6.5 v 0 c 0,-3.59 -2.91,-6.5 -6.5,-6.5 -3.59,0 -6.5,2.91 -6.5,6.5 0,3.589 2.91,6.5 6.5,6.5 z m 0,12 c -10.215,0 -18.5,-8.286 -18.5,-18.5 0,-10.215 8.285,-18.5 18.5,-18.5 10.215,0 18.5,8.285 18.5,18.5 v 0 c 0,10.214 -8.285,18.5 -18.5,18.5"
       style="fill:#e61a1a;fill-opacity:1;fill-rule:nonzero;stroke:none"
       transform="matrix(0.13333333,0,0,-0.13333333,0,160)" />
    <path
       id="path39"
       d="m 580,620.043 c 3.59,0 6.5,-2.91 6.5,-6.5 v 0 c 0,-3.594 -2.91,-6.5 -6.5,-6.5 -3.59,0 -6.5,2.906 -6.5,6.5 0,3.59 2.91,6.5 6.5,6.5 z m 0,12 c -10.215,0 -18.5,-8.285 -18.5,-18.5 0,-10.219 8.285,-18.5 18.5,-18.5 10.215,0 18.5,8.281 18.5,18.5 v 0 c 0,10.215 -8.285,18.5 -18.5,18.5"
       style="fill:#e61a1a;fill-opacity:1;fill-rule:nonzero;stroke:none"
       transform="matrix(0.13333333,0,0,-0.13333333,0,160)" />
    <path
       id="path40"
       d="m 610.5,608.535 c 3.59,0 6.5,-2.91 6.5,-6.5 v 0 c 0,-3.59 -2.91,-6.5 -6.5,-6.5 -3.59,0 -6.5,2.91 -6.5,6.5 0,3.59 2.91,6.5 6.5,6.5 z m 0,12 c -10.215,0 -18.5,-8.285 -18.5,-18.5 0,-10.215 8.285,-18.5 18.5,-18.5 10.215,0 18.5,8.285 18.5,18.5 v 0 c 0,10.215 -8.285,18.5 -18.5,18.5"
       style="fill:#e61a1a;fill-opacity:1;fill-rule:nonzero;stroke:none"
       transform="matrix(0.13333333,0,0,-0.13333333,0,160)" />
    <path
       id="path41"
       d="m 641,585.383 c 3.59,0 6.5,-2.91 6.5,-6.5 v 0 c 0,-3.59 -2.91,-6.5 -6.5,-6.5 -3.59,0 -6.5,2.91 -6.5,6.5 0,3.59 2.91,6.5 6.5,6.5 z m 0,12 c -10.215,0 -18.5,-8.285 -18.5,-18.5 0,-10.215 8.285,-18.5 18.5,-18.5 10.215,0 18.5,8.285 18.5,18.5 v 0 c 0,10.215 -8.285,18.5 -18.5,18.5"
       style="fill:#e61a1a;fill-opacity:1;fill-rule:nonzero;stroke:none"
       transform="matrix(0.13333333,0,0,-0.13333333,0,160)" />
    <path
       id="path42"
       d="m 671.5,569.293 c 3.59,0 6.5,-2.91 6.5,-6.5 v 0 c 0,-3.59 -2.91,-6.5 -6.5,-6.5 -3.59,0 -6.5,2.91 -6.5,6.5 0,3.59 2.91,6.5 6.5,6.5 z m 0,12 c -10.215,0 -18.5,-8.285 -18.5,-18.5 0,-10.215 8.285,-18.5 18.5,-18.5 10.215,0 18.5,8.285 18.5,18.5 v 0 c 0,10.215 -8.285,18.5 -18.5,18.5"
       style="fill:#e61a1a;fill-opacity:1;fill-rule:nonzero;stroke:none"
       transform="matrix(0.13333333,0,0,-0.13333333,0,160)" />
    <path
       id="path43"
       d="m 702,553.02 c 3.59,0 6.5,-2.907 6.5,-6.5 v 0 c 0,-3.59 -2.91,-6.5 -6.5,-6.5 -3.59,0 -6.5,2.91 -6.5,6.5 0,3.593 2.91,6.5 6.5,6.5 z m 0,12 c -10.215,0 -18.5,-8.282 -18.5,-18.5 0,-10.215 8.285,-18.5 18.5,-18.5 10.215,0 18.5,8.285 18.5,18.5 v 0 c 0,10.218 -8.285,18.5 -18.5,18.5"
       style="fill:#e61a1a;fill-opacity:1;fill-rule:nonzero;stroke:none"
       transform="matrix(0.13333333,0,0,-0.13333333,0,160)" />
    <path
       id="path44"
       d="m 732.5,540.848 c 3.59,0 6.5,-2.91 6.5,-6.5 v 0 c 0,-3.59 -2.91,-6.5 -6.5,-6.5 -3.59,0 -6.5,2.91 -6.5,6.5 0,3.59 2.91,6.5 6.5,6.5 z m 0,12 c -10.215,0 -18.5,-8.285 -18.5,-18.5 0,-10.215 8.285,-18.5 18.5,-18.5 10.215,0 18.5,8.285 18.5,18.5 v 0 c 0,10.215 -8.285,18.5 -18.5,18.5"
       style="fill:#e61a1a;fill-opacity:1;fill-rule:nonzero;stroke:none"
       transform="matrix(0.13333333,0,0,-0.13333333,0,160)" />
    <path
       id="path45"
       d="m 763,527.59 c 3.59,0 6.5,-2.906 6.5,-6.5 v 0 c 0,-3.59 -2.91,-6.5 -6.5,-6.5 -3.59,0 -6.5,2.91 -6.5,6.5 0,3.594 2.91,6.5 6.5,6.5 z m 0,12 c -10.215,0 -18.5,-8.281 -18.5,-18.5 0,-10.215 8.285,-18.5 18.5,-18.5 10.215,0 18.5,8.285 18.5,18.5 v 0 c 0,10.219 -8.285,18.5 -18.5,18.5"
       style="fill:#e61a1a;fill-opacity:1;fill-rule:nonzero;stroke:none"
       transform="matrix(0.13333333,0,0,-0.13333333,0,160)" />
    <path
       id="path46"
       d="m 793.5,520.305 c 3.59,0 6.5,-2.91 6.5,-6.5 v 0 c 0,-3.59 -2.91,-6.5 -6.5,-6.5 -3.59,0 -6.5,2.91 -6.5,6.5 0,3.59 2.91,6.5 6.5,6.5 z m 0,12 c -10.215,0 -18.5,-8.285 -18.5,-18.5 0,-10.215 8.285,-18.5 18.5,-18.5 10.215,0 18.5,8.285 18.5,18.5 v 0 c 0,10.215 -8.285,18.5 -18.5,18.5"
       style="fill:#e61a1a;fill-opacity:1;fill-rule:nonzero;stroke:none"
       transform="matrix(0.13333333,0,0,-0.13333333,0,160)" />
    <path
       id="path47"
       d="m 824,506.93 c 3.59,0 6.5,-2.91 6.5,-6.5 v 0 c 0,-3.59 -2.91,-6.5 -6.5,-6.5 -3.59,0 -6.5,2.91 -6.5,6.5 0,3.59 2.91,6.5 6.5,6.5 z m 0,12 c -10.215,0 -18.5,-8.285 -18.5,-18.5 0,-10.215 8.285,-18.5 18.5,-18.5 10.215,0 18.5,8.285 18.5,18.5 v 0 c 0,10.215 -8.285,18.5 -18.5,18.5"
       style="fill:#e61a1a;fill-opacity:1;fill-rule:nonzero;stroke:none"
       transform="matrix(0.13333333,0,0,-0.13333333,0,160)" />
    <path
       id="path48"
       d="m 854.5,497.949 c 3.59,0 6.5,-2.91 6.5,-6.5 v 0 c 0,-3.59 -2.91,-6.5 -6.5,-6.5 -3.59,0 -6.5,2.91 -6.5,6.5 0,3.59 2.91,6.5 6.5,6.5 z m 0,12 c -10.215,0 -18.5,-8.285 -18.5,-18.5 0,-10.215 8.285,-18.5 18.5,-18.5 10.215,0 18.5,8.285 18.5,18.5 v 0 c 0,10.215 -8.285,18.5 -18.5,18.5"
       style="fill:#e61a1a;fill-opacity:1;fill-rule:nonzero;stroke:none"
       transform="matrix(0.13333333,0,0,-0.13333333,0,160)" />
    <path
       id="path49"
       d="m 885,490.758 c 3.59,0 6.5,-2.91 6.5,-6.5 v 0 c 0,-3.59 -2.91,-6.5 -6.5,-6.5 -3.59,0 -6.5,2.91 -6.5,6.5 0,3.59 2.91,6.5 6.5,6.5 z m 0,12 c -10.215,0 -18.5,-8.285 -18.5,-18.5 0,-10.215 8.285,-18.5 18.5,-18.5 10.215,0 18.5,8.285 18.5,18.5 v 0 c 0,10.215 -8.285,18.5 -18.5,18.5"
       style="fill:#e61a1a;fill-opacity:1;fill-rule:nonzero;stroke:none"
       transform="matrix(0.13333333,0,0,-0.13333333,0,160)" />
    <path
       id="path50"
       d="m 915.5,485.313 c 3.59,0 6.5,-2.911 6.5,-6.5 v 0 c 0,-3.594 -2.91,-6.5 -6.5,-6.5 -3.59,0 -6.5,2.906 -6.5,6.5 0,3.589 2.91,6.5 6.5,6.5 z m 0,12 c -10.215,0 -18.5,-8.286 -18.5,-18.5 0,-10.219 8.285,-18.5 18.5,-18.5 10.215,0 18.5,8.281 18.5,18.5 v 0 c 0,10.214 -8.285,18.5 -18.5,18.5"
       style="fill:#e61a1a;fill-opacity:1;fill-rule:nonzero;stroke:none"
       transform="matrix(0.13333333,0,0,-0.13333333,0,160)" />
    <path
       id="path51"
       d="m 946,476.414 c 3.59,0 6.5,-2.91 6.5,-6.5 v 0 c 0,-3.59 -2.91,-6.5 -6.5,-6.5 -3.59,0 -6.5,2.91 -6.5,6.5 0,3.59 2.91,6.5 6.5,6.5 z m 0,12 c -10.215,0 -18.5,-8.285 -18.5,-18.5 0,-10.215 8.285,-18.5 18.5,-18.5 10.215,0 18.5,8.285 18.5,18.5 v 0 c 0,10.215 -8.285,18.5 -18.5,18.5"
       style="fill:#e61a1a;fill-opacity:1;fill-rule:nonzero;stroke:none"
       transform="matrix(0.13333333,0,0,-0.13333333,0,160)" />
    <path
       id="path52"
       d="m 976.5,471.996 c 3.59,0 6.5,-2.91 6.5,-6.5 v 0 c 0,-3.59 -2.91,-6.5 -6.5,-6.5 -3.59,0 -6.5,2.91 -6.5,6.5 0,3.59 2.91,6.5 6.5,6.5 z m 0,12 c -10.215,0 -18.5,-8.285 -18.5,-18.5 0,-10.215 8.285,-18.5 18.5,-18.5 10.215,0 18.5,8.285 18.5,18.5 v 0 c 0,10.215 -8.285,18.5 -18.5,18.5"
       style="fill:#e61a1a;fill-opacity:1;fill-rule:nonzero;stroke:none"
       transform="matrix(0.13333333,0,0,-0.13333333,0,160)" />
    <path
       id="path53"
       d="m 1007,464.02 c 3.59,0 6.5,-2.911 6.5,-6.5 v 0 c 0,-3.59 -2.91,-6.5 -6.5,-6.5 -3.59,0 -6.5,2.91 -6.5,6.5 0,3.589 2.91,6.5 6.5,6.5 z m 0,12 c -10.215,0 -18.5,-8.286 -18.5,-18.5 0,-10.215 8.285,-18.5 18.5,-18.5 10.21,0 18.5,8.285 18.5,18.5 v 0 c 0,10.214 -8.29,18.5 -18.5,18.5"
       style="fill:#e61a1a;fill-opacity:1;fill-rule:nonzero;stroke:none"
       transform="matrix(0.13333333,0,0,-0.13333333,0,160)" />
    <path
       id="path54"
       d="m 1037.5,459.227 c 3.59,0 6.5,-2.911 6.5,-6.5 v 0 c 0,-3.59 -2.91,-6.5 -6.5,-6.5 -3.59,0 -6.5,2.91 -6.5,6.5 0,3.589 2.91,6.5 6.5,6.5 z m 0,12 c -10.21,0 -18.5,-8.286 -18.5,-18.5 0,-10.215 8.29,-18.5 18.5,-18.5 10.21,0 18.5,8.285 18.5,18.5 v 0 c 0,10.214 -8.29,18.5 -18.5,18.5"
       style="fill:#e61a1a;fill-opacity:1;fill-rule:nonzero;stroke:none"
       transform="matrix(0.13333333,0,0,-0.13333333,0,160)" />
    <path
       id="path55"
       d="m 1068,454.227 c 3.59,0 6.5,-2.911 6.5,-6.5 v 0 c 0,-3.59 -2.91,-6.5 -6.5,-6.5 -3.59,0 -6.5,2.91 -6.5,6.5 0,3.589 2.91,6.5 6.5,6.5 z m 0,12 c -10.21,0 -18.5,-8.286 -18.5,-18.5 0,-10.215 8.29,-18.5 18.5,-18.5 10.21,0 18.5,8.285 18.5,18.5 v 0 c 0,10.214 -8.29,18.5 -18.5,18.5"
       style="fill:#e61a1a;fill-opacity:1;fill-rule:nonzero;stroke:none"
       transform="matrix(0.13333333,0,0,-0.13333333,0,160)" />
    <path
       id="path56"
       d="m 1098.5,451.117 c 3.59,0 6.5,-2.91 6.5,-6.5 v 0 c 0,-3.59 -2.91,-6.5 -6.5,-6.5 -3.59,0 -6.5,2.91 -6.5,6.5 0,3.59 2.91,6.5 6.5,6.5 z m 0,12 c -10.21,0 -18.5,-8.285 -18.5,-18.5 0,-10.215 8.29,-18.5 18.5,-18.5 10.21,0 18.5,8.285 18.5,18.5 v 0 c 0,10.215 -8.29,18.5 -18.5,18.5"
       style="fill:#e61a1a;fill-opacity:1;fill-rule:nonzero;stroke:none"
       transform="matrix(0.13333333,0,0,-0.13333333,0,160)" />
    <path
       id="path57"
       d="m 1129,447.336 c 3.59,0 6.5,-2.91 6.5,-6.5 v 0 c 0,-3.59 -2.91,-6.5 -6.5,-6.5 -3.59,0 -6.5,2.91 -6.5,6.5 0,3.59 2.91,6.5 6.5,6.5 z m 0,12 c -10.21,0 -18.5,-8.285 -18.5,-18.5 0,-10.215 8.29,-18.5 18.5,-18.5 10.21,0 18.5,8.285 18.5,18.5 v 0 c 0,10.215 -8.29,18.5 -18.5,18.5"
       style="fill:#e61a1a;fill-opacity:1;fill-rule:nonzero;stroke:none"
       transform="matrix(0.13333333,0,0,-0.13333333,0,160)" />
    <path
       id="path58"
       d="m 1159.5,442.949 c 3.59,0 6.5,-2.91 6.5,-6.5 v 0 c 0,-3.59 -2.91,-6.5 -6.5,-6.5 -3.59,0 -6.5,2.91 -6.5,6.5 0,3.59 2.91,6.5 6.5,6.5 z m 0,12 c -10.21,0 -18.5,-8.285 -18.5,-18.5 0,-10.215 8.29,-18.5 18.5,-18.5 10.21,0 18.5,8.285 18.5,18.5 v 0 c 0,10.215 -8.29,18.5 -18.5,18.5"
       style="fill:#e61a1a;fill-opacity:1;fill-rule:nonzero;stroke:none"
       transform="matrix(0.13333333,0,0,-0.13333333,0,160)" />
    <path
       id="path59"
       d="m 1190,438.922 c 3.59,0 6.5,-2.91 6.5,-6.5 v 0 c 0,-3.59 -2.91,-6.5 -6.5,-6.5 -3.59,0 -6.5,2.91 -6.5,6.5 0,3.59 2.91,6.5 6.5,6.5 z m 0,12 c -10.21,0 -18.5,-8.285 -18.5,-18.5 0,-10.215 8.29,-18.5 18.5,-18.5 10.21,0 18.5,8.285 18.5,18.5 v 0 c 0,10.215 -8.29,18.5 -18.5,18.5"
       style="fill:#e61a1a;fill-opacity:1;fill-rule:nonzero;stroke:none"
       transform="matrix(0.13333333,0,0,-0.13333333,0,160)" />
    <path
       id="path60"
       d="m 1220.5,437.266 c 3.59,0 6.5,-2.911 6.5,-6.5 v 0 c 0,-3.59 -2.91,-6.5 -6.5,-6.5 -3.59,0 -6.5,2.91 -6.5,6.5 0,3.589 2.91,6.5 6.5,6.5 z m 0,12 c -10.21,0 -18.5,-8.286 -18.5,-18.5 0,-10.215 8.29,-18.5 18.5,-18.5 10.21,0 18.5,8.285 18.5,18.5 v 0 c 0,10.214 -8.29,18.5 -18.5,18.5"
       style="fill:#e61a1a;fill-opacity:1;fill-rule:nonzero;stroke:none"
       transform="matrix(0.13333333,0,0,-0.13333333,0,160)" />
    <path
       id="path61"
       d="m 1251,434.031 c 3.59,0 6.5,-2.91 6.5,-6.5 v 0 c 0,-3.59 -2.91,-6.5 -6.5,-6.5 -3.59,0 -6.5,2.91 -6.5,6.5 0,3.59 2.91,6.5 6.5,6.5 z m 0,12 c -10.21,0 -18.5,-8.285 -18.5,-18.5 0,-10.215 8.29,-18.5 18.5,-18.5 10.21,0 18.5,8.285 18.5,18.5 v 0 c 0,10.215 -8.29,18.5 -18.5,18.5"
       style="fill:#e61a1a;fill-opacity:1;fill-rule:nonzero;stroke:none"
       transform="matrix(0.13333333,0,0,-0.13333333,0,160)" />
    <path
       id="path62"
       d="m 1281.5,431.398 c 3.59,0 6.5,-2.91 6.5,-6.5 v 0 c 0,-3.589 -2.91,-6.5 -6.5,-6.5 -3.59,0 -6.5,2.911 -6.5,6.5 0,3.59 2.91,6.5 6.5,6.5 z m 0,12 c -10.21,0 -18.5,-8.285 -18.5,-18.5 0,-10.214 8.29,-18.5 18.5,-18.5 10.21,0 18.5,8.286 18.5,18.5 v 0 c 0,10.215 -8.29,18.5 -18.5,18.5"
       style="fill:#e61a1a;fill-opacity:1;fill-rule:nonzero;stroke:none"
       transform="matrix(0.13333333,0,0,-0.13333333,0,160)" />
    <path
       id="path63"
       d="m 1312,428.734 c 3.59,0 6.5,-2.91 6.5,-6.5 v 0 c 0,-3.589 -2.91,-6.5 -6.5,-6.5 -3.59,0 -6.5,2.911 -6.5,6.5 0,3.59 2.91,6.5 6.5,6.5 z m 0,12 c -10.21,0 -18.5,-8.285 -18.5,-18.5 0,-10.214 8.29,-18.5 18.5,-18.5 10.21,0 18.5,8.286 18.5,18.5 v 0 c 0,10.215 -8.29,18.5 -18.5,18.5"
       style="fill:#e61a1a;fill-opacity:1;fill-rule:nonzero;stroke:none"
       transform="matrix(0.13333333,0,0,-0.13333333,0,160)" />
    <path
       id="path64"
       d="m 1342.5,427.91 c 3.59,0 6.5,-2.91 6.5,-6.5 v 0 c 0,-3.59 -2.91,-6.5 -6.5,-6.5 -3.59,0 -6.5,2.91 -6.5,6.5 0,3.59 2.91,6.5 6.5,6.5 z m 0,12 c -10.21,0 -18.5,-8.285 -18.5,-18.5 0,-10.215 8.29,-18.5 18.5,-18.5 10.21,0 18.5,8.285 18.5,18.5 v 0 c 0,10.215 -8.29,18.5 -18.5,18.5"
       style="fill:#e61a1a;fill-opacity:1;fill-rule:nonzero;stroke:none"
       transform="matrix(0.13333333,0,0,-0.13333333,0,160)" />
    <path
       id="path65"
       d="m 1373,423.145 c 3.59,0 6.5,-2.911 6.5,-6.5 v 0 c 0,-3.59 -2.91,-6.5 -6.5,-6.5 -3.59,0 -6.5,2.91 -6.5,6.5 0,3.589 2.91,6.5 6.5,6.5 z m 0,12 c -10.21,0 -18.5,-8.286 -18.5,-18.5 0,-10.215 8.29,-18.5 18.5,-18.5 10.21,0 18.5,8.285 18.5,18.5 v 0 c 0,10.214 -8.29,18.5 -18.5,18.5"
       style="fill:#e61a1a;fill-opacity:1;fill-rule:nonzero;stroke:none"
       transform="matrix(0.13333333,0,0,-0.13333333,0,160)" />
    <path
       id="path66"
       d="m 1403.5,421.793 c 3.59,0 6.5,-2.91 6.5,-6.5 v 0 c 0,-3.59 -2.91,-6.5 -6.5,-6.5 -3.59,0 -6.5,2.91 -6.5,6.5 0,3.59 2.91,6.5 6.5,6.5 z m 0,12 c -10.21,0 -18.5,-8.285 -18.5,-18.5 0,-10.215 8.29,-18.5 18.5,-18.5 10.21,0 18.5,8.285 18.5,18.5 v 0 c 0,10.215 -8.29,18.5 -18.5,18.5"
       style="fill:#e61a1a;fill-opacity:1;fill-rule:nonzero;stroke:none"
       transform="matrix(0.13333333,0,0,-0.13333333,0,160)" />
    <path
       id="path67"
       d="m 1434,420.07 c 3.59,0 6.5,-2.91 6.5,-6.5 v 0 c 0,-3.59 -2.91,-6.5 -6.5,-6.5 -3.59,0 -6.5,2.91 -6.5,6.5 0,3.59 2.91,6.5 6.5,6.5 z m 0,12 c -10.21,0 -18.5,-8.285 -18.5,-18.5 0,-10.215 8.29,-18.5 18.5,-18.5 10.21,0 18.5,8.285 18.5,18.5 v 0 c 0,10.215 -8.29,18.5 -18.5,18.5"
       style="fill:#e61a1a;fill-opacity:1;fill-rule:nonzero;stroke:none"
       transform="matrix(0.13333333,0,0,-0.13333333,0,160)" />
    <path
       id="path68"
       d="m 1464.5,419.359 c 3.59,0 6.5,-2.91 6.5,-6.5 v 0 c 0,-3.589 -2.91,-6.5 -6.5,-6.5 -3.59,0 -6.5,2.911 -6.5,6.5 0,3.59 2.91,6.5 6.5,6.5 z m 0,12 c -10.21,0 -18.5,-8.285 -18.5,-18.5 0,-10.214 8.29,-18.5 18.5,-18.5 10.21,0 18.5,8.286 18.5,18.5 v 0 c 0,10.215 -8.29,18.5 -18.5,18.5"
       style="fill:#e61a1a;fill-opacity:1;fill-rule:nonzero;stroke:none"
       transform="matrix(0.13333333,0,0,-0.13333333,0,160)" />
    <path
       id="path69"
       d="m 1495,416.391 c 3.59,0 6.5,-2.911 6.5,-6.5 v 0 c 0,-3.594 -2.91,-6.5 -6.5,-6.5 -3.59,0 -6.5,2.906 -6.5,6.5 0,3.589 2.91,6.5 6.5,6.5 z m 0,12 c -10.21,0 -18.5,-8.286 -18.5,-18.5 0,-10.219 8.29,-18.5 18.5,-18.5 10.21,0 18.5,8.281 18.5,18.5 v 0 c 0,10.214 -8.29,18.5 -18.5,18.5"
       style="fill:#e61a1a;fill-opacity:1;fill-rule:nonzero;stroke:none"
       transform="matrix(0.13333333,0,0,-0.13333333,0,160)" />
    <path
       id="path70"
       d="M 274.934,1110.11 275,1110 l 30.5,-44.54 30.5,-40.05 30.5,-40.082 30.5,-37.125 30.5,-37.414 30.5,-30.633 30.5,-23.293 30.5,-26.449 30.5,-23.543 30.5,-29.609 30.5,-21.957 30.5,-21.446 30.5,-15.66 30.5,-15.394 30.5,-21.559 30.5,-15.355 30.5,-14.504 30.5,-15.551 30.5,-9.57 30.5,-14.207 30.5,-5.129 30.5,-15.735 30.5,-12.226 30.5,-13.36 30.5,-3.109 30.5,-15.449 30.5,-7.785 30.5,-8.426 30.5,-9.102 30.5,-5.988 30.5,-5.941 30.5,-8.758 30.5,-6.801 30.5,-5.875 30.5,-3.797 30.5,-7.375 30.5,-2.598 30.5,-6.589 30.5,-6.106 30.5,-2.504"
       style="fill:none;stroke:#3366ff;stroke-width:12;stroke-linecap:butt;stroke-linejoin:round;stroke-miterlimit:10;stroke-dasharray:none;stroke-opacity:1"
       transform="matrix(0.13333333,0,0,-0.13333333,0,160)" />
    <path
       id="path71"
       d="m 275,1116.5 c 3.59,0 6.5,-2.91 6.5,-6.5 v 0 c 0,-3.59 -2.91,-6.5 -6.5,-6.5 -3.59,0 -6.5,2.91 -6.5,6.5 0,3.59 2.91,6.5 6.5,6.5 z m 0,12 c -10.215,0 -18.5,-8.29 -18.5,-18.5 0,-10.21 8.285,-18.5 18.5,-18.5 10.215,0 18.5,8.29 18.5,18.5 v 0 c 0,10.21 -8.285,18.5 -18.5,18.5"
       style="fill:#3366ff;fill-opacity:1;fill-rule:nonzero;stroke:none"
       transform="matrix(0.13333333,0,0,-0.13333333,0,160)" />
    <path
       id="path72"
       d="m 305.5,1071.96 c 3.59,0 6.5,-2.91 6.5,-6.5 v 0 c 0,-3.59 -2.91,-6.5 -6.5,-6.5 -3.59,0 -6.5,2.91 -6.5,6.5 0,3.59 2.91,6.5 6.5,6.5 z m 0,12 c -10.215,0 -18.5,-8.28 -18.5,-18.5 0,-10.21 8.285,-18.5 18.5,-18.5 10.215,0 18.5,8.29 18.5,18.5 v 0 c 0,10.22 -8.285,18.5 -18.5,18.5"
       style="fill:#3366ff;fill-opacity:1;fill-rule:nonzero;stroke:none"
       transform="matrix(0.13333333,0,0,-0.13333333,0,160)" />
    <path
       id="path73"
       d="m 336,1031.91 c 3.59,0 6.5,-2.91 6.5,-6.5 v 0 c 0,-3.59 -2.91,-6.5 -6.5,-6.5 -3.59,0 -6.5,2.91 -6.5,6.5 0,3.59 2.91,6.5 6.5,6.5 z m 0,12 c -10.215,0 -18.5,-8.29 -18.5,-18.5 0,-10.22 8.285,-18.5 18.5,-18.5 10.215,0 18.5,8.28 18.5,18.5 v 0 c 0,10.21 -8.285,18.5 -18.5,18.5"
       style="fill:#3366ff;fill-opacity:1;fill-rule:nonzero;stroke:none"
       transform="matrix(0.13333333,0,0,-0.13333333,0,160)" />
    <path
       id="path74"
       d="m 366.5,991.832 c 3.59,0 6.5,-2.91 6.5,-6.5 v 0 c 0,-3.59 -2.91,-6.5 -6.5,-6.5 -3.59,0 -6.5,2.91 -6.5,6.5 0,3.59 2.91,6.5 6.5,6.5 z m 0,11.998 c -10.215,0 -18.5,-8.283 -18.5,-18.498 0,-10.215 8.285,-18.5 18.5,-18.5 10.215,0 18.5,8.285 18.5,18.5 v 0 c 0,10.215 -8.285,18.498 -18.5,18.498"
       style="fill:#3366ff;fill-opacity:1;fill-rule:nonzero;stroke:none"
       transform="matrix(0.13333333,0,0,-0.13333333,0,160)" />
    <path
       id="path75"
       d="m 397,954.707 c 3.59,0 6.5,-2.91 6.5,-6.5 v 0 c 0,-3.59 -2.91,-6.5 -6.5,-6.5 -3.59,0 -6.5,2.91 -6.5,6.5 0,3.59 2.91,6.5 6.5,6.5 z m 0,12 c -10.215,0 -18.5,-8.285 -18.5,-18.5 0,-10.215 8.285,-18.5 18.5,-18.5 10.215,0 18.5,8.285 18.5,18.5 v 0 c 0,10.215 -8.285,18.5 -18.5,18.5"
       style="fill:#3366ff;fill-opacity:1;fill-rule:nonzero;stroke:none"
       transform="matrix(0.13333333,0,0,-0.13333333,0,160)" />
    <path
       id="path76"
       d="m 427.5,917.289 c 3.59,0 6.5,-2.91 6.5,-6.5 v 0 c 0,-3.59 -2.91,-6.5 -6.5,-6.5 -3.59,0 -6.5,2.91 -6.5,6.5 0,3.59 2.91,6.5 6.5,6.5 z m 0,12 c -10.215,0 -18.5,-8.285 -18.5,-18.5 0,-10.215 8.285,-18.5 18.5,-18.5 10.215,0 18.5,8.285 18.5,18.5 v 0 c 0,10.215 -8.285,18.5 -18.5,18.5"
       style="fill:#3366ff;fill-opacity:1;fill-rule:nonzero;stroke:none"
       transform="matrix(0.13333333,0,0,-0.13333333,0,160)" />
    <path
       id="path77"
       d="m 458,886.656 c 3.59,0 6.5,-2.91 6.5,-6.5 v 0 c 0,-3.59 -2.91,-6.5 -6.5,-6.5 -3.59,0 -6.5,2.91 -6.5,6.5 0,3.59 2.91,6.5 6.5,6.5 z m 0,12 c -10.215,0 -18.5,-8.285 -18.5,-18.5 0,-10.215 8.285,-18.5 18.5,-18.5 10.215,0 18.5,8.285 18.5,18.5 v 0 c 0,10.215 -8.285,18.5 -18.5,18.5"
       style="fill:#3366ff;fill-opacity:1;fill-rule:nonzero;stroke:none"
       transform="matrix(0.13333333,0,0,-0.13333333,0,160)" />
    <path
       id="path78"
       d="m 488.5,863.367 c 3.59,0 6.5,-2.91 6.5,-6.5 v 0 c 0,-3.59 -2.91,-6.5 -6.5,-6.5 -3.59,0 -6.5,2.91 -6.5,6.5 0,3.59 2.91,6.5 6.5,6.5 z m 0,12 c -10.215,0 -18.5,-8.285 -18.5,-18.5 0,-10.215 8.285,-18.5 18.5,-18.5 10.215,0 18.5,8.285 18.5,18.5 v 0 c 0,10.215 -8.285,18.5 -18.5,18.5"
       style="fill:#3366ff;fill-opacity:1;fill-rule:nonzero;stroke:none"
       transform="matrix(0.13333333,0,0,-0.13333333,0,160)" />
    <path
       id="path79"
       d="m 519,836.914 c 3.59,0 6.5,-2.91 6.5,-6.5 v 0 c 0,-3.59 -2.91,-6.5 -6.5,-6.5 -3.59,0 -6.5,2.91 -6.5,6.5 0,3.59 2.91,6.5 6.5,6.5 z m 0,12 c -10.215,0 -18.5,-8.285 -18.5,-18.5 0,-10.215 8.285,-18.5 18.5,-18.5 10.215,0 18.5,8.285 18.5,18.5 v 0 c 0,10.215 -8.285,18.5 -18.5,18.5"
       style="fill:#3366ff;fill-opacity:1;fill-rule:nonzero;stroke:none"
       transform="matrix(0.13333333,0,0,-0.13333333,0,160)" />
    <path
       id="path80"
       d="m 549.5,813.371 c 3.59,0 6.5,-2.91 6.5,-6.5 v 0 c 0,-3.594 -2.91,-6.5 -6.5,-6.5 -3.59,0 -6.5,2.906 -6.5,6.5 0,3.59 2.91,6.5 6.5,6.5 z m 0,12 c -10.215,0 -18.5,-8.285 -18.5,-18.5 0,-10.219 8.285,-18.5 18.5,-18.5 10.215,0 18.5,8.281 18.5,18.5 v 0 c 0,10.215 -8.285,18.5 -18.5,18.5"
       style="fill:#3366ff;fill-opacity:1;fill-rule:nonzero;stroke:none"
       transform="matrix(0.13333333,0,0,-0.13333333,0,160)" />
    <path
       id="path81"
       d="m 580,783.758 c 3.59,0 6.5,-2.906 6.5,-6.5 v 0 c 0,-3.59 -2.91,-6.5 -6.5,-6.5 -3.59,0 -6.5,2.91 -6.5,6.5 0,3.594 2.91,6.5 6.5,6.5 z m 0,12 c -10.215,0 -18.5,-8.281 -18.5,-18.5 0,-10.215 8.285,-18.5 18.5,-18.5 10.215,0 18.5,8.285 18.5,18.5 v 0 c 0,10.219 -8.285,18.5 -18.5,18.5"
       style="fill:#3366ff;fill-opacity:1;fill-rule:nonzero;stroke:none"
       transform="matrix(0.13333333,0,0,-0.13333333,0,160)" />
    <path
       id="path82"
       d="m 610.5,761.805 c 3.59,0 6.5,-2.91 6.5,-6.5 v 0 c 0,-3.59 -2.91,-6.5 -6.5,-6.5 -3.59,0 -6.5,2.91 -6.5,6.5 0,3.59 2.91,6.5 6.5,6.5 z m 0,12 c -10.215,0 -18.5,-8.285 -18.5,-18.5 0,-10.215 8.285,-18.5 18.5,-18.5 10.215,0 18.5,8.285 18.5,18.5 v 0 c 0,10.215 -8.285,18.5 -18.5,18.5"
       style="fill:#3366ff;fill-opacity:1;fill-rule:nonzero;stroke:none"
       transform="matrix(0.13333333,0,0,-0.13333333,0,160)" />
    <path
       id="path83"
       d="m 641,740.363 c 3.59,0 6.5,-2.91 6.5,-6.5 v 0 c 0,-3.59 -2.91,-6.5 -6.5,-6.5 -3.59,0 -6.5,2.91 -6.5,6.5 0,3.59 2.91,6.5 6.5,6.5 z m 0,12 c -10.215,0 -18.5,-8.285 -18.5,-18.5 0,-10.215 8.285,-18.5 18.5,-18.5 10.215,0 18.5,8.285 18.5,18.5 v 0 c 0,10.215 -8.285,18.5 -18.5,18.5"
       style="fill:#3366ff;fill-opacity:1;fill-rule:nonzero;stroke:none"
       transform="matrix(0.13333333,0,0,-0.13333333,0,160)" />
    <path
       id="path84"
       d="m 671.5,724.703 c 3.59,0 6.5,-2.91 6.5,-6.5 v 0 c 0,-3.59 -2.91,-6.5 -6.5,-6.5 -3.59,0 -6.5,2.91 -6.5,6.5 0,3.59 2.91,6.5 6.5,6.5 z m 0,12 c -10.215,0 -18.5,-8.285 -18.5,-18.5 0,-10.215 8.285,-18.5 18.5,-18.5 10.215,0 18.5,8.285 18.5,18.5 v 0 c 0,10.215 -8.285,18.5 -18.5,18.5"
       style="fill:#3366ff;fill-opacity:1;fill-rule:nonzero;stroke:none"
       transform="matrix(0.13333333,0,0,-0.13333333,0,160)" />
    <path
       id="path85"
       d="m 702,709.301 c 3.59,0 6.5,-2.906 6.5,-6.5 v 0 c 0,-3.59 -2.91,-6.5 -6.5,-6.5 -3.59,0 -6.5,2.91 -6.5,6.5 0,3.594 2.91,6.5 6.5,6.5 z m 0,12 c -10.215,0 -18.5,-8.281 -18.5,-18.5 0,-10.215 8.285,-18.5 18.5,-18.5 10.215,0 18.5,8.285 18.5,18.5 v 0 c 0,10.219 -8.285,18.5 -18.5,18.5"
       style="fill:#3366ff;fill-opacity:1;fill-rule:nonzero;stroke:none"
       transform="matrix(0.13333333,0,0,-0.13333333,0,160)" />
    <path
       id="path86"
       d="m 732.5,687.746 c 3.59,0 6.5,-2.91 6.5,-6.5 v 0 c 0,-3.59 -2.91,-6.5 -6.5,-6.5 -3.59,0 -6.5,2.91 -6.5,6.5 0,3.59 2.91,6.5 6.5,6.5 z m 0,12 c -10.215,0 -18.5,-8.285 -18.5,-18.5 0,-10.215 8.285,-18.5 18.5,-18.5 10.215,0 18.5,8.285 18.5,18.5 v 0 c 0,10.215 -8.285,18.5 -18.5,18.5"
       style="fill:#3366ff;fill-opacity:1;fill-rule:nonzero;stroke:none"
       transform="matrix(0.13333333,0,0,-0.13333333,0,160)" />
    <path
       id="path87"
       d="m 763,672.387 c 3.59,0 6.5,-2.907 6.5,-6.5 v 0 c 0,-3.59 -2.91,-6.5 -6.5,-6.5 -3.59,0 -6.5,2.91 -6.5,6.5 0,3.593 2.91,6.5 6.5,6.5 z m 0,12 c -10.215,0 -18.5,-8.282 -18.5,-18.5 0,-10.215 8.285,-18.5 18.5,-18.5 10.215,0 18.5,8.285 18.5,18.5 v 0 c 0,10.218 -8.285,18.5 -18.5,18.5"
       style="fill:#3366ff;fill-opacity:1;fill-rule:nonzero;stroke:none"
       transform="matrix(0.13333333,0,0,-0.13333333,0,160)" />
    <path
       id="path88"
       d="m 793.5,657.883 c 3.59,0 6.5,-2.91 6.5,-6.5 v 0 c 0,-3.59 -2.91,-6.5 -6.5,-6.5 -3.59,0 -6.5,2.91 -6.5,6.5 0,3.59 2.91,6.5 6.5,6.5 z m 0,12 c -10.215,0 -18.5,-8.285 -18.5,-18.5 0,-10.215 8.285,-18.5 18.5,-18.5 10.215,0 18.5,8.285 18.5,18.5 v 0 c 0,10.215 -8.285,18.5 -18.5,18.5"
       style="fill:#3366ff;fill-opacity:1;fill-rule:nonzero;stroke:none"
       transform="matrix(0.13333333,0,0,-0.13333333,0,160)" />
    <path
       id="path89"
       d="m 824,642.336 c 3.59,0 6.5,-2.91 6.5,-6.5 v 0 c 0,-3.59 -2.91,-6.5 -6.5,-6.5 -3.59,0 -6.5,2.91 -6.5,6.5 0,3.59 2.91,6.5 6.5,6.5 z m 0,12 c -10.215,0 -18.5,-8.285 -18.5,-18.5 0,-10.215 8.285,-18.5 18.5,-18.5 10.215,0 18.5,8.285 18.5,18.5 v 0 c 0,10.215 -8.285,18.5 -18.5,18.5"
       style="fill:#3366ff;fill-opacity:1;fill-rule:nonzero;stroke:none"
       transform="matrix(0.13333333,0,0,-0.13333333,0,160)" />
    <path
       id="path90"
       d="m 854.5,632.766 c 3.59,0 6.5,-2.911 6.5,-6.5 v 0 c 0,-3.594 -2.91,-6.5 -6.5,-6.5 -3.59,0 -6.5,2.906 -6.5,6.5 0,3.589 2.91,6.5 6.5,6.5 z m 0,12 c -10.215,0 -18.5,-8.286 -18.5,-18.5 0,-10.219 8.285,-18.5 18.5,-18.5 10.215,0 18.5,8.281 18.5,18.5 v 0 c 0,10.214 -8.285,18.5 -18.5,18.5"
       style="fill:#3366ff;fill-opacity:1;fill-rule:nonzero;stroke:none"
       transform="matrix(0.13333333,0,0,-0.13333333,0,160)" />
    <path
       id="path91"
       d="m 885,618.563 c 3.59,0 6.5,-2.911 6.5,-6.5 v 0 c 0,-3.59 -2.91,-6.5 -6.5,-6.5 -3.59,0 -6.5,2.91 -6.5,6.5 0,3.589 2.91,6.5 6.5,6.5 z m 0,12 c -10.215,0 -18.5,-8.286 -18.5,-18.5 0,-10.215 8.285,-18.5 18.5,-18.5 10.215,0 18.5,8.285 18.5,18.5 v 0 c 0,10.214 -8.285,18.5 -18.5,18.5"
       style="fill:#3366ff;fill-opacity:1;fill-rule:nonzero;stroke:none"
       transform="matrix(0.13333333,0,0,-0.13333333,0,160)" />
    <path
       id="path92"
       d="m 915.5,613.434 c 3.59,0 6.5,-2.911 6.5,-6.5 v 0 c 0,-3.59 -2.91,-6.5 -6.5,-6.5 -3.59,0 -6.5,2.91 -6.5,6.5 0,3.589 2.91,6.5 6.5,6.5 z m 0,12 c -10.215,0 -18.5,-8.286 -18.5,-18.5 0,-10.215 8.285,-18.5 18.5,-18.5 10.215,0 18.5,8.285 18.5,18.5 v 0 c 0,10.214 -8.285,18.5 -18.5,18.5"
       style="fill:#3366ff;fill-opacity:1;fill-rule:nonzero;stroke:none"
       transform="matrix(0.13333333,0,0,-0.13333333,0,160)" />
    <path
       id="path93"
       d="m 946,597.695 c 3.59,0 6.5,-2.91 6.5,-6.5 v 0 c 0,-3.59 -2.91,-6.5 -6.5,-6.5 -3.59,0 -6.5,2.91 -6.5,6.5 0,3.59 2.91,6.5 6.5,6.5 z m 0,12 c -10.215,0 -18.5,-8.285 -18.5,-18.5 0,-10.215 8.285,-18.5 18.5,-18.5 10.215,0 18.5,8.285 18.5,18.5 v 0 c 0,10.215 -8.285,18.5 -18.5,18.5"
       style="fill:#3366ff;fill-opacity:1;fill-rule:nonzero;stroke:none"
       transform="matrix(0.13333333,0,0,-0.13333333,0,160)" />
    <path
       id="path94"
       d="m 976.5,585.473 c 3.59,0 6.5,-2.91 6.5,-6.5 v 0 c 0,-3.59 -2.91,-6.5 -6.5,-6.5 -3.59,0 -6.5,2.91 -6.5,6.5 0,3.59 2.91,6.5 6.5,6.5 z m 0,12 c -10.215,0 -18.5,-8.285 -18.5,-18.5 0,-10.215 8.285,-18.5 18.5,-18.5 10.215,0 18.5,8.285 18.5,18.5 v 0 c 0,10.215 -8.285,18.5 -18.5,18.5"
       style="fill:#3366ff;fill-opacity:1;fill-rule:nonzero;stroke:none"
       transform="matrix(0.13333333,0,0,-0.13333333,0,160)" />
    <path
       id="path95"
       d="m 1007,572.113 c 3.59,0 6.5,-2.91 6.5,-6.5 v 0 c 0,-3.59 -2.91,-6.5 -6.5,-6.5 -3.59,0 -6.5,2.91 -6.5,6.5 0,3.59 2.91,6.5 6.5,6.5 z m 0,12 c -10.215,0 -18.5,-8.285 -18.5,-18.5 0,-10.215 8.285,-18.5 18.5,-18.5 10.21,0 18.5,8.285 18.5,18.5 v 0 c 0,10.215 -8.29,18.5 -18.5,18.5"
       style="fill:#3366ff;fill-opacity:1;fill-rule:nonzero;stroke:none"
       transform="matrix(0.13333333,0,0,-0.13333333,0,160)" />
    <path
       id="path96"
       d="m 1037.5,569 c 3.59,0 6.5,-2.91 6.5,-6.5 v 0 c 0,-3.59 -2.91,-6.5 -6.5,-6.5 -3.59,0 -6.5,2.91 -6.5,6.5 0,3.59 2.91,6.5 6.5,6.5 z m 0,12 c -10.21,0 -18.5,-8.285 -18.5,-18.5 0,-10.215 8.29,-18.5 18.5,-18.5 10.21,0 18.5,8.285 18.5,18.5 v 0 c 0,10.215 -8.29,18.5 -18.5,18.5"
       style="fill:#3366ff;fill-opacity:1;fill-rule:nonzero;stroke:none"
       transform="matrix(0.13333333,0,0,-0.13333333,0,160)" />
    <path
       id="path97"
       d="m 1068,553.551 c 3.59,0 6.5,-2.91 6.5,-6.5 v 0 c 0,-3.594 -2.91,-6.5 -6.5,-6.5 -3.59,0 -6.5,2.906 -6.5,6.5 0,3.59 2.91,6.5 6.5,6.5 z m 0,12 c -10.21,0 -18.5,-8.285 -18.5,-18.5 0,-10.219 8.29,-18.5 18.5,-18.5 10.21,0 18.5,8.281 18.5,18.5 v 0 c 0,10.215 -8.29,18.5 -18.5,18.5"
       style="fill:#3366ff;fill-opacity:1;fill-rule:nonzero;stroke:none"
       transform="matrix(0.13333333,0,0,-0.13333333,0,160)" />
    <path
       id="path98"
       d="m 1098.5,545.766 c 3.59,0 6.5,-2.911 6.5,-6.5 v 0 c 0,-3.59 -2.91,-6.5 -6.5,-6.5 -3.59,0 -6.5,2.91 -6.5,6.5 0,3.589 2.91,6.5 6.5,6.5 z m 0,12 c -10.21,0 -18.5,-8.286 -18.5,-18.5 0,-10.215 8.29,-18.5 18.5,-18.5 10.21,0 18.5,8.285 18.5,18.5 v 0 c 0,10.214 -8.29,18.5 -18.5,18.5"
       style="fill:#3366ff;fill-opacity:1;fill-rule:nonzero;stroke:none"
       transform="matrix(0.13333333,0,0,-0.13333333,0,160)" />
    <path
       id="path99"
       d="m 1129,537.34 c 3.59,0 6.5,-2.91 6.5,-6.5 v 0 c 0,-3.59 -2.91,-6.5 -6.5,-6.5 -3.59,0 -6.5,2.91 -6.5,6.5 0,3.59 2.91,6.5 6.5,6.5 z m 0,12 c -10.21,0 -18.5,-8.285 -18.5,-18.5 0,-10.215 8.29,-18.5 18.5,-18.5 10.21,0 18.5,8.285 18.5,18.5 v 0 c 0,10.215 -8.29,18.5 -18.5,18.5"
       style="fill:#3366ff;fill-opacity:1;fill-rule:nonzero;stroke:none"
       transform="matrix(0.13333333,0,0,-0.13333333,0,160)" />
    <path
       id="path100"
       d="m 1159.5,528.242 c 3.59,0 6.5,-2.91 6.5,-6.5 v 0 c 0,-3.59 -2.91,-6.5 -6.5,-6.5 -3.59,0 -6.5,2.91 -6.5,6.5 0,3.59 2.91,6.5 6.5,6.5 z m 0,12 c -10.21,0 -18.5,-8.285 -18.5,-18.5 0,-10.215 8.29,-18.5 18.5,-18.5 10.21,0 18.5,8.285 18.5,18.5 v 0 c 0,10.215 -8.29,18.5 -18.5,18.5"
       style="fill:#3366ff;fill-opacity:1;fill-rule:nonzero;stroke:none"
       transform="matrix(0.13333333,0,0,-0.13333333,0,160)" />
    <path
       id="path101"
       d="m 1190,522.25 c 3.59,0 6.5,-2.91 6.5,-6.5 v 0 c 0,-3.59 -2.91,-6.5 -6.5,-6.5 -3.59,0 -6.5,2.91 -6.5,6.5 0,3.59 2.91,6.5 6.5,6.5 z m 0,12 c -10.21,0 -18.5,-8.285 -18.5,-18.5 0,-10.215 8.29,-18.5 18.5,-18.5 10.21,0 18.5,8.285 18.5,18.5 v 0 c 0,10.215 -8.29,18.5 -18.5,18.5"
       style="fill:#3366ff;fill-opacity:1;fill-rule:nonzero;stroke:none"
       transform="matrix(0.13333333,0,0,-0.13333333,0,160)" />
    <path
       id="path102"
       d="m 1220.5,516.309 c 3.59,0 6.5,-2.911 6.5,-6.5 v 0 c 0,-3.59 -2.91,-6.5 -6.5,-6.5 -3.59,0 -6.5,2.91 -6.5,6.5 0,3.589 2.91,6.5 6.5,6.5 z m 0,12 c -10.21,0 -18.5,-8.286 -18.5,-18.5 0,-10.215 8.29,-18.5 18.5,-18.5 10.21,0 18.5,8.285 18.5,18.5 v 0 c 0,10.214 -8.29,18.5 -18.5,18.5"
       style="fill:#3366ff;fill-opacity:1;fill-rule:nonzero;stroke:none"
       transform="matrix(0.13333333,0,0,-0.13333333,0,160)" />
    <path
       id="path103"
       d="m 1251,507.551 c 3.59,0 6.5,-2.91 6.5,-6.5 v 0 c 0,-3.59 -2.91,-6.5 -6.5,-6.5 -3.59,0 -6.5,2.91 -6.5,6.5 0,3.59 2.91,6.5 6.5,6.5 z m 0,12 c -10.21,0 -18.5,-8.285 -18.5,-18.5 0,-10.215 8.29,-18.5 18.5,-18.5 10.21,0 18.5,8.285 18.5,18.5 v 0 c 0,10.215 -8.29,18.5 -18.5,18.5"
       style="fill:#3366ff;fill-opacity:1;fill-rule:nonzero;stroke:none"
       transform="matrix(0.13333333,0,0,-0.13333333,0,160)" />
    <path
       id="path104"
       d="m 1281.5,500.75 c 3.59,0 6.5,-2.91 6.5,-6.5 v 0 c 0,-3.59 -2.91,-6.5 -6.5,-6.5 -3.59,0 -6.5,2.91 -6.5,6.5 0,3.59 2.91,6.5 6.5,6.5 z m 0,12 c -10.21,0 -18.5,-8.285 -18.5,-18.5 0,-10.215 8.29,-18.5 18.5,-18.5 10.21,0 18.5,8.285 18.5,18.5 v 0 c 0,10.215 -8.29,18.5 -18.5,18.5"
       style="fill:#3366ff;fill-opacity:1;fill-rule:nonzero;stroke:none"
       transform="matrix(0.13333333,0,0,-0.13333333,0,160)" />
    <path
       id="path105"
       d="m 1312,494.879 c 3.59,0 6.5,-2.91 6.5,-6.5 v 0 c 0,-3.59 -2.91,-6.5 -6.5,-6.5 -3.59,0 -6.5,2.91 -6.5,6.5 0,3.59 2.91,6.5 6.5,6.5 z m 0,12 c -10.21,0 -18.5,-8.285 -18.5,-18.5 0,-10.215 8.29,-18.5 18.5,-18.5 10.21,0 18.5,8.285 18.5,18.5 v 0 c 0,10.215 -8.29,18.5 -18.5,18.5"
       style="fill:#3366ff;fill-opacity:1;fill-rule:nonzero;stroke:none"
       transform="matrix(0.13333333,0,0,-0.13333333,0,160)" />
    <path
       id="path106"
       d="m 1342.5,491.082 c 3.59,0 6.5,-2.91 6.5,-6.5 v 0 c 0,-3.59 -2.91,-6.5 -6.5,-6.5 -3.59,0 -6.5,2.91 -6.5,6.5 0,3.59 2.91,6.5 6.5,6.5 z m 0,12 c -10.21,0 -18.5,-8.285 -18.5,-18.5 0,-10.215 8.29,-18.5 18.5,-18.5 10.21,0 18.5,8.285 18.5,18.5 v 0 c 0,10.215 -8.29,18.5 -18.5,18.5"
       style="fill:#3366ff;fill-opacity:1;fill-rule:nonzero;stroke:none"
       transform="matrix(0.13333333,0,0,-0.13333333,0,160)" />
    <path
       id="path107"
       d="m 1373,483.707 c 3.59,0 6.5,-2.91 6.5,-6.5 v 0 c 0,-3.59 -2.91,-6.5 -6.5,-6.5 -3.59,0 -6.5,2.91 -6.5,6.5 0,3.59 2.91,6.5 6.5,6.5 z m 0,12 c -10.21,0 -18.5,-8.285 -18.5,-18.5 0,-10.215 8.29,-18.5 18.5,-18.5 10.21,0 18.5,8.285 18.5,18.5 v 0 c 0,10.215 -8.29,18.5 -18.5,18.5"
       style="fill:#3366ff;fill-opacity:1;fill-rule:nonzero;stroke:none"
       transform="matrix(0.13333333,0,0,-0.13333333,0,160)" />
    <path
       id="path108"
       d="m 1403.5,481.105 c 3.59,0 6.5,-2.91 6.5,-6.5 v 0 c 0,-3.589 -2.91,-6.5 -6.5,-6.5 -3.59,0 -6.5,2.911 -6.5,6.5 0,3.59 2.91,6.5 6.5,6.5 z m 0,12 c -10.21,0 -18.5,-8.285 -18.5,-18.5 0,-10.214 8.29,-18.5 18.5,-18.5 10.21,0 18.5,8.286 18.5,18.5 v 0 c 0,10.215 -8.29,18.5 -18.5,18.5"
       style="fill:#3366ff;fill-opacity:1;fill-rule:nonzero;stroke:none"
       transform="matrix(0.13333333,0,0,-0.13333333,0,160)" />
    <path
       id="path109"
       d="m 1434,474.512 c 3.59,0 6.5,-2.91 6.5,-6.5 v 0 c 0,-3.59 -2.91,-6.5 -6.5,-6.5 -3.59,0 -6.5,2.91 -6.5,6.5 0,3.59 2.91,6.5 6.5,6.5 z m 0,12 c -10.21,0 -18.5,-8.285 -18.5,-18.5 0,-10.215 8.29,-18.5 18.5,-18.5 10.21,0 18.5,8.285 18.5,18.5 v 0 c 0,10.215 -8.29,18.5 -18.5,18.5"
       style="fill:#3366ff;fill-opacity:1;fill-rule:nonzero;stroke:none"
       transform="matrix(0.13333333,0,0,-0.13333333,0,160)" />
    <path
       id="path110"
       d="m 1464.5,468.406 c 3.59,0 6.5,-2.91 6.5,-6.5 v 0 c 0,-3.59 -2.91,-6.5 -6.5,-6.5 -3.59,0 -6.5,2.91 -6.5,6.5 0,3.59 2.91,6.5 6.5,6.5 z m 0,12 c -10.21,0 -18.5,-8.285 -18.5,-18.5 0,-10.215 8.29,-18.5 18.5,-18.5 10.21,0 18.5,8.285 18.5,18.5 v 0 c 0,10.215 -8.29,18.5 -18.5,18.5"
       style="fill:#3366ff;fill-opacity:1;fill-rule:nonzero;stroke:none"
       transform="matrix(0.13333333,0,0,-0.13333333,0,160)" />
    <path
       id="path111"
       d="m 1495,465.906 c 3.59,0 6.5,-2.91 6.5,-6.5 v 0 c 0,-3.59 -2.91,-6.5 -6.5,-6.5 -3.59,0 -6.5,2.91 -6.5,6.5 0,3.59 2.91,6.5 6.5,6.5 z m 0,12 c -10.21,0 -18.5,-8.285 -18.5,-18.5 0,-10.215 8.29,-18.5 18.5,-18.5 10.21,0 18.5,8.285 18.5,18.5 v 0 c 0,10.215 -8.29,18.5 -18.5,18.5"
       style="fill:#3366ff;fill-opacity:1;fill-rule:nonzero;stroke:none"
       transform="matrix(0.13333333,0,0,-0.13333333,0,160)" />
    <path
       id="path112"
       d="m 1010,800 h 430 v 260 h -430 z"
       style="fill:#ffffff;fill-opacity:1;fill-rule:nonzero;stroke:none"
       transform="matrix(0.13333333,0,0,-0.13333333,0,160)" />
    <path
       id="path113"
       d="m 1166.14,969.242 c -0.57,0 -0.85,0.387 -0.85,1.168 0,0.156 0.05,0.418 0.15,0.785 0.1,0.364 0.24,0.66 0.39,0.895 0.16,0.238 0.34,0.355 0.55,0.355 3.7,0 6.25,0.184 7.66,0.547 0.78,0.258 1.35,1.067 1.71,2.418 l 12.35,49.46 c 0.15,0.57 0.23,0.99 0.23,1.25 0,0.62 -0.39,0.99 -1.17,1.09 -1.09,0.21 -3.23,0.31 -6.41,0.31 -0.57,0 -0.86,0.42 -0.86,1.25 0,0.11 0.04,0.36 0.12,0.75 0.08,0.39 0.21,0.68 0.39,0.89 0.19,0.21 0.38,0.32 0.59,0.32 h 48.83 c 0.57,0 0.86,-0.39 0.86,-1.18 l -2.11,-18.67 c 0,-0.16 -0.12,-0.33 -0.36,-0.5 -0.23,-0.19 -0.42,-0.28 -0.58,-0.28 h -0.78 c -0.63,0 -0.94,0.39 -0.94,1.17 0.36,2.92 0.55,5.08 0.55,6.48 0,2.4 -0.42,4.27 -1.25,5.59 -0.84,1.33 -1.93,2.3 -3.28,2.89 -1.36,0.6 -2.87,0.97 -4.54,1.09 -1.66,0.14 -3.82,0.2 -6.48,0.2 h -10.23 c -1.67,0 -2.77,-0.13 -3.29,-0.39 -0.51,-0.26 -1.01,-1.15 -1.48,-2.65 l -5.39,-21.73 h 7.03 c 3.08,0 5.38,0.21 6.91,0.63 1.54,0.42 2.77,1.3 3.68,2.66 0.91,1.35 1.73,3.49 2.46,6.41 0.05,0.2 0.17,0.38 0.35,0.54 0.18,0.16 0.37,0.24 0.59,0.24 h 0.78 c 0.57,0 0.86,-0.39 0.86,-1.18 l -5.55,-22.183 c -0.11,-0.523 -0.39,-0.781 -0.86,-0.781 h -0.86 c -0.57,0 -0.86,0.363 -0.86,1.094 0.58,2.394 0.86,4.164 0.86,5.312 0,1.77 -0.79,2.887 -2.38,3.36 -1.59,0.468 -3.69,0.703 -6.29,0.703 h -7.5 l -6.1,-24.453 c -0.25,-0.731 -0.39,-1.383 -0.39,-1.957 0,-0.465 1.02,-0.7 3.05,-0.7 h 10.94 c 4.32,0 7.82,0.325 10.51,0.977 2.68,0.648 4.92,1.719 6.71,3.203 1.8,1.484 3.34,3.371 4.61,5.66 1.28,2.293 2.83,5.629 4.65,10 0.16,0.367 0.44,0.551 0.86,0.551 h 0.79 c 0.26,0 0.48,-0.106 0.66,-0.316 0.18,-0.207 0.27,-0.438 0.27,-0.7 0,-0.105 -0.05,-0.211 -0.16,-0.316 l -9.21,-21.719 c -0.16,-0.363 -0.39,-0.543 -0.71,-0.543 h -50.08"
       style="fill:#000000;fill-opacity:1;fill-rule:nonzero;stroke:none"
       transform="matrix(0.13333333,0,0,-0.13333333,0,160)" />
    <path
       id="path114"
       d="m 1261.44,946.895 c -3.33,2.656 -6.21,5.691 -8.63,9.105 -2.42,3.41 -4.4,7.043 -5.94,10.895 -1.53,3.859 -2.68,7.894 -3.43,12.109 -0.76,4.223 -1.14,8.465 -1.14,12.738 0,4.321 0.38,8.598 1.14,12.808 0.75,4.22 1.91,8.27 3.47,12.15 1.56,3.88 3.57,7.53 6.02,10.94 2.44,3.41 5.28,6.39 8.51,8.95 0,0.1 0.16,0.15 0.47,0.15 h 0.86 c 0.16,0 0.31,-0.08 0.46,-0.24 0.16,-0.15 0.24,-0.33 0.24,-0.54 0,-0.26 -0.08,-0.44 -0.24,-0.55 -2.91,-2.92 -5.34,-6.02 -7.29,-9.29 -1.96,-3.28 -3.52,-6.78 -4.69,-10.48 -1.18,-3.69 -2.04,-7.52 -2.59,-11.48 -0.54,-3.96 -0.81,-8.097 -0.81,-12.418 0,-19.066 5.1,-33.543 15.31,-43.437 0.21,-0.211 0.31,-0.473 0.31,-0.785 0,-0.157 -0.09,-0.325 -0.27,-0.504 -0.18,-0.184 -0.32,-0.274 -0.43,-0.274 h -0.86 c -0.31,0 -0.47,0.051 -0.47,0.153"
       style="fill:#000000;fill-opacity:1;fill-rule:nonzero;stroke:none"
       transform="matrix(0.13333333,0,0,-0.13333333,0,160)" />
    <path
       id="path115"
       d="m 1286.6,967.91 c -2.09,0 -4.03,0.379 -5.82,1.137 -1.8,0.754 -3.36,1.875 -4.69,3.359 -1.33,1.485 -2.32,3.121 -2.97,4.918 -0.65,1.797 -0.98,3.739 -0.98,5.821 0,3.75 0.89,7.398 2.66,10.941 1.77,3.539 4.19,6.594 7.27,9.184 3.07,2.57 6.4,4.3 10,5.19 -1.77,3.28 -3.12,6.09 -4.03,8.43 -0.91,2.35 -1.36,4.77 -1.36,7.27 0,1.77 0.41,3.36 1.25,4.77 0.83,1.4 2,2.5 3.51,3.28 1.51,0.78 3.18,1.17 5,1.17 1.83,0 5.36,-0.6 10.63,-1.79 1.4,-0.32 2.11,-1.13 2.11,-2.43 0,-0.98 -0.37,-1.88 -1.1,-2.7 -0.73,-0.8 -1.59,-1.21 -2.58,-1.21 -0.78,0 -1.46,0.18 -2.03,0.52 -0.57,0.33 -1.49,0.92 -2.74,1.75 -1.25,0.84 -2.37,1.48 -3.39,1.96 -1.02,0.47 -2.04,0.7 -3.09,0.7 -1.25,0 -2.36,-0.38 -3.36,-1.13 -0.98,-0.76 -1.48,-1.74 -1.48,-2.93 0,-1.93 0.85,-4.13 2.54,-6.6 1.69,-2.48 4.1,-5.64 7.23,-9.5 3.53,-4.53 5.3,-9.5 5.3,-14.918 0,-2.711 -0.38,-5.629 -1.16,-8.75 -0.78,-3.129 -1.92,-6.082 -3.41,-8.868 -1.48,-2.785 -3.36,-5.078 -5.66,-6.875 -2.29,-1.796 -4.84,-2.699 -7.65,-2.699 z m 0.15,2.426 c 2.35,0 4.37,1.211 6.06,3.629 1.69,2.426 2.97,5.316 3.83,8.676 0.86,3.359 1.29,6.183 1.29,8.476 0,4.477 -1.57,9.533 -4.7,15.153 -3.17,-0.88 -5.91,-2.73 -8.19,-5.54 -2.3,-2.816 -4.03,-6.058 -5.2,-9.73 -1.17,-3.672 -1.76,-7.148 -1.76,-10.43 0,-2.867 0.74,-5.289 2.23,-7.265 1.48,-1.981 3.63,-2.969 6.44,-2.969"
       style="fill:#000000;fill-opacity:1;fill-rule:nonzero;stroke:none"
       transform="matrix(0.13333333,0,0,-0.13333333,0,160)" />
    <path
       id="path116"
       d="m 1324.57,955.035 c -2.45,0 -4.62,0.719 -6.53,2.153 -1.9,1.429 -3.34,3.292 -4.33,5.582 -1,2.293 -1.49,4.64 -1.49,7.035 0,1.82 0.29,3.605 0.86,5.351 0.57,1.742 1.41,3.317 2.5,4.723 1.1,1.41 2.42,2.527 3.99,3.363 1.56,0.832 3.28,1.25 5.15,1.25 1.98,0 3.87,-0.379 5.67,-1.133 1.79,-0.754 3.46,-1.746 5,-2.968 1.53,-1.223 2.95,-2.645 4.25,-4.262 l 1.96,-2.574 c 1.25,2.031 2.65,3.851 4.22,5.465 1.56,1.617 3.33,2.933 5.31,3.945 1.98,1.015 4.08,1.527 6.33,1.527 1.92,0 3.65,-0.418 5.19,-1.25 1.54,-0.836 2.84,-1.98 3.91,-3.437 1.07,-1.461 1.87,-3.063 2.42,-4.805 0.55,-1.746 0.82,-3.477 0.82,-5.195 0,-2.5 -0.51,-4.883 -1.52,-7.149 -1.02,-2.265 -2.48,-4.105 -4.38,-5.511 -1.9,-1.407 -4.1,-2.11 -6.6,-2.11 -2.81,0 -5.5,0.758 -8.05,2.27 -2.55,1.511 -4.84,3.539 -6.87,6.09 l -1.88,2.582 c -1.97,-3.231 -4.32,-5.86 -7.03,-7.891 -2.7,-2.035 -5.67,-3.051 -8.9,-3.051 z m -0.71,2.27 c 5.52,0 10.45,3.672 14.77,11.015 l -3.44,4.375 c -1.98,2.657 -3.83,4.727 -5.55,6.211 -1.71,1.485 -3.69,2.223 -5.93,2.223 -1.93,0 -3.64,-0.547 -5.12,-1.637 -1.48,-1.094 -2.64,-2.527 -3.48,-4.297 -0.83,-1.773 -1.25,-3.597 -1.25,-5.468 0,-1.461 0.24,-2.934 0.71,-4.414 0.47,-1.485 1.13,-2.829 1.99,-4.028 0.86,-1.195 1.91,-2.16 3.16,-2.89 1.25,-0.727 2.63,-1.09 4.14,-1.09 z m 22.97,9.449 c 1.98,-2.602 3.83,-4.645 5.55,-6.129 1.72,-1.484 3.69,-2.23 5.94,-2.23 1.46,0 2.79,0.328 3.98,0.98 1.2,0.652 2.24,1.508 3.13,2.574 0.88,1.071 1.56,2.281 2.03,3.637 0.47,1.352 0.7,2.758 0.7,4.219 0,1.976 -0.4,3.929 -1.21,5.855 -0.81,1.93 -1.97,3.508 -3.48,4.731 -1.51,1.222 -3.28,1.836 -5.31,1.836 -5.52,0 -10.44,-3.7 -14.77,-11.098 l 3.44,-4.375"
       style="fill:#000000;fill-opacity:1;fill-rule:nonzero;stroke:none"
       transform="matrix(0.13333333,0,0,-0.13333333,0,160)" />
    <path
       id="path117"
       d="m 1381.91,946.742 c -0.52,0 -0.78,0.258 -0.78,0.778 0,0.261 0.05,0.445 0.16,0.55 10.26,10.051 15.39,24.606 15.39,43.672 0,19.058 -5.08,33.548 -15.24,43.438 -0.21,0.15 -0.31,0.41 -0.31,0.78 0,0.21 0.08,0.39 0.24,0.54 0.15,0.16 0.33,0.24 0.54,0.24 h 0.86 c 0.16,0 0.29,-0.05 0.39,-0.15 4.32,-3.39 7.92,-7.52 10.78,-12.39 2.87,-4.87 4.96,-10.06 6.29,-15.58 1.33,-5.53 1.99,-11.151 1.99,-16.878 0,-4.273 -0.35,-8.465 -1.06,-12.582 -0.7,-4.113 -1.82,-8.16 -3.39,-12.144 -1.56,-3.989 -3.56,-7.672 -5.98,-11.055 -2.42,-3.387 -5.29,-6.41 -8.63,-9.066 -0.1,-0.102 -0.23,-0.153 -0.39,-0.153 h -0.86"
       style="fill:#000000;fill-opacity:1;fill-rule:nonzero;stroke:none"
       transform="matrix(0.13333333,0,0,-0.13333333,0,160)" />
    <path
       id="path118"
       d="m 1039.89,990.84 h 99.62"
       style="fill:none;stroke:#e61a1a;stroke-width:12;stroke-linecap:butt;stroke-linejoin:round;stroke-miterlimit:10;stroke-dasharray:none;stroke-opacity:1"
       transform="matrix(0.13333333,0,0,-0.13333333,0,160)" />
    <path
       id="path119"
       d="m 1089.7,997.34 c 3.59,0 6.5,-2.91 6.5,-6.5 v 0 c 0,-3.59 -2.91,-6.5 -6.5,-6.5 -3.59,0 -6.5,2.91 -6.5,6.5 0,3.59 2.91,6.5 6.5,6.5 z m 0,12 c -10.22,0 -18.5,-8.29 -18.5,-18.5 0,-10.215 8.28,-18.5 18.5,-18.5 10.21,0 18.5,8.285 18.5,18.5 v 0 c 0,10.21 -8.29,18.5 -18.5,18.5"
       style="fill:#e61a1a;fill-opacity:1;fill-rule:nonzero;stroke:none"
       transform="matrix(0.13333333,0,0,-0.13333333,0,160)" />
    <path
       id="path120"
       d="m 1205.24,917.117 c -2.65,0 -5.03,0.742 -7.11,2.231 -2.08,1.48 -3.7,3.433 -4.84,5.859 -1.15,2.418 -1.72,4.93 -1.72,7.535 h 2.34 c 0,-2.031 0.51,-3.957 1.53,-5.781 1.01,-1.824 2.38,-3.297 4.1,-4.414 1.71,-1.121 3.62,-1.68 5.7,-1.68 2.08,0 3.98,0.559 5.7,1.68 1.72,1.117 3.08,2.59 4.06,4.414 1,1.824 1.49,3.75 1.49,5.781 h 2.34 c 0,-2.605 -0.57,-5.117 -1.71,-7.535 -1.15,-2.426 -2.76,-4.379 -4.85,-5.859 -2.08,-1.489 -4.43,-2.231 -7.03,-2.231"
       style="fill:#000000;fill-opacity:1;fill-rule:nonzero;stroke:none"
       transform="matrix(0.13333333,0,0,-0.13333333,0,160)" />
    <path
       id="path121"
       d="m 1166.14,847.57 c -0.57,0 -0.85,0.391 -0.85,1.172 0,0.156 0.05,0.418 0.15,0.785 0.1,0.364 0.24,0.661 0.39,0.895 0.16,0.234 0.34,0.355 0.55,0.355 3.7,0 6.25,0.18 7.66,0.543 0.78,0.262 1.35,1.067 1.71,2.422 l 12.35,49.453 c 0.15,0.575 0.23,0.993 0.23,1.25 0,0.629 -0.39,0.993 -1.17,1.094 -1.09,0.207 -3.23,0.313 -6.41,0.313 -0.57,0 -0.86,0.414 -0.86,1.25 0,0.105 0.04,0.355 0.12,0.746 0.08,0.386 0.21,0.687 0.39,0.894 0.19,0.207 0.38,0.313 0.59,0.313 h 48.83 c 0.57,0 0.86,-0.391 0.86,-1.168 l -2.11,-18.676 c 0,-0.156 -0.12,-0.324 -0.36,-0.504 -0.23,-0.184 -0.42,-0.277 -0.58,-0.277 h -0.78 c -0.63,0 -0.94,0.39 -0.94,1.172 0.36,2.914 0.55,5.078 0.55,6.484 0,2.398 -0.42,4.258 -1.25,5.586 -0.84,1.328 -1.93,2.293 -3.28,2.891 -1.36,0.597 -2.87,0.964 -4.54,1.093 -1.66,0.129 -3.82,0.196 -6.48,0.196 h -10.23 c -1.67,0 -2.77,-0.129 -3.29,-0.391 -0.51,-0.262 -1.01,-1.145 -1.48,-2.656 l -5.39,-21.719 h 7.03 c 3.08,0 5.38,0.207 6.91,0.625 1.54,0.418 2.77,1.301 3.68,2.656 0.91,1.356 1.73,3.492 2.46,6.41 0.05,0.207 0.17,0.387 0.35,0.543 0.18,0.157 0.37,0.235 0.59,0.235 h 0.78 c 0.57,0 0.86,-0.391 0.86,-1.168 l -5.55,-22.192 c -0.11,-0.519 -0.39,-0.781 -0.86,-0.781 h -0.86 c -0.57,0 -0.86,0.367 -0.86,1.098 0.58,2.39 0.86,4.164 0.86,5.308 0,1.77 -0.79,2.891 -2.38,3.36 -1.59,0.472 -3.69,0.707 -6.29,0.707 h -7.5 l -6.1,-24.457 c -0.25,-0.731 -0.39,-1.379 -0.39,-1.953 0,-0.469 1.02,-0.7 3.05,-0.7 h 10.94 c 4.32,0 7.82,0.325 10.51,0.973 2.68,0.652 4.92,1.719 6.71,3.207 1.8,1.481 3.34,3.367 4.61,5.66 1.28,2.293 2.83,5.625 4.65,10 0.16,0.367 0.44,0.547 0.86,0.547 h 0.79 c 0.26,0 0.48,-0.101 0.66,-0.312 0.18,-0.207 0.27,-0.442 0.27,-0.7 0,-0.109 -0.05,-0.214 -0.16,-0.316 l -9.21,-21.719 c -0.16,-0.363 -0.39,-0.547 -0.71,-0.547 h -50.08"
       style="fill:#000000;fill-opacity:1;fill-rule:nonzero;stroke:none"
       transform="matrix(0.13333333,0,0,-0.13333333,0,160)" />
    <path
       id="path122"
       d="m 1261.44,825.227 c -3.33,2.656 -6.21,5.691 -8.63,9.105 -2.42,3.41 -4.4,7.039 -5.94,10.895 -1.53,3.855 -2.68,7.894 -3.43,12.109 -0.76,4.219 -1.14,8.465 -1.14,12.734 0,4.325 0.38,8.594 1.14,12.817 0.75,4.215 1.91,8.265 3.47,12.144 1.56,3.879 3.57,7.528 6.02,10.942 2.44,3.406 5.28,6.39 8.51,8.941 0,0.106 0.16,0.156 0.47,0.156 h 0.86 c 0.16,0 0.31,-0.078 0.46,-0.234 0.16,-0.156 0.24,-0.34 0.24,-0.547 0,-0.258 -0.08,-0.441 -0.24,-0.547 -2.91,-2.918 -5.34,-6.015 -7.29,-9.297 -1.96,-3.281 -3.52,-6.769 -4.69,-10.468 -1.18,-3.7 -2.04,-7.528 -2.59,-11.485 -0.54,-3.957 -0.81,-8.097 -0.81,-12.422 0,-19.062 5.1,-33.543 15.31,-43.433 0.21,-0.211 0.31,-0.473 0.31,-0.785 0,-0.157 -0.09,-0.325 -0.27,-0.504 -0.18,-0.184 -0.32,-0.278 -0.43,-0.278 h -0.86 c -0.31,0 -0.47,0.051 -0.47,0.157"
       style="fill:#000000;fill-opacity:1;fill-rule:nonzero;stroke:none"
       transform="matrix(0.13333333,0,0,-0.13333333,0,160)" />
    <path
       id="path123"
       d="m 1286.6,846.242 c -2.09,0 -4.03,0.379 -5.82,1.133 -1.8,0.758 -3.36,1.879 -4.69,3.359 -1.33,1.485 -2.32,3.125 -2.97,4.922 -0.65,1.797 -0.98,3.735 -0.98,5.821 0,3.75 0.89,7.394 2.66,10.937 1.77,3.543 4.19,6.602 7.27,9.184 3.07,2.574 6.4,4.304 10,5.191 -1.77,3.281 -3.12,6.094 -4.03,8.438 -0.91,2.343 -1.36,4.765 -1.36,7.265 0,1.774 0.41,3.363 1.25,4.77 0.83,1.402 2,2.496 3.51,3.277 1.51,0.781 3.18,1.172 5,1.172 1.83,0 5.36,-0.598 10.63,-1.797 1.4,-0.312 2.11,-1.121 2.11,-2.422 0,-0.988 -0.37,-1.887 -1.1,-2.695 -0.73,-0.809 -1.59,-1.211 -2.58,-1.211 -0.78,0 -1.46,0.168 -2.03,0.512 -0.57,0.336 -1.49,0.918 -2.74,1.754 -1.25,0.832 -2.37,1.484 -3.39,1.953 -1.02,0.472 -2.04,0.707 -3.09,0.707 -1.25,0 -2.36,-0.379 -3.36,-1.137 -0.98,-0.754 -1.48,-1.734 -1.48,-2.93 0,-1.925 0.85,-4.125 2.54,-6.597 1.69,-2.477 4.1,-5.641 7.23,-9.496 3.53,-4.532 5.3,-9.504 5.3,-14.922 0,-2.707 -0.38,-5.625 -1.16,-8.75 -0.78,-3.125 -1.92,-6.082 -3.41,-8.867 -1.48,-2.786 -3.36,-5.079 -5.66,-6.875 -2.29,-1.797 -4.84,-2.696 -7.65,-2.696 z m 0.15,2.422 c 2.35,0 4.37,1.211 6.06,3.633 1.69,2.422 2.97,5.312 3.83,8.676 0.86,3.359 1.29,6.183 1.29,8.472 0,4.481 -1.57,9.532 -4.7,15.157 -3.17,-0.883 -5.91,-2.731 -8.19,-5.547 -2.3,-2.813 -4.03,-6.055 -5.2,-9.723 -1.17,-3.676 -1.76,-7.152 -1.76,-10.43 0,-2.867 0.74,-5.289 2.23,-7.265 1.48,-1.981 3.63,-2.973 6.44,-2.973"
       style="fill:#000000;fill-opacity:1;fill-rule:nonzero;stroke:none"
       transform="matrix(0.13333333,0,0,-0.13333333,0,160)" />
    <path
       id="path124"
       d="m 1324.57,833.367 c -2.45,0 -4.62,0.715 -6.53,2.149 -1.9,1.433 -3.34,3.297 -4.33,5.586 -1,2.293 -1.49,4.636 -1.49,7.035 0,1.82 0.29,3.601 0.86,5.347 0.57,1.746 1.41,3.321 2.5,4.727 1.1,1.406 2.42,2.527 3.99,3.359 1.56,0.832 3.28,1.25 5.15,1.25 1.98,0 3.87,-0.379 5.67,-1.132 1.79,-0.754 3.46,-1.743 5,-2.965 1.53,-1.227 2.95,-2.645 4.25,-4.262 l 1.96,-2.574 c 1.25,2.027 2.65,3.851 4.22,5.465 1.56,1.617 3.33,2.929 5.31,3.945 1.98,1.016 4.08,1.523 6.33,1.523 1.92,0 3.65,-0.418 5.19,-1.25 1.54,-0.832 2.84,-1.976 3.91,-3.433 1.07,-1.461 1.87,-3.063 2.42,-4.805 0.55,-1.746 0.82,-3.48 0.82,-5.195 0,-2.5 -0.51,-4.883 -1.52,-7.153 -1.02,-2.265 -2.48,-4.101 -4.38,-5.507 -1.9,-1.407 -4.1,-2.11 -6.6,-2.11 -2.81,0 -5.5,0.754 -8.05,2.27 -2.55,1.508 -4.84,3.539 -6.87,6.09 l -1.88,2.578 c -1.97,-3.231 -4.32,-5.86 -7.03,-7.891 -2.7,-2.031 -5.67,-3.047 -8.9,-3.047 z m -0.71,2.27 c 5.52,0 10.45,3.672 14.77,11.015 l -3.44,4.375 c -1.98,2.657 -3.83,4.727 -5.55,6.207 -1.71,1.485 -3.69,2.227 -5.93,2.227 -1.93,0 -3.64,-0.547 -5.12,-1.641 -1.48,-1.093 -2.64,-2.523 -3.48,-4.293 -0.83,-1.773 -1.25,-3.597 -1.25,-5.472 0,-1.457 0.24,-2.93 0.71,-4.414 0.47,-1.485 1.13,-2.825 1.99,-4.024 0.86,-1.199 1.91,-2.16 3.16,-2.89 1.25,-0.727 2.63,-1.09 4.14,-1.09 z m 22.97,9.449 c 1.98,-2.602 3.83,-4.648 5.55,-6.129 1.72,-1.488 3.69,-2.23 5.94,-2.23 1.46,0 2.79,0.324 3.98,0.98 1.2,0.648 2.24,1.508 3.13,2.574 0.88,1.071 1.56,2.282 2.03,3.633 0.47,1.356 0.7,2.762 0.7,4.223 0,1.976 -0.4,3.926 -1.21,5.855 -0.81,1.93 -1.97,3.504 -3.48,4.731 -1.51,1.222 -3.28,1.832 -5.31,1.832 -5.52,0 -10.44,-3.696 -14.77,-11.094 l 3.44,-4.375"
       style="fill:#000000;fill-opacity:1;fill-rule:nonzero;stroke:none"
       transform="matrix(0.13333333,0,0,-0.13333333,0,160)" />
    <path
       id="path125"
       d="m 1381.91,825.07 c -0.52,0 -0.78,0.262 -0.78,0.782 0,0.257 0.05,0.441 0.16,0.55 10.26,10.047 15.39,24.606 15.39,43.668 0,19.063 -5.08,33.543 -15.24,43.442 -0.21,0.152 -0.31,0.414 -0.31,0.777 0,0.207 0.08,0.391 0.24,0.547 0.15,0.156 0.33,0.234 0.54,0.234 h 0.86 c 0.16,0 0.29,-0.05 0.39,-0.156 4.32,-3.387 7.92,-7.512 10.78,-12.383 2.87,-4.871 4.96,-10.066 6.29,-15.586 1.33,-5.519 1.99,-11.144 1.99,-16.875 0,-4.269 -0.35,-8.461 -1.06,-12.578 -0.7,-4.113 -1.82,-8.164 -3.39,-12.144 -1.56,-3.989 -3.56,-7.672 -5.98,-11.059 -2.42,-3.387 -5.29,-6.406 -8.63,-9.062 -0.1,-0.106 -0.23,-0.157 -0.39,-0.157 h -0.86"
       style="fill:#000000;fill-opacity:1;fill-rule:nonzero;stroke:none"
       transform="matrix(0.13333333,0,0,-0.13333333,0,160)" />
    <path
       id="path126"
       d="m 1039.89,873.996 h 99.62"
       style="fill:none;stroke:#3366ff;stroke-width:12;stroke-linecap:butt;stroke-linejoin:round;stroke-miterlimit:10;stroke-dasharray:none;stroke-opacity:1"
       transform="matrix(0.13333333,0,0,-0.13333333,0,160)" />
    <path
       id="path127"
       d="m 1089.7,880.496 c 3.59,0 6.5,-2.91 6.5,-6.5 v 0 c 0,-3.59 -2.91,-6.5 -6.5,-6.5 -3.59,0 -6.5,2.91 -6.5,6.5 0,3.59 2.91,6.5 6.5,6.5 z m 0,12 c -10.22,0 -18.5,-8.285 -18.5,-18.5 0,-10.215 8.28,-18.5 18.5,-18.5 10.21,0 18.5,8.285 18.5,18.5 v 0 c 0,10.215 -8.29,18.5 -18.5,18.5"
       style="fill:#3366ff;fill-opacity:1;fill-rule:nonzero;stroke:none"
       transform="matrix(0.13333333,0,0,-0.13333333,0,160)" />
    <path
       id="path128"
       d="m 1010,800 h 430 v 260 h -430 z"
       style="fill:none;stroke:#262626;stroke-width:5;stroke-linecap:butt;stroke-linejoin:miter;stroke-miterlimit:10;stroke-dasharray:none;stroke-opacity:1"
       transform="matrix(0.13333333,0,0,-0.13333333,0,160)" />
  </g>
</svg>
